<svg width="951" height="127" viewBox="0 0 951 127" fill="none" xmlns="http://www.w3.org/2000/svg">
<path d="M88.6816 1.05273H88.9453C93.75 1.05273 97.2656 3.86523 99.4922 9.49023C99.7852 10.8379 99.9316 11.834 99.9316 12.4785C99.9316 17.1074 97.3242 20.5645 92.1094 22.8496C90.9375 23.2598 89.8828 23.4648 88.9453 23.4648H88.2422C83.3789 23.4648 79.8633 20.5937 77.6953 14.8516C77.5195 13.3867 77.373 12.5371 77.2559 12.3027C77.2559 7.43945 80.0098 3.83594 85.5176 1.49219C86.8652 1.19922 87.9199 1.05273 88.6816 1.05273ZM10.3711 2.10742H50.9766C55.6641 2.10742 59.0039 4.80273 60.9961 10.1934C61.1133 11.1309 61.1719 11.8926 61.1719 12.4785V115.574C61.1719 121.375 58.0078 125.125 51.6797 126.824C51.1523 126.941 50.5078 127 49.7461 127C44.5898 127 40.9863 124.041 38.9355 118.123C38.8184 117.361 38.7598 116.717 38.7598 116.189V22.4102H10.3711C5.21484 22.4102 1.81641 19.6563 0.175781 14.1484C0.0585937 13.4453 0 12.7422 0 12.0391C0 7.35156 2.75391 4.09961 8.26172 2.2832C9.02344 2.16602 9.72656 2.10742 10.3711 2.10742ZM120.41 0.964844C125.273 0.964844 128.789 3.83594 130.957 9.57812C131.25 10.9844 131.396 12.2734 131.396 13.4453V114.52C131.396 120.789 128.438 124.891 122.52 126.824L120.41 127H119.795C114.873 127 111.357 124.129 109.248 118.387C108.955 117.215 108.809 116.014 108.809 114.783V13.1816C108.809 7.38086 111.562 3.45508 117.07 1.4043C118.301 1.11133 119.414 0.964844 120.41 0.964844ZM193.447 0.964844H193.711C198.984 0.964844 202.646 3.83594 204.697 9.57812C204.932 11.043 205.049 12.4785 205.049 13.8848V114.08C205.049 120.701 202.09 124.949 196.172 126.824L194.062 127H193.447C188.877 127 185.449 124.393 183.164 119.178C182.695 117.713 182.461 116.453 182.461 115.398V12.5664C182.461 7.41016 185.068 3.74805 190.283 1.58008C191.455 1.16992 192.51 0.964844 193.447 0.964844ZM158.027 52.6445C162.773 52.6445 166.289 55.3398 168.574 60.7305C168.984 62.4297 169.189 63.543 169.189 64.0703C169.189 68.8164 166.523 72.332 161.191 74.6172C159.434 75.0859 158.291 75.3203 157.764 75.3203C153.018 75.3203 149.502 72.625 147.217 67.2344C146.807 65.5352 146.602 64.4219 146.602 63.8945C146.602 59.1484 149.268 55.6328 154.6 53.3477C156.357 52.8789 157.5 52.6445 158.027 52.6445ZM227.021 1.05273H287.93C293.438 1.05273 297.305 3.51367 299.531 8.43555L300.322 12.2148C300.322 16.6094 297.949 20.125 293.203 22.7617C291.27 23.2891 289.512 23.5527 287.93 23.5527H226.846C221.045 23.5527 217.119 20.8281 215.068 15.3789C214.775 14.1484 214.629 13.0352 214.629 12.0391C214.629 7.17578 217.5 3.66016 223.242 1.49219C224.648 1.19922 225.908 1.05273 227.021 1.05273ZM225.791 52.8203H257.344C262.266 52.8203 265.781 55.3691 267.891 60.4668C268.301 61.5801 268.506 62.6348 268.506 63.6309V64.4219C268.506 69.4023 265.576 72.918 259.717 74.9688C258.721 75.1445 257.93 75.2324 257.344 75.2324H225.791C220.811 75.2324 217.295 72.625 215.244 67.4102C214.834 66.2383 214.629 65.1836 214.629 64.2461V63.8066C214.629 58.709 217.588 55.1348 223.506 53.084C224.443 52.9082 225.205 52.8203 225.791 52.8203ZM288.809 52.8203H288.984C294.258 52.8203 297.92 55.7207 299.971 61.5215L300.322 63.9824C300.322 68.7871 297.598 72.3906 292.148 74.793C290.801 75.0859 289.746 75.2324 288.984 75.2324H288.809C283.945 75.2324 280.43 72.4199 278.262 66.7949C277.969 65.4473 277.822 64.4512 277.822 63.8066C277.822 59.2949 280.43 55.8672 285.645 53.5234C286.758 53.0547 287.812 52.8203 288.809 52.8203ZM226.846 104.5H287.93C294.316 104.5 298.33 107.518 299.971 113.553C300.088 114.607 300.205 115.311 300.322 115.662C300.322 120.174 297.861 123.66 292.939 126.121C291.357 126.707 289.688 127 287.93 127H227.021C220.869 127 216.797 124.041 214.805 118.123C214.688 116.951 214.629 116.043 214.629 115.398C214.629 110.477 217.5 106.961 223.242 104.852C224.355 104.617 225.557 104.5 226.846 104.5ZM366.416 1.05273H427.324C433.535 1.05273 437.549 3.92383 439.365 9.66602C439.6 10.7207 439.717 11.7168 439.717 12.6543C439.717 17.6934 436.641 21.2676 430.488 23.377L427.939 23.5527H366.416C360.264 23.5527 356.279 20.6816 354.463 14.9395L354.023 12.2148C354.023 7.35156 356.836 3.77734 362.461 1.49219C364.16 1.19922 365.479 1.05273 366.416 1.05273ZM365.01 52.8203H428.818C434.033 52.8203 437.607 55.9258 439.541 62.1367C439.658 62.8984 439.717 63.6016 439.717 64.2461C439.717 68.9336 437.139 72.3613 431.982 74.5293C430.811 74.998 429.756 75.2324 428.818 75.2324H376.523V114.607C376.523 121.053 373.389 125.125 367.119 126.824L365.186 127C360.322 127 356.748 124.188 354.463 118.562C354.17 116.863 354.023 115.545 354.023 114.607V65.0371C354.023 59.2949 356.748 55.3691 362.197 53.2598C363.486 52.9668 364.424 52.8203 365.01 52.8203ZM460.107 1.05273H460.371C465.703 1.05273 469.365 4.01172 471.357 9.92969C471.475 10.6914 471.533 11.3359 471.533 11.8633V12.6543C471.533 17.6348 468.574 21.1797 462.656 23.2891C461.719 23.4062 460.957 23.4648 460.371 23.4648C455.156 23.4648 451.553 20.6523 449.561 15.0273C449.268 14.0313 449.121 13.1816 449.121 12.4785V12.0391C449.121 7.29297 451.729 3.83594 456.943 1.66797C458.115 1.25781 459.17 1.05273 460.107 1.05273ZM534.639 1.05273H535.254C540.234 1.05273 543.779 3.95312 545.889 9.75391C546.123 10.8672 546.24 12.0684 546.24 13.3574V78.4844C546.24 101.16 535.605 116.482 514.336 124.451C508.008 126.15 502.559 127 497.988 127H497.637C481.289 127 467.93 120.584 457.559 107.752C451.934 99.666 449.121 90.5547 449.121 80.418V64.1582C449.121 59.0605 451.816 55.457 457.207 53.3477C457.793 53.0547 458.848 52.8496 460.371 52.7324C465.469 52.7324 469.131 55.6914 471.357 61.6094C471.475 62.5469 471.533 63.3086 471.533 63.8945V77.6934C471.533 87.2441 473.789 93.8066 478.301 97.3809C483.574 102.186 490.078 104.588 497.812 104.588C508.008 104.588 515.684 100.545 520.84 92.459C522.715 88.9434 523.652 85.3691 523.652 81.7363V13.5332C523.652 7.26367 526.611 3.16211 532.529 1.22852L534.639 1.05273ZM643.271 1.05273H643.535C648.34 1.05273 651.855 3.86523 654.082 9.49023C654.375 10.8379 654.521 11.834 654.521 12.4785C654.521 17.1074 651.914 20.5645 646.699 22.8496C645.527 23.2598 644.473 23.4648 643.535 23.4648H642.832C637.969 23.4648 634.453 20.5937 632.285 14.8516C632.109 13.3867 631.963 12.5371 631.846 12.3027C631.846 7.43945 634.6 3.83594 640.107 1.49219C641.455 1.19922 642.51 1.05273 643.271 1.05273ZM564.961 2.10742H605.566C610.254 2.10742 613.594 4.80273 615.586 10.1934C615.703 11.1309 615.762 11.8926 615.762 12.4785V115.574C615.762 121.375 612.598 125.125 606.27 126.824C605.742 126.941 605.098 127 604.336 127C599.18 127 595.576 124.041 593.525 118.123C593.408 117.361 593.35 116.717 593.35 116.189V22.4102H564.961C559.805 22.4102 556.406 19.6563 554.766 14.1484C554.648 13.4453 554.59 12.7422 554.59 12.0391C554.59 7.35156 557.344 4.09961 562.852 2.2832C563.613 2.16602 564.316 2.10742 564.961 2.10742ZM674.385 1.05273H674.648C679.98 1.05273 683.643 4.01172 685.635 9.92969C685.752 10.6914 685.811 11.3359 685.811 11.8633V12.6543C685.811 17.6348 682.852 21.1797 676.934 23.2891C675.996 23.4062 675.234 23.4648 674.648 23.4648C669.434 23.4648 665.83 20.6523 663.838 15.0273C663.545 14.0313 663.398 13.1816 663.398 12.4785V12.0391C663.398 7.29297 666.006 3.83594 671.221 1.66797C672.393 1.25781 673.447 1.05273 674.385 1.05273ZM748.916 1.05273H749.531C754.512 1.05273 758.057 3.95312 760.166 9.75391C760.4 10.8672 760.518 12.0684 760.518 13.3574V78.4844C760.518 101.16 749.883 116.482 728.613 124.451C722.285 126.15 716.836 127 712.266 127H711.914C695.566 127 682.207 120.584 671.836 107.752C666.211 99.666 663.398 90.5547 663.398 80.418V64.1582C663.398 59.0605 666.094 55.457 671.484 53.3477C672.07 53.0547 673.125 52.8496 674.648 52.7324C679.746 52.7324 683.408 55.6914 685.635 61.6094C685.752 62.5469 685.811 63.3086 685.811 63.8945V77.6934C685.811 87.2441 688.066 93.8066 692.578 97.3809C697.852 102.186 704.355 104.588 712.09 104.588C722.285 104.588 729.961 100.545 735.117 92.459C736.992 88.9434 737.93 85.3691 737.93 81.7363V13.5332C737.93 7.26367 740.889 3.16211 746.807 1.22852L748.916 1.05273ZM816.504 0.876953H819.844C835.605 0.876953 846.855 8.8457 853.594 24.7832C855.234 29.8223 856.055 34.4805 856.055 38.7578C856.055 50.7695 850.928 60.6133 840.674 68.2891C837.451 69.9297 835.84 70.8965 835.84 71.1895C848.672 97.9082 855.264 112 855.615 113.465C855.908 114.578 856.055 115.398 856.055 115.926C856.055 121.023 853.066 124.656 847.09 126.824L844.629 127C839.18 127 834.873 122.488 831.709 113.465L812.812 74.1777H791.104V83.4941C791.104 89.2363 787.998 93.0449 781.787 94.9199H779.941C774.902 94.9199 771.357 92.0781 769.307 86.3945C769.014 85.0469 768.867 83.6699 768.867 82.2637V39.1973C768.867 32.6934 771.768 28.5332 777.568 26.7168L779.678 26.4531H780.293C784.805 26.4531 788.203 29.0312 790.488 34.1875C790.898 35.6523 791.104 36.9121 791.104 37.9668V51.8535H821.338C828.428 51.8535 832.588 48.1035 833.818 40.6035V37.7031C833.818 30.9062 830.625 26.1895 824.238 23.5527C823.184 23.2598 822.217 23.1133 821.338 23.1133H818.613C812.344 23.1133 808.184 20.8281 806.133 16.2578C805.605 14.7344 805.254 13.2988 805.078 11.9512C805.078 7.32227 807.656 3.83594 812.812 1.49219C814.277 1.08203 815.508 0.876953 816.504 0.876953ZM779.941 104.764C784.16 104.764 787.559 106.961 790.137 111.355C790.781 113.113 791.104 114.725 791.104 116.189C791.104 120.877 788.35 124.334 782.842 126.561C781.494 126.854 780.439 127 779.678 127C774.932 127 771.475 124.158 769.307 118.475L768.867 115.926C768.867 111.414 771.357 107.957 776.338 105.555C777.627 105.203 778.828 104.939 779.941 104.764ZM877.588 1.05273H938.496C944.004 1.05273 947.871 3.51367 950.098 8.43555L950.889 12.2148C950.889 16.6094 948.516 20.125 943.77 22.7617C941.836 23.2891 940.078 23.5527 938.496 23.5527H877.412C871.611 23.5527 867.686 20.8281 865.635 15.3789C865.342 14.1484 865.195 13.0352 865.195 12.0391C865.195 7.17578 868.066 3.66016 873.809 1.49219C875.215 1.19922 876.475 1.05273 877.588 1.05273ZM876.357 52.8203H907.91C912.832 52.8203 916.348 55.3691 918.457 60.4668C918.867 61.5801 919.072 62.6348 919.072 63.6309V64.4219C919.072 69.4023 916.143 72.918 910.283 74.9688C909.287 75.1445 908.496 75.2324 907.91 75.2324H876.357C871.377 75.2324 867.861 72.625 865.811 67.4102C865.4 66.2383 865.195 65.1836 865.195 64.2461V63.8066C865.195 58.709 868.154 55.1348 874.072 53.084C875.01 52.9082 875.771 52.8203 876.357 52.8203ZM939.375 52.8203H939.551C944.824 52.8203 948.486 55.7207 950.537 61.5215L950.889 63.9824C950.889 68.7871 948.164 72.3906 942.715 74.793C941.367 75.0859 940.312 75.2324 939.551 75.2324H939.375C934.512 75.2324 930.996 72.4199 928.828 66.7949C928.535 65.4473 928.389 64.4512 928.389 63.8066C928.389 59.2949 930.996 55.8672 936.211 53.5234C937.324 53.0547 938.379 52.8203 939.375 52.8203ZM877.412 104.5H938.496C944.883 104.5 948.896 107.518 950.537 113.553C950.654 114.607 950.771 115.311 950.889 115.662C950.889 120.174 948.428 123.66 943.506 126.121C941.924 126.707 940.254 127 938.496 127H877.588C871.436 127 867.363 124.041 865.371 118.123C865.254 116.951 865.195 116.043 865.195 115.398C865.195 110.477 868.066 106.961 873.809 104.852C874.922 104.617 876.123 104.5 877.412 104.5Z" fill="white"/>
</svg>
