<svg height="600pt" preserveAspectRatio="xMidYMid meet" viewBox="0 0 886 600" width="886pt" xmlns="http://www.w3.org/2000/svg"><g transform="matrix(.1 0 0 -.1 0 600)"><path d="m4361 5507c-13-35-14-137-1-157 29-46 52 115 23 165-11 19-12 19-22-8z"/><path d="m4127 5506c-19-49 2-181 27-173 19 6 18 108-2 152-15 32-19 36-25 21z"/><path d="m4246 5512c-24-39-10-178 17-169 16 5 16 152 1 167-7 7-14 8-18 2z"/><path d="m4469 5466c-13-60-5-126 15-126 19 0 26 23 26 90 0 103-21 122-41 36z"/><path d="m4596 5488c-21-49-22-158-1-158 27 0 44 110 25 170-7 25-8 24-24-12z"/><path d="m4005 5472c-13-60 20-173 45-157 22 14 5 130-24 170-13 18-14 17-21-13z"/><path d="m4717 5478c-19-28-34-125-23-153 5-14 9-15 21-5 17 14 28 78 23 140l-3 45z"/><path d="m3892 5413c5-72 29-130 48-118 23 14-5 150-37 176-15 13-16 8-11-58z"/><path d="m4824 5442c-21-44-31-137-16-146 17-10 44 51 49 114 7 70-8 84-33 32z"/><path d="m3775 5430c-13-41 26-160 53-160 21 0 10 85-18 139-23 47-26 49-35 21z"/><path d="m4945 5426c-31-46-48-156-25-156 21 0 43 53 48 115 2 36 2 65-1 65-4 0-14-11-22-24z"/><path d="m3663 5370c6-62 34-130 54-130 30 0 6 110-34 156l-24 29z"/><path d="m5054 5384c-20-30-46-123-38-135 18-29 58 37 69 114 8 54-4 62-31 21z"/><path d="m3550 5345c0-48 43-145 65-145 8 0 15 8 15 18 0 32-29 106-55 137l-24 30z"/><path d="m5178 5363c-40-44-75-163-49-163 19 0 50 53 62 104 14 65 10 85-13 59z"/><path d="m3440 5311c0-63 56-168 79-146 14 15-21 112-53 143l-26 27z"/><path d="m5267 5288c-30-46-54-114-44-124 22-22 71 52 83 125 8 53-4 52-39-1z"/><path d="m4197 5306c-7-19 18-42 28-26 8 13-1 40-14 40-5 0-11-6-14-14z"/><path d="m4304 5309c-10-17 13-36 27-22 12 12 4 33-11 33-5 0-12-5-16-11z"/><path d="m4412 5303c4-21 33-25 33-3 0 8-8 16-18 18-14 3-18-1-15-15z"/><path d="m4521 5306c-9-10-8-16 3-25 10-9 16-8 25 3 9 10 8 16-3 25-10 9-16 8-25-3z"/><path d="m4091 5296c-9-10-8-16 3-25 10-9 16-8 25 3 9 10 8 16-3 25-10 9-16 8-25-3z"/><path d="m4631 5296c-9-10-8-16 3-25 10-9 16-8 25 3 9 10 8 16-3 25-10 9-16 8-25-3z"/><path d="m3987 5284c-14-14-7-35 11-32 9 2 17 10 17 17 0 16-18 25-28 15z"/><path d="m4734 5279c-10-17 13-36 27-22 12 12 4 33-11 33-5 0-12-5-16-11z"/><path d="m3330 5259c0-30 41-119 63-137 59-49 24 80-37 137l-26 24z"/><path d="m5385 5256c-28-28-64-100-65-128 0-31 29-20 54 21 25 39 51 119 42 128-3 3-17-7-31-21z"/><path d="m3875 5253c-6-17 13-36 27-27 13 8 9 31-6 37-8 3-17-1-21-10z"/><path d="m4250 5255c-15-18-5-35 21-35 12 0 19 7 19 19 0 24-25 34-40 16z"/><path d="m4354 5255c-4-9-2-21 4-27 15-15 44-1 40 19-4 23-36 29-44 8z"/><path d="m4461 5256c-16-19-6-36 20-36 15 0 20 6 17 22-4 27-21 33-37 14z"/><path d="m4842 5258c-8-8-9-15 0-25 14-17 39 2 31 23-6 17-15 18-31 2z"/><path d="m4144 5245c-7-18 3-35 22-35 20 0 30 30 13 41-20 12-29 11-35-6z"/><path d="m4564 5245c-7-18 3-35 21-35 21 0 28 19 15 35-16 19-29 19-36 0z"/><path d="m3770 5225c-10-12-9-16 3-21 17-6 37 2 37 16 0 15-29 19-40 5z"/><path d="m4034 5229c-8-14 21-43 35-35 19 12 13 46-8 46-11 0-23-5-27-11z"/><path d="m4665 5230c-9-15 14-40 31-33 22 8 18 43-5 43-11 0-23-5-26-10z"/><path d="m4945 5231c-8-15 3-31 21-31 9 0 14 7 12 17-4 20-24 28-33 14z"/><path d="m3234 5186c8-60 71-144 92-123 13 12-19 78-57 119l-40 43z"/><path d="m3935 5210c-9-15 4-30 26-30 12 0 19 7 19 20 0 21-33 29-45 10z"/><path d="m4770 5200c0-16 5-21 23-18 12 2 22 10 22 18s-10 16-22 18c-18 3-23-2-23-18z"/><path d="m5486 5197c-27-27-66-98-66-122 0-51 80 39 95 107 9 40 1 45-29 15z"/><path d="m3665 5193c-3-9 0-20 7-25 20-12 28-9 28 11 0 24-26 35-35 14z"/><path d="m5052 5197c-13-15 1-42 17-33 13 9 15 33 2 40-5 3-13 0-19-7z"/><path d="m3834 5185c-4-9-2-21 4-27 15-15 44-1 40 19-4 23-36 29-44 8z"/><path d="m4874 5185c-4-9-2-21 4-27 15-15 44-1 40 19-4 23-36 29-44 8z"/><path d="m3565 5153c-6-17 13-36 27-27 13 8 9 31-6 37-8 3-17-1-21-10z"/><path d="m3734 5155c-4-9-2-21 4-27 15-15 44-1 40 19-4 23-36 29-44 8z"/><path d="m4271 5131c-1-28 3-41 8-35 6 5 6 24 1 44l-8 35z"/><path d="m4466 5137c-5-21-6-41-2-44 12-12 17 5 14 43l-4 39z"/><path d="m4974 5155c-4-9-2-21 4-27 15-15 44-1 40 19-4 23-36 29-44 8z"/><path d="m5150 5155c-10-12-9-16 5-21 23-9 40 10 22 25-11 9-17 8-27-4z"/><path d="m3126 5133c14-59 83-147 101-129 13 12-13 70-48 110-46 53-62 58-53 19z"/><path d="m5581 5129c-40-41-74-110-61-123 22-22 105 93 98 136-3 19-6 18-37-13z"/><path d="m4668 5130c-12-38-10-66 3-53 6 6 9 26 7 44-3 32-3 33-10 9z"/><path d="m3643 5133c-21-8-15-43 6-43 11 0 23 5 27 11 8 14-17 38-33 32z"/><path d="m4070 5108c0-21 5-38 10-38 13 0 13 40 0 60-7 11-10 5-10-22z"/><path d="m4350 5115-24-26 25-25 25-25 24 26 24 26-25 25-25 25z"/><path d="m5083 5133c-21-8-15-43 6-43 11 0 23 5 27 11 8 14-17 38-33 32z"/><path d="m4151 5101-21-29 29-21 29-21 21 29 21 29-29 21-29 21z"/><path d="m3467 5106c-3-8 1-17 9-20 23-9 24-8 24 14 0 23-25 27-33 6z"/><path d="m4536 5102c-15-18-15-21 5-45 20-26 21-26 44-9 29 21 31 34 7 55-24 22-35 21-56-1z"/><path d="m5246 5112c-8-13 11-35 23-28 16 10 14 36-3 36-8 0-17-4-20-8z"/><path d="m3870 5090c0-28 12-60 22-60 6 0 7 11 3 28-7 31-25 54-25 32z"/><path d="m4737 5079-27-21 21-29c19-28 21-28 45-13 28 19 30 31 6 61l-17 22z"/><path d="m4861 5082c-7-13-10-31-8-40 3-13 7-10 16 12 15 37 9 59-8 28z"/><path d="m3033 5055c18-61 107-147 107-105 0 37-81 140-110 140-4 0-3-16 3-35z"/><path d="m3535 5080c-9-15 14-40 31-33 22 8 18 43-5 43-11 0-23-5-26-10z"/><path d="m3956 5066c-15-24-15-26 13-45l29-21 16 25c21 32 20 42-3 55-29 15-37 13-55-14z"/><path d="m5170 5070c0-13 7-20 20-20s20 7 20 20-7 20-20 20-20-7-20-20z"/><path d="m5692 5074c-55-38-103-134-68-134 28 0 101 105 94 136-3 12-6 12-26-2z"/><path d="m3370 5056c0-21 21-31 31-15 14 22 11 29-11 29-11 0-20-6-20-14z"/><path d="m5342 5053c2-10 10-18 18-18 22 0 18 29-3 33-14 3-18-1-15-15z"/><path d="m3444 5035c-7-18 3-35 21-35s26 15 19 34c-8 20-33 21-40 1z"/><path d="m5264 5035c-4-9-2-21 4-27 15-15 44-1 40 19-4 23-36 29-44 8z"/><path d="m3681 5025c0-11 6-31 14-45l14-25 1 26c0 14-7 34-15 45-14 19-14 19-14-1z"/><path d="m3770 5021c-16-30-12-39 19-55 28-15 29-15 42 16 11 27 10 32-6 44-26 19-42 17-55-5z"/><path d="m4925 5028c-11-6-21-12-23-14-2-1 4-16 13-33 15-31 16-31 45-16 34 18 34 16 18 50-12 27-23 30-53 13z"/><path d="m5057 5033c-16-26-26-63-17-63 12 0 32 48 27 64-2 7-5 7-10-1z"/><path d="m2930 5008c0-35 84-138 112-138 16 0 7 33-21 73-32 46-91 88-91 65z"/><path d="m3276 5005c-3-9 1-18 10-22 19-7 28 2 21 22-8 19-23 19-31 0z"/><path d="m4270 4993c0-16 5-35 10-43 7-11 10-4 10 28 0 23-4 42-10 42-5 0-10-12-10-27z"/><path d="m4357 5002c-16-18-16-20 1-35 18-16 20-16 35 1 16 18 16 20-1 35-18 16-20 16-35-1z"/><path d="m4458 5003c-2-10-2-29 2-43 6-24 7-23 13 9 7 36-7 67-15 34z"/><path d="m5443 5014c-16-7-5-34 13-34 8 0 14 9 14 20 0 20-5 23-27 14z"/><path d="m5772 4994c-28-22-82-99-82-117 0-19 37-3 67 29 27 29 63 92 63 110 0 10-18 2-48-22z"/><path d="m4170 4989c-10-17-8-23 7-34 15-12 20-12 31 2 17 23 15 31-8 43-15 8-21 6-30-11z"/><path d="m4536 4992c-15-18-15-20 2-35 18-16 20-16 35 0 13 15 13 21 3 36-16 21-19 21-40-1z"/><path d="m3350 4976c0-20 5-26 21-26 15 0 20 5 17 22-5 34-38 37-38 4z"/><path d="m4091 4978c0-13 4-32 9-43 7-16 9-13 9 17 1 20-3 40-9 43s-10-4-9-17z"/><path d="m4640 4963c0-28 3-34 10-23 13 20 13 60 0 60-5 0-10-17-10-37z"/><path d="m5354 4985c-4-9-2-21 4-27 15-15 44-1 40 19-4 23-36 29-44 8z"/><path d="m3992 4968c-17-17-15-32 8-45 16-11 21-10 30 6 13 26 13 29-8 40-13 7-23 6-30-1z"/><path d="m4721 4966c-13-16-5-46 13-46 23 0 36 22 25 42-12 22-22 23-38 4z"/><path d="m3585 4939c-8-36-8-35 27-44 23-6 29-3 40 20 11 24 10 29-7 41-31 23-53 17-60-17z"/><path d="m5103 4960c-20-8-21-12-10-39 12-33 32-39 61-18 14 10 15 18 7 40-11 28-22 31-58 17z"/><path d="m3187 4953c-14-13-6-33 13-33 13 0 20 7 20 20 0 19-20 27-33 13z"/><path d="m3503 4929c7-18 19-35 26-37 9-3 9 4-3 26-22 43-40 51-23 11z"/><path d="m3910 4938c0-13 5-30 10-38 7-11 10-7 10 17 0 17-4 35-10 38s-10-4-10-17z"/><path d="m4822 4937c-18-42-14-68 4-34 8 16 13 36 11 45-3 13-7 10-15-11z"/><path d="m5227 4931c-20-34-21-41-7-41 11 0 32 48 28 62-2 5-11-4-21-21z"/><path d="m5530 4940c0-11 7-20 15-20s15 9 15 20-7 20-15 20-15-9-15-20z"/><path d="m2840 4926c0-37 107-143 125-124 12 11-24 65-67 102-45 39-58 44-58 22z"/><path d="m3260 4920c0-13 7-20 20-20s20 7 20 20-7 20-20 20-20-7-20-20z"/><path d="m5445 4930c-9-15 4-30 26-30 12 0 19 7 19 20 0 21-33 29-45 10z"/><path d="m5868 4922c-33-21-88-90-88-108 0-38 61 0 101 64 41 65 38 78-13 44z"/><path d="m3810 4910c-8-16-6-21 11-31 17-9 23-8 30 2 13 21 11 36-7 43-22 8-22 8-34-14z"/><path d="m4897 4919c-13-8-15-14-7-30 12-21 18-23 39-10 8 5 11 16 6 30-7 24-12 25-38 10z"/><path d="m3731 4895c0-11 6-31 14-45l14-25 1 26c0 14-7 34-15 45-14 19-14 19-14-1z"/><path d="m4356 4884c-17-45 2-173 23-159 15 8 24 88 16 134-7 42-28 55-39 25z"/><path d="m5000 4897c0-1-4-17-9-35-12-40-6-41 14-2 18 34 18 40 5 40-5 0-10-1-10-3z"/><path d="m5621 4890c-16-9-6-30 15-30 15 0 20 25 6 34-4 2-14 1-21-4z"/><path d="m3100 4875c0-8 7-15 15-15s15 7 15 15-7 15-15 15-15-7-15-15z"/><path d="m4183 4874c-14-37 18-171 38-158 13 7 11 131-1 155-13 23-28 25-37 3z"/><path d="m4523 4863c-10-37-10-139 0-149 19-20 53 103 41 150-8 34-32 33-41-1z"/><path d="m3170 4860c0-16 5-21 23-18 12 2 22 10 22 18s-10 16-22 18c-18 3-23-2-23-18z"/><path d="m3416 4864c-13-34-6-52 22-57 31-6 37-2 46 34 5 22 2 28-17 33-34 9-44 7-51-10z"/><path d="m5277 4873c-14-4-17-11-13-26 3-12 6-28 6-35 0-10 9-12 33-7 41 9 40 8 32 44-7 31-16 35-58 24z"/><path d="m5530 4861c0-24 25-34 40-16s5 35-21 35c-12 0-19-7-19-19z"/><path d="m4015 4851c-11-34 35-184 52-168 11 11 3 117-11 151-17 40-31 46-41 17z"/><path d="m4280 4860c0-5 5-10 10-10 6 0 10 5 10 10 0 6-4 10-10 10-5 0-10-4-10-10z"/><path d="m4450 4860c0-5 5-10 10-10 6 0 10 5 10 10 0 6-4 10-10 10-5 0-10-4-10-10z"/><path d="m4695 4840c-20-39-30-122-18-145 8-14 12-11 28 22 22 45 32 137 17 147-6 4-18-7-27-24z"/><path d="m2750 4855c0-18 34-67 69-98 63-56 94-47 50 15-32 44-119 105-119 83z"/><path d="m3320 4857c0-15 31-67 40-67 6 0 10 3 10 8 0 10-49 69-50 59z"/><path d="m3637 4840c-6-23 13-36 39-26 22 8 13 40-12 44-15 2-23-4-27-18z"/><path d="m5063 4852c-8-5-8-13 1-30 10-20 14-21 31-9 32 24 3 61-32 39z"/><path d="m5401 4834c-23-29-27-44-11-44 11 0 44 59 37 66-3 3-14-7-26-22z"/><path d="m5955 4842c-61-38-118-122-82-122 22 0 87 61 107 101 23 44 18 47-25 21z"/><path d="m4110 4840c0-5 5-10 10-10 6 0 10 5 10 10 0 6-4 10-10 10-5 0-10-4-10-10z"/><path d="m4620 4840c0-5 5-10 10-10 6 0 10 5 10 10 0 6-4 10-10 10-5 0-10-4-10-10z"/><path d="m3017 4824c-14-15-6-34 14-34 14 0 19 5 17 17-3 18-20 27-31 17z"/><path d="m3560 4818c0-9 9-26 21-39l20-24-7 25c-3 14-12 32-20 40-12 12-14 12-14-2z"/><path d="m4273 4814c-8-21 13-42 28-27 13 13 5 43-11 43-6 0-13-7-17-16z"/><path d="m4441 4816c-8-10-8-16 2-24 17-14 42 2 34 22s-21 20-36 2z"/><path d="m5160 4800c-17-41-6-50 14-11 18 35 19 41 7 41-5 0-14-14-21-30z"/><path d="m5707 4823c-13-12-7-33 8-33 8 0 15 9 15 20 0 20-11 26-23 13z"/><path d="m3087 4806c-7-17 18-40 33-31 5 3 10 15 10 26 0 23-35 27-43 5z"/><path d="m3850 4788c0-35 40-131 59-142 19-12 12 72-10 125-25 57-49 65-49 17z"/><path d="m3942 4811c2-7 7-12 11-12 12 1 9 15-3 20-7 2-11-2-8-8z"/><path d="m4782 4809c2-6 8-10 13-10s11 4 13 10-4 11-13 11-15-5-13-11z"/><path d="m4850 4778c-11-24-20-65-20-93v-50l20 25c23 29 50 104 50 137 0 38-29 27-50-19z"/><path d="m5614 4805c-4-9-2-21 4-27 15-15 44-1 40 19-4 23-36 29-44 8z"/><path d="m4110 4790c0-15 5-20 18-18 9 2 17 10 17 18s-8 16-17 18c-13 2-18-3-18-18z"/><path d="m4607 4804c-14-15-6-34 14-34 14 0 19 5 17 17-3 18-20 27-31 17z"/><path d="m3475 4760c-8-25-7-25 21-34 17-5 23-2 27 16 7 26 8 24-20 32-16 5-23 2-28-14z"/><path d="m3951 4767c-14-17 3-41 23-34 9 4 16 13 16 21 0 19-26 28-39 13z"/><path d="m5231 4771c-8-5-11-16-6-30 5-17 12-20 28-15 28 8 27 6 20 32-6 23-19 27-42 13z"/><path d="m2670 4758c0-17 107-118 125-118 39 0 2 60-63 101-50 32-62 35-62 17z"/><path d="m3248 4739c-5-34 6-43 44-37 18 2 24 10 26 36 3 30 2 32-31 32-31 0-35-3-39-31z"/><path d="m3780 4755c0-8 5-15 10-15 6 0 10 7 10 15s-4 15-10 15c-5 0-10-7-10-15z"/><path d="m4762 4753c2-10 10-18 18-18s16 8 18 18c2 12-3 17-18 17s-20-5-18-17z"/><path d="m4946 4762c-3-6-1-14 5-17 15-10 25 3 12 16-7 7-13 7-17 1z"/><path d="m5430 4735c0-35 1-36 33-33 28 3 32 6 32 33s-4 30-32 33c-32 3-33 2-33-33z"/><path d="m6013 4741c-68-49-99-101-59-101 19 0 95 68 112 101 20 39 1 39-53 0z"/><path d="m3690 4733c0-33 33-104 60-128 20-18 20-17 20 14 0 52-45 141-72 141-4 0-8-12-8-27z"/><path d="m4281 4746c-9-10-8-16 3-25 10-9 16-8 25 3 9 10 8 16-3 25-10 9-16 8-25-3z"/><path d="m4440 4744c-9-10-10-18-2-26 12-12 32-2 32 17 0 21-16 26-30 9z"/><path d="m5007 4713c-31-59-46-128-26-121 21 7 69 90 76 131 8 54-18 48-50-10z"/><path d="m2930 4735c0-8 9-15 20-15s20 7 20 15-9 15-20 15-20-7-20-15z"/><path d="m3012 4728c2-13 10-23 18-23s16 10 18 23c3 17-2 22-18 22s-21-5-18-22z"/><path d="m5694 4739c-8-14 21-43 35-35 19 12 13 46-8 46-11 0-23-5-27-11z"/><path d="m5780 4735c0-8 7-15 15-15s15 7 15 15-7 15-15 15-15-7-15-15z"/><path d="m3170 4710c23-33 40-46 40-32s-40 62-51 62c-6 0-1-13 11-30z"/><path d="m3400 4729c0-9 9-27 20-40 26-32 27-3 0 31-15 19-20 21-20 9z"/><path d="m4127 4734c-14-14-7-35 11-32 9 2 17 10 17 17 0 16-18 25-28 15z"/><path d="m4597 4734c-14-14-7-35 11-32 9 2 17 10 17 17 0 16-18 25-28 15z"/><path d="m5320 4708c-10-18-17-34-15-36 6-7 44 41 45 56 0 20-9 14-30-20z"/><path d="m5562 4717c-24-25-28-37-12-37 11 0 45 48 38 55-2 3-14-5-26-18z"/><path d="m3792 4703c2-10 10-18 18-18s16 8 18 18c2 12-3 17-18 17s-20-5-18-17z"/><path d="m4920 4699c0-14 5-19 17-17 26 5 29 38 4 38-15 0-21-6-21-21z"/><path d="m3972 4698c-8-8-9-15-1-25 15-17 25-17 32 1 8 21-16 39-31 24z"/><path d="m4752 4701c-17-10-4-41 14-34 15 6 19 29 6 37-4 2-14 1-20-3z"/><path d="m3626 4691c-4-5-2-12 3-15 5-4 12-2 15 3 4 5 2 12-3 15-5 4-12 2-15-3z"/><path d="m5100 4685c0-9 5-15 11-13s11 8 11 13-5 11-11 13-11-4-11-13z"/><path d="m2590 4670c0-6 20-31 44-55 63-62 129-77 92-20-28 43-136 103-136 75z"/><path d="m2857 4674c-9-10 4-34 19-34 8 0 14 9 14 20 0 19-19 27-33 14z"/><path d="m2934 4665c-4-9-2-21 4-27 15-15 44-1 40 19-4 23-36 29-44 8z"/><path d="m3327 4673c-14-13-6-41 12-46 11-3 22-2 25 1 12 11 5 40-10 46-19 7-19 7-27-1z"/><path d="m3530 4670c0-36 77-150 101-150 14 0-18 89-46 125-25 33-55 47-55 25z"/><path d="m5167 4650c-28-33-63-117-53-127 18-18 96 93 96 137 0 28-14 25-43-10z"/><path d="m5389 4673c-11-3-15-12-11-29 3-17 9-23 19-20 8 3 19 6 25 6 12 0 6 43-7 45-5 2-17 1-26-2z"/><path d="m5774 4665c-4-9-2-21 4-27 15-15 44-1 40 19-4 23-36 29-44 8z"/><path d="m5860 4660c0-11 7-20 15-20s15 9 15 20-7 20-15 20-15-9-15-20z"/><path d="m6105 4663c-39-20-95-73-95-90 0-42 102 23 141 90 12 22-5 22-46 0z"/><path d="m4250 4660c0-5 5-10 10-10 6 0 10 5 10 10 0 6-4 10-10 10-5 0-10-4-10-10z"/><path d="m4290 4660c0-5 5-10 10-10 6 0 10 5 10 10 0 6-4 10-10 10-5 0-10-4-10-10z"/><path d="m4330 4660c0-5 5-10 10-10 6 0 10 5 10 10 0 6-4 10-10 10-5 0-10-4-10-10z"/><path d="m4360 4660c0-5 5-10 10-10 6 0 10 5 10 10 0 6-4 10-10 10-5 0-10-4-10-10z"/><path d="m4400 4660c0-5 5-10 10-10 6 0 10 5 10 10 0 6-4 10-10 10-5 0-10-4-10-10z"/><path d="m4440 4660c0-5 5-10 10-10 6 0 10 5 10 10 0 6-4 10-10 10-5 0-10-4-10-10z"/><path d="m4475 4660c-3-5 1-10 10-10s13 5 10 10c-3 6-8 10-10 10s-7-4-10-10z"/><path d="m3643 4644c-8-20 8-36 26-25 15 10 8 41-9 41-6 0-13-7-17-16z"/><path d="m3820 4640c0-11 6-20 14-20 21 0 31 21 15 31-22 14-29 11-29-11z"/><path d="m4180 4650c0-5 5-10 10-10 6 0 10 5 10 10 0 6-4 10-10 10-5 0-10-4-10-10z"/><path d="m4215 4650c4-6 11-8 16-5 14 9 11 15-7 15-8 0-12-5-9-10z"/><path d="m4515 4650c3-5 8-10 11-10 2 0 4 5 4 10 0 6-5 10-11 10-5 0-7-4-4-10z"/><path d="m4550 4650c0-5 5-10 10-10 6 0 10 5 10 10 0 6-4 10-10 10-5 0-10-4-10-10z"/><path d="m4902 4651c-17-10-4-41 14-34 15 6 19 29 6 37-4 2-14 1-20-3z"/><path d="m5073 4644c-8-20 8-36 26-25 15 10 8 41-9 41-6 0-13-7-17-16z"/><path d="m3100 4615c0-33 2-35 35-35s35 2 35 35-2 35-35 35-35-2-35-35z"/><path d="m4105 4640c-3-5-1-10 4-10 6 0 11 5 11 10 0 6-2 10-4 10-3 0-8-4-11-10z"/><path d="m4140 4639c0-5 5-7 10-4 6 3 10 8 10 11 0 2-4 4-10 4-5 0-10-5-10-11z"/><path d="m4590 4639c0-5 5-7 10-4 6 3 10 8 10 11 0 2-4 4-10 4-5 0-10-5-10-11z"/><path d="m4625 4640c-3-5-1-10 4-10 6 0 11 5 11 10 0 6-2 10-4 10-3 0-8-4-11-10z"/><path d="m5580 4615c0-33 2-35 35-35s35 2 35 35-2 35-35 35-35-2-35-35z"/><path d="m4070 4630c0-5 5-10 10-10 6 0 10 5 10 10 0 6-4 10-10 10-5 0-10-4-10-10z"/><path d="m4660 4630c0-5 5-10 10-10 6 0 10 5 10 10 0 6-4 10-10 10-5 0-10-4-10-10z"/><path d="m3250 4619c0-8 11-26 25-39 32-30 32-14 0 25-16 20-24 25-25 14z"/><path d="m4030 4620c0-5 5-10 10-10 6 0 10 5 10 10 0 6-4 10-10 10-5 0-10-4-10-10z"/><path d="m4700 4619c0-5 5-7 10-4 6 3 10 8 10 11 0 2-4 4-10 4-5 0-10-5-10-11z"/><path d="m5472 4605c-31-39-28-55 4-23 15 14 24 32 22 39-3 8-12 2-26-16z"/><path d="m3995 4610c3-5 8-10 11-10 2 0 4 5 4 10 0 6-5 10-11 10-5 0-7-4-4-10z"/><path d="m4730 4610c0-5 5-10 10-10 6 0 10 5 10 10 0 6-4 10-10 10-5 0-10-4-10-10z"/><path d="m3480 4600c0-5 5-10 10-10 6 0 10 5 10 10 0 6-4 10-10 10-5 0-10-4-10-10z"/><path d="m3960 4600c0-5 5-10 10-10 6 0 10 5 10 10 0 6-4 10-10 10-5 0-10-4-10-10z"/><path d="m4348 4588-23-23 28-3c15-2 37-2 48 0 20 3 20 4-4 26l-25 24z"/><path d="m4770 4600c0-5 5-10 10-10 6 0 10 5 10 10 0 6-4 10-10 10-5 0-10-4-10-10z"/><path d="m5250 4600c0-5 5-10 10-10 6 0 10 5 10 10 0 6-4 10-10 10-5 0-10-4-10-10z"/><path d="m2791 4591c-16-10-6-31 15-31 8 0 14 9 14 20 0 22-7 25-29 11z"/><path d="m2860 4581c0-27 19-36 37-18s9 37-18 37c-12 0-19-7-19-19z"/><path d="m3010 4592c0-13 39-46 46-39 3 3 3 10-1 16-9 15-45 33-45 23z"/><path d="m3920 4590c0-5 5-10 10-10 6 0 10 5 10 10 0 6-4 10-10 10-5 0-10-4-10-10z"/><path d="m4206 4578c-20-29-16-31 35-23l43 7-23 19c-30 24-36 24-55-3z"/><path d="m4486 4581c-16-17-16-19 6-25 13-3 33-6 46-6 23 0 23 0 5 25-22 30-34 31-57 6z"/><path d="m4805 4590c4-6 11-8 16-5 14 9 11 15-7 15-8 0-12-5-9-10z"/><path d="m5699 4574c-21-23-22-26-5-23 19 4 56 49 39 49-5 0-20-12-34-26z"/><path d="m5844 4589c-3-6 0-17 7-25 18-17 44-2 36 20-7 18-33 21-43 5z"/><path d="m5930 4581c0-12 6-21 16-21 9 0 14 7 12 17-5 25-28 28-28 4z"/><path d="m3390 4572c0-37 85-142 114-142 15 0-30 92-60 123-40 41-54 46-54 19z"/><path d="m3675 4580c-8-14 3-30 21-30 8 0 14 9 14 20 0 21-24 28-35 10z"/><path d="m3890 4580c0-5 5-10 10-10 6 0 10 5 10 10 0 6-4 10-10 10-5 0-10-4-10-10z"/><path d="m4840 4580c0-5 5-10 10-10 6 0 10 5 10 10 0 6-4 10-10 10-5 0-10-4-10-10z"/><path d="m5036 4582c-2-4-1-14 3-20 10-17 41-4 34 14-6 15-29 19-37 6z"/><path d="m5317 4570c-26-21-84-126-74-136 9-9 82 62 102 100 25 47 10 66-28 36z"/><path d="m2532 4558c37-56 138-111 138-75 0 27-97 97-134 97-17 0-17-2-4-22z"/><path d="m3506 4573c-3-4-6-15-6-25 0-24 33-21 38 3 3 17-21 33-32 22z"/><path d="m3850 4570c0-5 5-10 10-10 6 0 10 5 10 10 0 6-4 10-10 10-5 0-10-4-10-10z"/><path d="m4072 4559c-18-28-10-33 35-24l37 7-24 19c-31 23-32 23-48-2z"/><path d="m4630 4562-23-19 41-10c23-6 42-9 42-7 0 11-24 54-30 54-5 0-18-8-30-18z"/><path d="m4875 4570c-3-5-1-10 4-10 6 0 11 5 11 10 0 6-2 10-4 10-3 0-8-4-11-10z"/><path d="m5213 4564c-8-21 13-42 28-27 13 13 5 43-11 43-6 0-13-7-17-16z"/><path d="m6165 4564c-33-17-95-73-95-86 0-32 103 21 140 71 20 29 20 31 3 31-10 0-31-7-48-16z"/><path d="m3180 4535c0-20 5-25 25-25s25 5 25 25-5 25-25 25-25-5-25-25z"/><path d="m3820 4550c0-5 5-10 10-10 6 0 10 5 10 10 0 6-4 10-10 10-5 0-10-4-10-10z"/><path d="m4910 4550c0-5 5-10 10-10 6 0 10 5 10 10 0 6-4 10-10 10-5 0-10-4-10-10z"/><path d="m5520 4535c0-20 5-25 25-25s25 5 25 25-5 25-25 25-25-5-25-25z"/><path d="m3785 4540c-3-5-1-10 4-10 6 0 11 5 11 10 0 6-2 10-4 10-3 0-8-4-11-10z"/><path d="m4940 4540c0-5 5-10 10-10 6 0 10 5 10 10 0 6-4 10-10 10-5 0-10-4-10-10z"/><path d="m3932 4515c-16-35-16-36 16-24 15 5 34 12 42 15 12 5 12 8-4 20-28 20-41 17-54-11z"/><path d="m4761 4526-24-13 33-12c53-18 63-15 44 14s-21 29-53 11z"/><path d="m3750 4520c0-5 5-10 10-10 6 0 10 5 10 10 0 6-4 10-10 10-5 0-10-4-10-10z"/><path d="m4354 4515c-4-9-2-21 4-27 15-15 44-1 40 19-4 23-36 29-44 8z"/><path d="m4980 4519c0-5 5-7 10-4 6 3 10 8 10 11 0 2-4 4-10 4-5 0-10-5-10-11z"/><path d="m2790 4501c0-24 25-34 40-16s5 35-21 35c-12 0-19-7-19-19z"/><path d="m3720 4510c0-5 5-10 11-10 5 0 7 5 4 10-3 6-8 10-11 10-2 0-4-4-4-10z"/><path d="m4220 4501c0-26 17-36 35-21s8 40-16 40c-12 0-19-7-19-19z"/><path d="m4484 4505c-4-9-2-21 4-27 15-15 44-1 40 19-4 23-36 29-44 8z"/><path d="m5010 4510c0-5 5-10 10-10 6 0 10 5 10 10 0 6-4 10-10 10-5 0-10-4-10-10z"/><path d="m5910 4501c0-24 25-34 40-16s5 35-21 35c-12 0-19-7-19-19z"/><path d="m2720 4490c0-13 5-18 15-14 8 4 15 12 15 20s-7 14-15 14-15-9-15-20z"/><path d="m2960 4475c0-33 2-35 35-35s35 2 35 35-2 35-35 35-35-2-35-35z"/><path d="m3340 4500c0-5 5-10 10-10 6 0 10 5 10 10 0 6-4 10-10 10-5 0-10-4-10-10z"/><path d="m3540 4496c0-20 27-28 34-10 9 23 8 24-14 24-11 0-20-6-20-14z"/><path d="m5170 4497c0-19 10-27 26-20 21 8 17 33-6 33-11 0-20-6-20-13z"/><path d="m5385 4500c-3-5 1-10 9-10 9 0 16 5 16 10 0 6-4 10-9 10-6 0-13-4-16-10z"/><path d="m5720 4475c0-33 2-35 35-35s35 2 35 35-2 35-35 35-35-2-35-35z"/><path d="m5996 4495c-4-10 1-15 14-15 11 0 20 7 20 15s-6 15-14 15-16-7-20-15z"/><path d="m3110 4492c0-9 25-33 49-47 10-6 12-4 6 6-22 38-55 63-55 41z"/><path d="m3680 4490c0-5 5-10 10-10 6 0 10 5 10 10 0 6-4 10-10 10-5 0-10-4-10-10z"/><path d="m4092 4478c2-13 10-23 18-23s16 10 18 23c3 17-2 22-18 22s-21-5-18-22z"/><path d="m4614 4485c-4-9-2-21 4-27 15-15 44-1 40 19-4 23-36 29-44 8z"/><path d="m5040 4490c0-5 5-10 10-10 6 0 10 5 10 10 0 6-4 10-10 10-5 0-10-4-10-10z"/><path d="m5602 4477c-31-33-27-42 8-17 17 12 30 26 30 31 0 16-16 10-38-14z"/><path d="m2450 4481c0-9 57-62 90-84 25-18 70-23 70-9 0 11-50 57-79 72-34 18-81 30-81 21z"/><path d="m3801 4464c-16-35-10-38 33-17 34 16 36 18 20 30-26 19-39 16-53-13z"/><path d="m4890 4479c-24-10-24-10 19-30 24-10 45-19 46-19 2 0-2 14-8 30-12 32-18 34-57 19z"/><path d="m6255 4477c-72-24-147-97-100-97 40 0 142 75 134 98-3 5-16 5-34-1z"/><path d="m3256 4471c-16-25 102-147 122-127 11 11-31 77-67 107-38 31-47 34-55 20z"/><path d="m3365 4470c-4-7-3-16 3-22 14-14 45-2 40 15-6 16-34 21-43 7z"/><path d="m3650 4470c0-5 5-10 10-10 6 0 10 5 10 10 0 6-4 10-10 10-5 0-10-4-10-10z"/><path d="m5080 4470c0-5 5-10 10-10 6 0 10 5 10 10 0 6-4 10-10 10-5 0-10-4-10-10z"/><path d="m5347 4473c-14-13-6-33 13-33 13 0 20 7 20 20 0 19-20 27-33 13z"/><path d="m5435 4448c-31-26-75-94-75-113 0-14 60 27 93 64 35 39 49 81 27 81-5 0-25-14-45-32z"/><path d="m3967 4463c-15-14-7-43 12-43 26 0 36 17 21 35-14 16-23 19-33 8z"/><path d="m4751 4461c-19-12-6-43 16-39 10 2 18 12 18 22 0 22-14 29-34 17z"/><path d="m3620 4450c0-5 5-10 10-10 6 0 10 5 10 10 0 6-4 10-10 10-5 0-10-4-10-10z"/><path d="m5110 4450c0-5 5-10 10-10 6 0 10 5 10 10 0 6-4 10-10 10-5 0-10-4-10-10z"/><path d="m2892 4423c15-15 31-23 35-19 9 8-32 46-50 46-7 0 1-12 15-27z"/><path d="m4367 4443c-10-10-8-101 2-107 12-8 21 18 21 57 0 35-12 61-23 50z"/><path d="m5834 4426c-16-14-24-26-18-26 17 0 60 37 53 45-4 3-20-5-35-19z"/><path d="m2727 4426c-7-17 18-40 33-31 5 3 10 15 10 26 0 23-35 27-43 5z"/><path d="m3590 4430c0-5 5-10 10-10 6 0 10 5 10 10 0 6-4 10-10 10-5 0-10-4-10-10z"/><path d="m4240 4401c0-46 9-73 21-65 17 10 6 104-12 104-5 0-9-18-9-39z"/><path d="m4486 4424c-9-24-7-94 3-94 13 0 21 27 21 71 0 40-13 52-24 23z"/><path d="m5140 4430c0-5 5-10 10-10 6 0 10 5 10 10 0 6-4 10-10 10-5 0-10-4-10-10z"/><path d="m5976 4431c-10-16 5-42 23-39 21 4 21 42-1 46-9 2-19-1-22-7z"/><path d="m2663 4423c-21-7-15-33 7-33 11 0 20 6 20 14 0 18-11 25-27 19z"/><path d="m3050 4405c0-20 5-25 25-25s25 5 25 25-5 25-25 25-25-5-25-25z"/><path d="m3679 4403c-15-41-11-44 30-21 43 25 44 33 5 41-20 3-27 0-35-20z"/><path d="m5035 4422c-37-8-35-18 5-41l41-23-7 29c-8 35-14 41-39 35z"/><path d="m5650 4405c0-20 5-25 25-25s25 5 25 25-5 25-25 25-25-5-25-25z"/><path d="m3410 4399c0-14 5-19 17-17 26 5 29 38 4 38-15 0-21-6-21-21z"/><path d="m3560 4410c0-5 5-10 10-10 6 0 10 5 10 10 0 6-4 10-10 10-5 0-10-4-10-10z"/><path d="m3836 4404c-4-10-2-22 3-27 14-14 43 0 39 20-4 24-34 28-42 7z"/><path d="m4116 4412c-8-14 10-89 24-97 15-9 12 68-3 90-10 12-16 14-21 7z"/><path d="m4606 4404c-3-9-6-34-6-57 0-55 20-35 27 27 5 45-8 64-21 30z"/><path d="m4873 4409c-16-16-5-39 19-39 14 0 19 6 16 22-4 25-19 33-35 17z"/><path d="m5170 4410c0-5 5-10 10-10 6 0 10 5 10 10 0 6-4 10-10 10-5 0-10-4-10-10z"/><path d="m5300 4400c0-15 5-20 18-18 9 2 17 10 17 18s-8 16-17 18c-13 2-18-3-18-18z"/><path d="m6060 4404c0-9 7-14 17-12 25 5 28 28 4 28-12 0-21-6-21-16z"/><path d="m4310 4369c0-22 4-38 8-35 8 5 4 76-4 76-2 0-4-18-4-41z"/><path d="m4427 4376c-5-21-6-41-3-44 12-11 17 7 14 44l-3 39z"/><path d="m3210 4385c0-9 5-15 11-13s11 8 11 13-5 11-11 13-11-4-11-13z"/><path d="m3530 4390c0-5 5-10 11-10 5 0 7 5 4 10-3 6-8 10-11 10-2 0-4-4-4-10z"/><path d="m4548 4380c-12-39-10-76 3-63 6 6 9 28 7 49-3 35-4 36-10 14z"/><path d="m5200 4390c0-5 5-10 10-10 6 0 10 5 10 10 0 6-4 10-10 10-5 0-10-4-10-10z"/><path d="m5510 4385c0-9 5-15 11-13s11 8 11 13-5 11-11 13-11-4-11-13z"/><path d="m3995 4379c-9-13 23-99 36-99s11 36-5 75c-16 37-21 41-31 24z"/><path d="m4191 4358c-1-20 4-40 9-43 12-7 12 32 0 60-7 16-9 13-9-17z"/><path d="m4730 4375c-6-8-14-34-17-57-5-39-4-41 10-28 18 18 39 88 27 95-4 3-13-2-20-10z"/><path d="m2396 4367c12-31 135-99 151-84 20 21-61 84-121 94-30 5-35 3-30-10z"/><path d="m3495 4370c-3-5 1-10 10-10s13 5 10 10c-3 6-8 10-10 10s-7-4-10-10z"/><path d="m5230 4370c0-5 5-10 10-10 6 0 10 5 10 10 0 6-4 10-10 10-5 0-10-4-10-10z"/><path d="m6274 4360c-23-12-51-32-64-45-20-21-21-25-7-31 22-8 96 29 132 66l29 30h-25c-13 0-42-9-65-20z"/><path d="m3243 4354c-6-16 15-37 29-28 4 3 8 14 8 25 0 23-28 26-37 3z"/><path d="m4070 4348c0-32 9-58 21-58 10 0 2 45-12 70-6 11-8 8-9-12z"/><path d="m4661 4337c-7-21-11-41-8-44 9-9 28 37 25 60-3 18-6 15-17-16z"/><path d="m5467 4356c-8-20 16-39 30-25s6 39-12 39c-7 0-15-6-18-14z"/><path d="m2839 4356c-3-3-4-19-1-36 4-27 8-30 39-30 33 0 34 2 31 33-3 28-7 32-33 35-17 2-33 1-36-2z"/><path d="m3003 4335c37-33 57-32 27 0-13 14-31 25-39 25-11-1-8-8 12-25z"/><path d="m3135 4350c-13-21 43-83 106-116 26-13 29-13 29 1 0 36-120 139-135 115z"/><path d="m3723 4349c-16-16-5-39 19-39 14 0 19 6 16 22-4 25-19 33-35 17z"/><path d="m4984 4345c-4-9-2-21 4-27 15-15 44-1 40 19-4 23-36 29-44 8z"/><path d="m5562 4332c-39-26-92-86-92-104 0-12 47 9 83 36 37 28 72 82 58 90-5 3-27-7-49-22z"/><path d="m5720 4335c-13-14-20-25-16-25 12 0 56 32 56 41 0 16-16 10-40-16z"/><path d="m5840 4324c0-34 1-35 33-32 28 3 32 7 35 36 3 31 2 32-32 32-35 0-36-1-36-36z"/><path d="m2664 4339c-3-6 0-18 9-26 18-18 37-9 37 18 0 21-34 27-46 8z"/><path d="m3470 4339c0-5 5-7 10-4 6 3 10 8 10 11 0 2-4 4-10 4-5 0-10-5-10-11z"/><path d="m3560 4321c0-37 6-38 45-6 19 16 24 25 15 25-8 0-25 3-37 6-20 6-23 3-23-25z"/><path d="m5136 4341c-16-6-14-10 18-35 33-25 36-25 36-7 0 46-14 58-54 42z"/><path d="m5260 4340c0-5 5-10 10-10 6 0 10 5 10 10 0 6-4 10-10 10-5 0-10-4-10-10z"/><path d="m6035 4340c-9-15 14-40 31-33 22 8 18 43-5 43-11 0-23-5-26-10z"/><path d="m3880 4319c0-23 30-79 42-79 13 0 9 30-8 66-18 38-34 44-34 13z"/><path d="m3956 4310c6-37 20-58 30-48 3 3-4 23-16 45l-21 38z"/><path d="m4835 4309c-9-17-15-40-13-52 3-20 6-19 26 13 23 37 29 70 12 70-5 0-17-14-25-31z"/><path d="m6120 4320c0-25 27-33 33-10 3 12-2 20-14 23-13 4-19 0-19-13z"/><path d="m2590 4315c0-8 9-15 20-15s20 7 20 15-9 15-20 15-20-7-20-15z"/><path d="m3440 4320c0-5 5-10 10-10 6 0 10 5 10 10 0 6-4 10-10 10-5 0-10-4-10-10z"/><path d="m4783 4318c-16-20-26-58-15-58 10 0 35 60 28 67-2 2-8-2-13-9z"/><path d="m5290 4320c0-5 5-10 10-10 6 0 10 5 10 10 0 6-4 10-10 10-5 0-10-4-10-10z"/><path d="m3290 4295c0-8 9-15 20-15s20 7 20 15-9 15-20 15-20-7-20-15z"/><path d="m5320 4294c0-8 5-12 10-9 6 4 8 11 5 16-9 14-15 11-15-7z"/><path d="m5420 4295c0-8 7-15 15-15s15 7 15 15-7 15-15 15-15-7-15-15z"/><path d="m3410 4289c0-5 5-7 10-4 6 3 10 8 10 11 0 2-4 4-10 4-5 0-10-5-10-11z"/><path d="m2775 4265c32-27 45-31 45-15 0 9-52 40-67 40-4-1 6-12 22-25z"/><path d="m2932 4268c2-15 11-24 26-26 18-3 22 1 22 22s-5 26-26 26-25-4-22-22z"/><path d="m3611 4276c-16-19-6-36 20-36 15 0 20 6 17 22-4 27-21 33-37 14z"/><path d="m3767 4284c-10-10 13-61 39-85 29-27 31-12 4 41-21 40-33 53-43 44z"/><path d="m4959 4274c-23-26-39-59-39-80 0-14 2-14 16-3 21 18 46 67 42 86-3 13-5 12-19-3z"/><path d="m5103 4279c-16-16-5-39 19-39 14 0 19 6 16 22-4 25-19 33-35 17z"/><path d="m5766 4274c-10-27-7-34 18-34 24 0 41 23 30 41-9 15-41 10-48-7z"/><path d="m5958 4274c-38-20-36-39 1-19 30 15 49 35 34 35-4-1-20-8-35-16z"/><path d="m2340 4261c5-11 39-34 75-52 52-25 68-30 78-20 16 16-31 55-92 76-62 21-74 20-61-4z"/><path d="m3380 4270c0-5 5-10 10-10 6 0 10 5 10 10 0 6-4 10-10 10-5 0-10-4-10-10z"/><path d="m3845 4260c4-14 13-32 21-40 23-24 17 10-7 40l-20 25z"/><path d="m4251 4266c-9-10-8-16 3-25 10-9 16-8 25 3 9 10 8 16-3 25-10 9-16 8-25-3z"/><path d="m4354 4269c-9-15 11-33 30-26 9 4 13 13 10 22-7 17-30 20-40 4z"/><path d="m4471 4271c-15-10-8-41 9-41 15 0 25 29 14 40-5 5-15 5-23 1z"/><path d="m4885 4256c-9-14-15-31-13-38 3-7 12 2 22 20 21 41 14 54-9 18z"/><path d="m6348 4266c-67-24-113-64-94-83 11-11 100 30 135 63 30 28 33 33 16 33-11 0-37-6-57-13z"/><path d="m3100 4260c0-5 5-10 10-10 6 0 10 5 10 10 0 6-4 10-10 10-5 0-10-4-10-10z"/><path d="m5625 4260c-3-5 1-10 9-10 9 0 16 5 16 10 0 6-4 10-9 10-6 0-13-4-16-10z"/><path d="m2610 4241c0-22 21-33 40-21 18 11 4 40-20 40-13 0-20-7-20-19z"/><path d="m3450 4223v-37l30 29c17 16 30 32 30 37 0 4-13 8-30 8-28 0-30-3-30-37z"/><path d="m4144 4249c-10-17 13-36 27-22 12 12 4 33-11 33-5 0-12-5-16-11z"/><path d="m4573 4245c-7-20 2-29 21-22 9 4 13 13 10 22-8 19-23 19-31 0z"/><path d="m5231 4253c0-4 16-21 35-37l36-29-4 34c-3 30-7 34-35 37-18 2-33 0-32-5z"/><path d="m6090 4241c0-24 25-34 40-16s5 35-21 35c-12 0-19-7-19-19z"/><path d="m3133 4234c-8-21 13-42 28-27 13 13 5 43-11 43-6 0-13-7-17-16z"/><path d="m3360 4239c0-5 5-7 10-4 6 3 10 8 10 11 0 2-4 4-10 4-5 0-10-5-10-11z"/><path d="m5375 4240c3-5 8-10 11-10 2 0 4 5 4 10 0 6-5 10-11 10-5 0-7-4-4-10z"/><path d="m5581 4236c-14-17-7-36 14-36 22 0 29 20 13 36-13 13-16 13-27 0z"/><path d="m2540 4220c0-22 1-23 24-14 18 7 10 34-10 34-8 0-14-9-14-20z"/><path d="m6172 4223c2-10 10-18 18-18s16 8 18 18c2 12-3 17-18 17s-20-5-18-17z"/><path d="m3330 4220c0-5 5-10 10-10 6 0 10 5 10 10 0 6-4 10-10 10-5 0-10-4-10-10z"/><path d="m4042 4213c2-10 10-18 18-18 22 0 18 29-3 33-14 3-18-1-15-15z"/><path d="m4674 4219c-10-17 13-36 27-22 12 12 4 33-11 33-5 0-12-5-16-11z"/><path d="m5400 4220c0-5 5-10 10-10 6 0 10 5 10 10 0 6-4 10-10 10-5 0-10-4-10-10z"/><path d="m3020 4211c0-20 44-61 92-85 84-42 73 0-16 65-38 28-76 38-76 20z"/><path d="m3660 4209c0-20 31-69 50-79 26-14 26 2 0 45-20 33-50 53-50 34z"/><path d="m3744 4193c18-36 36-51 36-30 0 7-12 24-26 38l-27 24z"/><path d="m4986 4195c-18-27-21-49-6-40s42 65 31 65c-5 0-16-11-25-25z"/><path d="m5046 4187c-15-19-26-42-26-53 0-15 7-12 35 18 34 36 45 68 26 68-6 0-21-15-35-33z"/><path d="m5649 4192c-41-27-86-78-76-88 16-17 147 74 147 102 0 21-22 17-71-14z"/><path d="m2875 4200c9-15 65-42 65-31 0 10-45 41-60 41-6 0-8-5-5-10z"/><path d="m5832 4194c-33-23-27-37 8-19 17 9 30 20 30 25 0 14-12 12-38-6z"/><path d="m2741 4191c-9-6-11-18-6-40 6-28 10-30 33-25 37 9 41 15 35 47-6 28-33 36-62 18z"/><path d="m3190 4180c0-15 5-20 18-18 9 2 17 10 17 18s-8 16-17 18c-13 2-18-3-18-18z"/><path d="m3300 4190c0-5 5-10 10-10 6 0 10 5 10 10 0 6-4 10-10 10-5 0-10-4-10-10z"/><path d="m3504 4185c-4-9-2-21 3-26 14-14 45 1 41 20-4 22-37 26-44 6z"/><path d="m5200 4181c0-27 19-36 37-18s9 37-18 37c-12 0-19-7-19-19z"/><path d="m5420 4190c0-5 5-10 10-10 6 0 10 5 10 10 0 6-4 10-10 10-5 0-10-4-10-10z"/><path d="m5520 4181c0-15 6-21 21-21 14 0 19 5 17 17-5 26-38 29-38 4z"/><path d="m5945 4170c-8-37-9-36 31-44 29-7 32-5 38 25 7 38 8 37-31 45-28 6-32 4-38-26z"/><path d="m3940 4176c0-21 21-31 30-15 5 7 6 17 4 21-9 14-34 9-34-6z"/><path d="m4304 4175c-8-19 12-36 33-28 19 7 12 37-10 41-9 2-20-4-23-13z"/><path d="m4400 4171c0-27 19-36 37-18s9 37-18 37c-12 0-19-7-19-19z"/><path d="m4772 4173c2-10 10-18 18-18 22 0 18 29-3 33-14 3-18-1-15-15z"/><path d="m4204 4169c-3-6 0-18 9-26 18-18 37-9 37 18 0 21-34 27-46 8z"/><path d="m4497 4166c-7-17 18-40 33-31 5 3 10 15 10 26 0 23-35 27-43 5z"/><path d="m2296 4149c23-26 78-54 122-64 29-6 33-5 30 12-4 23-101 73-141 73-30 0-30 0-11-21z"/><path d="m2564 4155c-4-9-2-21 4-27 15-15 44-1 40 19-4 23-36 29-44 8z"/><path d="m3280 4160c0-5 5-10 10-10 6 0 10 5 10 10 0 6-4 10-10 10-5 0-10-4-10-10z"/><path d="m5450 4160c0-5 5-10 10-10 6 0 10 5 10 10 0 6-4 10-10 10-5 0-10-4-10-10z"/><path d="m6144 4155c-7-18 3-35 21-35 15 0 28 27 19 41-8 14-34 11-40-6z"/><path d="m6385 4158c-42-15-97-57-89-69 13-22 122 20 158 60 19 21 19 21-10 20-16 0-42-5-59-11z"/><path d="m3350 4123v-37l30 29c17 16 30 32 30 37 0 4-13 8-30 8-28 0-30-3-30-37z"/><path d="m4110 4141c0-27 19-36 37-18s9 37-18 37c-12 0-19-7-19-19z"/><path d="m4594 4145c-4-10-1-21 7-26 20-12 34-5 34 17 0 24-33 31-41 9z"/><path d="m5357 4126c31-39 43-38 43 5 0 27-3 29-35 29h-36z"/><path d="m2503 4143c-14-5-17-29-5-37 4-2 14-1 21 3 16 11 2 40-16 34z"/><path d="m3638 4133c12-21 52-59 52-49 0 16-22 46-41 57-18 9-19 8-11-8z"/><path d="m5081 4124c-29-37-26-55 4-21 23 25 32 47 21 47-3 0-14-12-25-26z"/><path d="m6223 4134c-6-17 15-37 29-28 13 9 9 32-7 38-9 3-18-1-22-10z"/><path d="m2848 4133c-19-5-23-20-10-40 11-17 55-4 48 14-3 8-6 19-6 24 0 9-4 10-32 2z"/><path d="m3260 4129c0-5 5-7 10-4 6 3 10 8 10 11 0 2-4 4-10 4-5 0-10-5-10-11z"/><path d="m3560 4127c0-13 60-77 73-77 15 0 6 21-24 55-32 37-49 44-49 22z"/><path d="m3840 4126c0-15 24-28 34-19 13 14 5 33-14 33-11 0-20-6-20-14z"/><path d="m4870 4120c0-22 1-23 24-14 18 7 10 34-10 34-8 0-14-9-14-20z"/><path d="m5141 4109c-30-29-41-59-22-59 15 0 72 70 66 81-9 13-10 12-44-22z"/><path d="m5470 4130c0-5 5-10 10-10 6 0 10 5 10 10 0 6-4 10-10 10-5 0-10-4-10-10z"/><path d="m5865 4120c-8-25-7-25 21-34 17-5 23-2 27 16 7 26 8 24-20 32-16 5-23 2-28-14z"/><path d="m3000 4120c0-5 5-10 10-10 6 0 10 5 10 10 0 6-4 10-10 10-5 0-10-4-10-10z"/><path d="m4014 4119c-3-6 0-18 9-26 18-18 37-9 37 18 0 21-34 27-46 8z"/><path d="m4684 4119c-3-6 0-18 9-26 18-18 37-9 37 18 0 21-34 27-46 8z"/><path d="m5730 4120c0-5 5-10 10-10 6 0 10 5 10 10 0 6-4 10-10 10-5 0-10-4-10-10z"/><path d="m2663 4102c21-23 60-37 54-19-2 6-19 17-38 25-34 14-34 14-16-6z"/><path d="m4357 4102c-16-18-16-20 1-35 18-16 20-16 35 1 16 18 16 20-1 35-18 16-20 16-35-1z"/><path d="m6063 4105c-18-8-33-19-33-25 0-12 55 13 65 30 8 12 7 12-32-5z"/><path d="m3035 4100c-4-7-3-16 3-22 14-14 45-2 40 15-6 16-34 21-43 7z"/><path d="m3235 4100c3-5 8-10 11-10 2 0 4 5 4 10 0 6-5 10-11 10-5 0-7-4-4-10z"/><path d="m3417 4103c-15-14-7-43 12-43 23 0 34 23 18 39-13 13-21 14-30 4z"/><path d="m4263 4091c-9-14-9-21 0-30 15-15 28-14 42 6 11 14 10 20-4 30-21 17-24 16-38-6z"/><path d="m4440 4094c-11-12-11-18 2-30 16-16 48-9 48 10 0 13-20 36-31 36-4 0-12-7-19-16z"/><path d="m5294 4095c-4-9-2-21 4-27 15-15 44-1 40 19-4 23-36 29-44 8z"/><path d="m5495 4100c4-6 11-8 16-5 14 9 11 15-7 15-8 0-12-5-9-10z"/><path d="m5672 4093c5-26 38-29 38-4 0 15-6 21-21 21-14 0-19-5-17-17z"/><path d="m4182 4088c-17-17-15-36 6-47 14-7 21-5 31 11 7 11 11 21 9 22s-10 7-19 14c-12 9-18 9-27 0z"/><path d="m4536 4087c-15-11-17-17-7-35 10-19 14-20 31-9 23 14 24 18 7 40-10 15-15 16-31 4z"/><path d="m3927 4076c-7-17 18-40 33-31 5 3 10 15 10 26 0 23-35 27-43 5z"/><path d="m4774 4079c-3-6 0-18 9-26 18-18 37-9 37 18 0 21-34 27-46 8z"/><path d="m2523 4069c-16-16-5-39 19-39 14 0 19 6 16 22-4 25-19 33-35 17z"/><path d="m3210 4070c0-5 5-10 10-10 6 0 10 5 10 10 0 6-4 10-10 10-5 0-10-4-10-10z"/><path d="m3750 4065c0-8 9-15 20-15s20 7 20 15-9 15-20 15-20-7-20-15z"/><path d="m4960 4065c0-8 9-15 20-15 13 0 18 5 14 15-4 8-12 15-20 15s-14-7-14-15z"/><path d="m5520 4069c0-5 5-7 10-4 6 3 10 8 10 11 0 2-4 4-10 4-5 0-10-5-10-11z"/><path d="m5767 4065c-49-17-107-64-107-87 0-22 121 32 150 67 21 25 0 35-43 20z"/><path d="m6191 4066c-16-19-6-36 20-36 15 0 20 6 17 22-4 27-21 33-37 14z"/><path d="m2930 4062c0-13 41-48 75-64 40-20 85-30 85-20 0 13-52 58-87 76-34 17-73 21-73 8z"/><path d="m3100 4049c0-24 23-21 28 4 2 10-3 17-12 17-10 0-16-9-16-21z"/><path d="m3549 4052c13-25 40-46 48-39 7 8-14 35-39 48-17 9-18 8-9-9z"/><path d="m4086 4053c-5-11-1-22 10-30 24-18 32-16 39 8 11 35-37 55-49 22z"/><path d="m4617 4063c-9-9-8-25 2-42 7-10 13-11 30-2 17 10 19 15 11 31-11 20-31 26-43 13z"/><path d="m5168 4040c-24-21-29-29-16-30 9 0 26 14 38 30 27 38 19 38-22 0z"/><path d="m5614 4059c-3-6 0-15 7-20 22-14 29-11 29 11 0 21-24 27-36 9z"/><path d="m2241 4044c30-36 169-83 169-57 0 28-94 73-152 73-27 0-29-2-17-16z"/><path d="m6393 4035c-53-24-71-55-34-55 43 0 150 51 151 73 0 16-68 6-117-18z"/><path d="m2451 4040c-16-9-6-30 15-30 15 0 20 25 6 34-4 2-14 1-21-4z"/><path d="m2799 4030c13-11 31-20 40-20 12 1 11 5-8 20-13 11-31 20-40 20-12-1-11-5 8-20z"/><path d="m3190 4039c0-5 5-7 10-4 6 3 10 8 10 11 0 2-4 4-10 4-5 0-10-5-10-11z"/><path d="m3261 4033c0-10 4-26 7-36 7-16 10-14 30 12 28 39 28 41-8 41-22 0-30-5-29-17z"/><path d="m3470 4041c0-15 60-71 76-71 20 0 3 32-32 59-29 23-44 27-44 12z"/><path d="m5240 4033c-27-18-49-43-50-55 0-16 21-7 51 20 38 34 37 61-1 35z"/><path d="m5447 4013 28-36 6 29c7 38 3 44-32 44h-30z"/><path d="m5540 4040c0-5 5-10 10-10 6 0 10 5 10 10 0 6-4 10-10 10-5 0-10-4-10-10z"/><path d="m5919 4029-24-20 25 7c14 3 32 12 40 20 25 24-14 18-41-7z"/><path d="m6266 4034c-9-23-8-24 14-24 11 0 20 6 20 14 0 20-27 28-34 10z"/><path d="m3844 4025c-8-19 12-36 33-28 19 7 12 37-10 41-9 2-20-4-23-13z"/><path d="m4005 4020c-8-25-7-25 21-34 17-5 23-2 27 16 7 26 8 24-20 32-16 5-23 2-28-14z"/><path d="m4701 4031c-8-5-11-16-6-30 5-17 12-20 28-15 28 8 27 6 20 32-6 23-19 27-42 13z"/><path d="m4860 4021c0-27 19-36 37-18s9 37-18 37c-12 0-19-7-19-19z"/><path d="m2655 4016c-17-12-18-18-7-40 13-29 29-33 56-13 14 10 15 18 7 40-12 30-28 34-56 13z"/><path d="m4366 4008c-5-16-5-36 0-45 7-16 8-15 11 5 3 12 3 32 0 45-3 21-4 20-11-5z"/><path d="m4446 4014c-9-25-7-64 4-64 6 0 10 18 10 40 0 43-4 50-14 24z"/><path d="m6033 4000c-11-29-10-32 13-41 37-14 44-12 55 18s5 39-31 48c-21 5-27 1-37-25z"/><path d="m3170 4010c0-5 5-10 10-10 6 0 10 5 10 10 0 6-4 10-10 10-5 0-10-4-10-10z"/><path d="m4280 4001c0-26 10-51 21-51 10 0 12 31 3 54-9 22-24 20-24-3z"/><path d="m5053 4013c-21-7-15-33 7-33 11 0 20 6 20 14 0 18-11 25-27 19z"/><path d="m5560 4010c0-5 5-10 10-10 6 0 10 5 10 10 0 6-4 10-10 10-5 0-10-4-10-10z"/><path d="m3330 3995c-15-18-5-35 21-35 12 0 19 7 19 19 0 24-25 34-40 16z"/><path d="m3670 3994c0-9 7-14 17-12 25 5 28 28 4 28-12 0-21-6-21-16z"/><path d="m4204 3978c9-43 26-60 26-26s-9 58-22 58c-6 0-8-13-4-32z"/><path d="m4528 3997c-5-10-8-31-8-45 1-24 2-25 11-9 6 10 9 30 7 45-2 23-4 24-10 9z"/><path d="m5380 3995c-15-18-5-35 21-35 12 0 19 7 19 19 0 24-25 34-40 16z"/><path d="m3925 3980c-8-25-7-25 21-34 17-5 23-2 27 16 7 26 8 24-20 32-16 5-23 2-28-14z"/><path d="m4781 3991c-8-5-11-16-6-30 5-17 12-20 28-15 28 8 27 6 20 32-6 23-19 27-42 13z"/><path d="m2916 3983c-11-11-6-23 9-23 8 0 15 4 15 9 0 13-16 22-24 14z"/><path d="m3150 3980c0-5 5-10 10-10 6 0 10 5 10 10 0 6-4 10-10 10-5 0-10-4-10-10z"/><path d="m3770 3980c-18-11-4-42 17-38 10 2 19 10 21 19 4 19-19 31-38 19z"/><path d="m4131 3963c-1-17 4-35 10-38 19-13 23 5 6 38l-16 32z"/><path d="m4602 3972c-7-13-12-33-10-45l3-22 13 23c7 13 12 33 10 45l-3 22z"/><path d="m4947 3983c-15-14-7-43 12-43 26 0 36 17 21 35-14 16-23 19-33 8z"/><path d="m5580 3980c0-5 5-10 10-10 6 0 10 5 10 10 0 6-4 10-10 10-5 0-10-4-10-10z"/><path d="m5815 3979c-10-15 3-25 16-12 7 7 7 13 1 17-6 3-14 1-17-5z"/><path d="m2478 3968c-8-21 2-38 24-38 14 0 19 6 16 22-3 25-33 36-40 16z"/><path d="m2768 3972c-22-4-24-40-4-48 8-3 21-2 30 3 20 11-2 50-26 45z"/><path d="m3460 3971c0-12 49-51 63-51 6 0 2 9-9 21-24 26-54 43-54 30z"/><path d="m5260 3963c-45-31-51-57-7-28 14 9 28 23 31 31 7 18 6 18-24-3z"/><path d="m5949 3958c-8-16-8-23 2-29 21-13 36-11 43 7 10 25 7 31-14 37-14 3-24-1-31-15z"/><path d="m6227 3967c-3-8-2-20 3-27 11-18 42-4 38 17-4 22-34 29-41 10z"/><path d="m2955 3960c-8-14 3-30 21-30 8 0 14 9 14 20 0 21-24 28-35 10z"/><path d="m5755 3960c-4-7-3-16 3-22 14-14 45-2 40 15-6 16-34 21-43 7z"/><path d="m3130 3950c0-5 5-10 10-10 6 0 10 5 10 10 0 6-4 10-10 10-5 0-10-4-10-10z"/><path d="m4050 3942c0-22 26-59 35-50 6 6-21 68-30 68-3 0-5-8-5-18z"/><path d="m4676 3938c-18-25-21-48-7-48 10 0 36 58 28 66-3 3-12-5-21-18z"/><path d="m5600 3950c0-5 5-10 10-10 6 0 10 5 10 10 0 6-4 10-10 10-5 0-10-4-10-10z"/><path d="m2202 3939c7-22 88-59 130-59 49 0 47 17-3 42-49 25-133 36-127 17z"/><path d="m2410 3935c-10-12-9-16 5-21 23-9 40 10 22 25-11 9-17 8-27-4z"/><path d="m3392 3938c6-18 67-58 87-58 11 0 4 12-21 35-37 34-74 47-66 23z"/><path d="m3850 3926c0-21 5-26 26-26s25 4 22 23c-2 14-11 23-25 25-19 3-23-1-23-22z"/><path d="m4857 3944c-4-4-7-16-7-26 0-13 7-18 26-18 21 0 25 4 22 22-3 23-27 35-41 22z"/><path d="m5308 3934c-31-16-56-54-37-54 18 0 76 39 83 55 7 19-11 19-46-1z"/><path d="m6305 3933c-6-17 13-36 27-27 13 8 9 31-6 37-8 3-17-1-21-10z"/><path d="m6460 3941c-40-13-90-41-90-51 0-32 166 13 178 48 4 14-47 15-88 3z"/><path d="m3027 3933c-14-13-6-33 13-33 22 0 23 1 14 24-7 17-16 20-27 9z"/><path d="m3203 3930c-14-6-21-15-18-25 16-51 16-51 35-15 29 53 27 57-17 40z"/><path d="m3592 3923c5-26 38-29 38-4 0 15-6 21-21 21-14 0-19-5-17-17z"/><path d="m5120 3920c0-11 7-20 15-20s15 9 15 20-7 20-15 20-15-9-15-20z"/><path d="m5521 3900c16-28 25-36 31-28 16 25 9 56-14 62-39 10-40 7-17-34z"/><path d="m5696 3933c-13-14-5-33 14-33 11 0 20 6 20 14 0 15-24 28-34 19z"/><path d="m2584 3916c11-9 29-16 40-16 28 0 8 17-29 25-29 6-29 6-11-9z"/><path d="m3115 3920c-3-5-1-10 4-10 6 0 11 5 11 10 0 6-2 10-4 10-3 0-8-4-11-10z"/><path d="m4360 3910c0-13 5-20 13-17 6 2 12 10 12 17s-6 15-12 18c-8 2-13-5-13-18z"/><path d="m5620 3920c0-5 5-10 11-10 5 0 7 5 4 10-3 6-8 10-11 10-2 0-4-4-4-10z"/><path d="m6125 3915c-29-13-29-13-5-14 14 0 34 6 44 14 26 19 2 19-39 0z"/><path d="m2850 3907c0-8 21-25 48-39 48-26 122-43 122-29s-34 39-80 60c-52 24-90 27-90 8z"/><path d="m3694 3905c-4-9-2-21 4-27 15-15 44-1 40 19-4 23-36 29-44 8z"/><path d="m3985 3891c17-34 35-48 35-29 0 18-28 58-41 58-5 0-3-13 6-29z"/><path d="m4290 3905c0-8 7-15 15-15s15 7 15 15-7 15-15 15-15-7-15-15z"/><path d="m4430 3905c0-8 7-15 15-15s15 7 15 15-7 15-15 15-15-7-15-15z"/><path d="m4742 3895c-7-14-12-31-12-38 1-17 40 32 40 49 0 23-16 16-28-11z"/><path d="m5014 3905c-4-9-2-21 4-27 15-15 44-1 40 19-4 23-36 29-44 8z"/><path d="m5804 3899c-41-20-81-55-73-63 2-3 25 0 51 5 49 11 108 45 116 67 6 19-48 15-94-9z"/><path d="m4220 3895c0-8 7-15 15-15s15 7 15 15-7 15-15 15-15-7-15-15z"/><path d="m4500 3895c0-8 7-15 15-15s15 7 15 15-7 15-15 15-15-7-15-15z"/><path d="m3095 3880c3-5 8-10 11-10 2 0 4 5 4 10 0 6-5 10-11 10-5 0-7-4-4-10z"/><path d="m3250 3871c0-22 21-33 40-21 18 11 4 40-20 40-13 0-20-7-20-19z"/><path d="m3780 3865c0-20 5-25 25-25s25 5 25 25-5 25-25 25-25-5-25-25z"/><path d="m4150 3875c0-8 7-15 15-15s15 7 15 15-7 15-15 15-15-7-15-15z"/><path d="m4567 3884c-9-10 2-24 19-24 8 0 14 7 14 15 0 15-21 21-33 9z"/><path d="m4920 3864c0-21 4-25 23-22 14 2 23 11 25 26 3 18-1 22-22 22s-26-5-26-26z"/><path d="m5450 3871c0-24 25-34 40-16s5 35-21 35c-12 0-19-7-19-19z"/><path d="m5635 3880c3-5 8-10 11-10 2 0 4 5 4 10 0 6-5 10-11 10-5 0-7-4-4-10z"/><path d="m2444 3865c-4-9-2-21 4-27 15-15 44-1 40 19-4 23-36 29-44 8z"/><path d="m2706 3870c6-6 26-15 45-20l34-9-24 19c-24 21-74 29-55 10z"/><path d="m3390 3874c0-3 10-14 23-25 23-19 52-26 42-9-8 13-65 43-65 34z"/><path d="m3910 3869c0-24 35-65 44-51 3 6-5 23-19 39-18 21-24 24-25 12z"/><path d="m4812 3855c-23-29-28-45-13-45 12 0 43 49 39 62-2 6-14-1-26-17z"/><path d="m5320 3858c-22-13-30-23-21-26 7-2 25 7 39 22 32 32 28 33-18 4z"/><path d="m5993 3868c-34-16-28-28 9-17 18 5 34 9 35 9 2 0 3 5 3 10 0 13-19 12-47-2z"/><path d="m6264 3865c-4-9-2-21 4-27 15-15 44-1 40 19-4 23-36 29-44 8z"/><path d="m4084 3859c-10-17 13-36 27-22 12 12 4 33-11 33-5 0-12-5-16-11z"/><path d="m4634 3859c-3-6-1-16 5-22 9-9 14-8 21 3 9 15 4 30-10 30-5 0-12-5-16-11z"/><path d="m3080 3850c0-5 5-10 10-10 6 0 10 5 10 10 0 6-4 10-10 10-5 0-10-4-10-10z"/><path d="m3533 3854c-16-7-5-34 13-34 8 0 14 9 14 20 0 20-5 23-27 14z"/><path d="m5187 3854c-14-15-6-34 14-34 14 0 19 5 17 17-3 18-20 27-31 17z"/><path d="m5650 3850c0-5 5-10 10-10 6 0 10 5 10 10 0 6-4 10-10 10-5 0-10-4-10-10z"/><path d="m2585 3836c-16-12-17-17-6-44 13-31 14-31 42-16 31 16 35 25 19 55-13 22-29 24-55 5z"/><path d="m3325 3840c-10-17 79-69 94-54 7 7-46 51-71 57-10 3-20 2-23-3z"/><path d="m3631 3836c-16-19-6-36 20-36 15 0 20 6 17 22-4 27-21 33-37 14z"/><path d="m4350 3834c-11-12-11-18 2-30 16-16 48-9 48 10 0 13-20 36-31 36-4 0-12-7-19-16z"/><path d="m5087 3844c-16-16-7-44 14-44 15 0 20 5 17 22-3 22-19 33-31 22z"/><path d="m5385 3836c-16-7-39-24-50-36l-20-23 29 7c38 9 76 35 76 52s3 17-35 0z"/><path d="m6105 3820c-15-29-15-30 14-45 28-14 31-14 45 7 22 31 20 43-9 56-34 16-32 16-50-18z"/><path d="m2172 3831c-10-6-8-12 10-23 54-35 164-53 156-25-9 29-137 66-166 48z"/><path d="m2374 3829c-8-14 11-33 25-25 6 4 11 14 11 22 0 16-26 19-36 3z"/><path d="m4025 3830c-7-12 2-30 16-30 12 0 12 27 0 35-5 3-12 1-16-5z"/><path d="m4259 3824c-11-14-10-18 6-30 13-10 22-11 32-3 18 15 16 36-3 43-21 8-20 8-35-10z"/><path d="m4442 3827c-7-8-6-17 3-30 11-16 16-16 33-6 16 10 18 17 11 31-11 21-32 23-47 5z"/><path d="m4694 3829c-10-17 13-36 27-22 12 12 4 33-11 33-5 0-12-5-16-11z"/><path d="m6337 3826c-7-18 24-31 34-14 4 6 5 16 3 20-8 13-31 9-37-6z"/><path d="m6515 3833c-53-11-105-36-105-50 0-23 89-11 141 19 34 19 37 24 22 29-20 8-29 9-58 2z"/><path d="m2840 3820c0-5 7-10 15-10s15 5 15 10c0 6-7 10-15 10s-15-4-15-10z"/><path d="m3065 3821c-3-5-1-12 5-16 5-3 10 1 10 9 0 18-6 21-15 7z"/><path d="m3720 3806c0-21 5-26 26-26s25 4 22 23c-2 14-11 23-25 25-19 3-23-1-23-22z"/><path d="m3840 3823c0-17 32-53 46-53 12 0 12 4 4 20-11 21-50 46-50 33z"/><path d="m4980 3805c0-20 5-25 25-25s25 5 25 25-5 25-25 25-25-5-25-25z"/><path d="m5670 3814c0-8 5-12 10-9 6 4 8 11 5 16-9 14-15 11-15-7z"/><path d="m5880 3820c0-5 5-10 10-10 6 0 10 5 10 10 0 6-4 10-10 10-5 0-10-4-10-10z"/><path d="m2890 3800c0-15 5-20 18-18 9 2 17 10 17 18s-8 16-17 18c-13 2-18-3-18-18z"/><path d="m3150 3808c-13-5-26-10-28-12-5-6 10-56 17-56 8 0 44 71 39 75-2 2-14-2-28-7z"/><path d="m4170 3800c-8-16-6-21 11-31 17-9 23-8 30 2 13 21 11 36-7 43-22 8-22 8-34-14z"/><path d="m4537 3809c-13-8-15-14-7-30 12-21 18-23 39-10 8 5 11 16 6 30-7 24-12 25-38 10z"/><path d="m4867 3802c-28-30-20-49 8-22 25 24 32 40 17 40-5 0-16-8-25-18z"/><path d="m5570 3815c0-3 7-23 17-46 16-42 23-40 37 7 5 18 1 24-24 32-16 6-30 9-30 7z"/><path d="m5827 3813c-14-13-6-33 13-33 13 0 20 7 20 20 0 19-20 27-33 13z"/><path d="m2696 3797c-18-13-13-47 8-47 27 1 38 17 27 39-14 25-12 24-35 8z"/><path d="m6015 3790c-12-38 20-55 46-24 11 14 10 18-6 30-25 19-32 18-40-6z"/><path d="m3965 3790c-7-12 2-30 16-30 5 0 9 9 9 20 0 21-15 27-25 10z"/><path d="m4754 3789c-10-17 13-36 27-22 12 12 4 33-11 33-5 0-12-5-16-11z"/><path d="m2956 3782c-8-13 11-35 23-28 16 10 14 36-3 36-8 0-17-4-20-8z"/><path d="m3050 3779c0-5 5-7 10-4 6 3 10 8 10 11 0 2-4 4-10 4-5 0-10-5-10-11z"/><path d="m5680 3780c0-5 5-10 10-10 6 0 10 5 10 10 0 6-4 10-10 10-5 0-10-4-10-10z"/><path d="m5757 3776c-3-8 0-17 8-20 15-5 39 17 28 27-11 12-31 8-36-7z"/><path d="m2414 3765c-4-9-2-21 4-27 15-15 44-1 40 19-4 23-36 29-44 8z"/><path d="m3200 3770c-18-11-4-42 17-38 10 2 19 10 21 19 4 19-19 31-38 19z"/><path d="m4086 3764c-8-21 1-34 24-34 19 0 34 25 24 41-9 15-41 10-48-7z"/><path d="m4616 3771c-10-15 5-41 23-41 24 0 30 8 24 31-5 19-37 26-47 10z"/><path d="m5517 3773c-15-14-7-43 12-43 26 0 36 17 21 35-14 16-23 19-33 8z"/><path d="m6294 3765c-4-9-2-21 4-27 15-15 44-1 40 19-4 23-36 29-44 8z"/><path d="m3349 3751c27-25 66-31 41-7-8 8-26 17-40 20l-25 7z"/><path d="m3473 3762c-17-11 1-36 21-29 9 4 13 13 10 22-7 17-13 18-31 7z"/><path d="m3577 3763c-15-14-7-43 12-43 23 0 34 23 18 39-13 13-21 14-30 4z"/><path d="m3790 3750c6-11 19-24 30-30 30-16 26 14-5 34-32 21-38 20-25-4z"/><path d="m4923 3746c-29-25-29-41 0-30 19 7 52 54 38 54-6 0-23-11-38-24z"/><path d="m5134 3755c-4-9-2-21 4-27 15-15 44-1 40 19-4 23-36 29-44 8z"/><path d="m5247 3764c-14-15-6-34 14-34 14 0 19 5 17 17-3 18-20 27-31 17z"/><path d="m5384 3760c-12-5-25-13-29-19-10-18 18-12 45 9 26 21 20 25-16 10z"/><path d="m2792 3744c4-25 90-56 142-52l41 3-46 27c-25 16-67 31-93 34-43 6-48 5-44-12z"/><path d="m3035 3750c-3-5-1-10 4-10 6 0 11 5 11 10 0 6-2 10-4 10-3 0-8-4-11-10z"/><path d="m3660 3735c0-20 5-25 25-25s25 5 25 25-5 25-25 25-25-5-25-25z"/><path d="m5037 3741c-6-23 0-31 24-31 18 0 33 26 23 41-10 16-42 9-47-10z"/><path d="m5695 3750c-3-5 1-10 10-10s13 5 10 10c-3 6-8 10-10 10s-7-4-10-10z"/><path d="m5868 3746c-21-8-50-22-65-32l-28-19 42-3c48-4 143 32 143 54 0 18-43 18-92 0z"/><path d="m3910 3735c0-8 7-15 15-15s15 7 15 15-7 15-15 15-15-7-15-15z"/><path d="m4810 3735c0-8 7-15 15-15s15 7 15 15-7 15-15 15-15-7-15-15z"/><path d="m2351 3731c-8-5-10-14-7-20 9-13 33-15 40-2 9 14-18 31-33 22z"/><path d="m2525 3725c35-16 55-19 55-6 0 10-36 21-65 20-16 0-13-4 10-14z"/><path d="m4325 3730c-3-5 1-10 10-10s13 5 10 10c-3 6-8 10-10 10s-7-4-10-10z"/><path d="m4360 3730c0-5 5-10 10-10 6 0 10 5 10 10 0 6-4 10-10 10-5 0-10-4-10-10z"/><path d="m4400 3730c0-5 5-10 10-10 6 0 10 5 10 10 0 6-4 10-10 10-5 0-10-4-10-10z"/><path d="m6181 3729c-13-5-21-12-18-15 8-8 65 5 72 17 8 12-23 11-54-2z"/><path d="m6366 3725c-3-9 1-18 10-22 19-7 28 2 21 22-8 19-23 19-31 0z"/><path d="m3270 3722c0-15 53-42 82-42 22 0 22 0 3 20-23 23-85 39-85 22z"/><path d="m4006 3714c-8-21 1-34 24-34 16 0 30 18 30 41 0 16-48 10-54-7z"/><path d="m4250 3720c0-5 5-10 11-10 5 0 7 5 4 10-3 6-8 10-11 10-2 0-4-4-4-10z"/><path d="m4290 3719c0-5 5-7 10-4 6 3 10 8 10 11 0 2-4 4-10 4-5 0-10-5-10-11z"/><path d="m4445 3720c3-5 8-10 11-10 2 0 4 5 4 10 0 6-5 10-11 10-5 0-7-4-4-10z"/><path d="m4480 3720c0-5 5-10 10-10 6 0 10 5 10 10 0 6-4 10-10 10-5 0-10-4-10-10z"/><path d="m4692 3708c2-15 11-24 26-26 18-3 22 1 22 22s-5 26-26 26-25-4-22-22z"/><path d="m5400 3707c-32-20-33-22-13-25 25-4 93 25 93 39 0 17-45 9-80-14z"/><path d="m2130 3713c0-17 81-47 129-48 99 0 41 46-66 53-37 3-63 0-63-5z"/><path d="m3020 3710c0-5 5-10 10-10 6 0 10 5 10 10 0 6-4 10-10 10-5 0-10-4-10-10z"/><path d="m4215 3710c-3-5-1-10 4-10 6 0 11 5 11 10 0 6-2 10-4 10-3 0-8-4-11-10z"/><path d="m4520 3710c0-5 5-10 11-10 5 0 7 5 4 10-3 6-8 10-11 10-2 0-4-4-4-10z"/><path d="m5710 3710c0-5 5-10 10-10 6 0 10 5 10 10 0 6-4 10-10 10-5 0-10-4-10-10z"/><path d="m6484 3709c-42-12-63-36-40-45 39-15 166 21 166 46 0 12-84 11-126-1z"/><path d="m2654 3691c3-5 20-11 37-13 29-5 30-4 14 9-21 14-59 18-51 4z"/><path d="m3753 3675c29-26 47-32 47-16 0 11-45 41-62 41-7 0 0-12 15-25z"/><path d="m3860 3685c0-8 7-15 15-15s15 7 15 15-7 15-15 15-15-7-15-15z"/><path d="m4175 3690c4-6 11-8 16-5 14 9 11 15-7 15-8 0-12-5-9-10z"/><path d="m4550 3690c0-5 5-10 10-10 6 0 10 5 10 10 0 6-4 10-10 10-5 0-10-4-10-10z"/><path d="m4860 3685c0-8 7-15 15-15s15 7 15 15-7 15-15 15-15-7-15-15z"/><path d="m4969 3681c-13-11-21-23-17-26 9-9 58 21 58 35 0 15-15 12-41-9z"/><path d="m6034 3685c-18-14-16-14 16-9 44 8 63 24 29 24-14 0-34-7-45-15z"/><path d="m3010 3680c0-5 5-10 11-10 5 0 7 5 4 10-3 6-8 10-11 10-2 0-4-4-4-10z"/><path d="m3093 3677c-26-12-28-22-9-56l13-24 13 37c15 46 11 56-17 43z"/><path d="m3628 3683c-19-5-23-20-10-40 11-17 55-4 48 14-3 8-6 19-6 24 0 9-4 10-32 2z"/><path d="m4140 3680c0-5 5-10 11-10 5 0 7 5 4 10-3 6-8 10-11 10-2 0-4-4-4-10z"/><path d="m4590 3680c0-5 5-10 11-10 5 0 7 5 4 10-3 6-8 10-11 10-2 0-4-4-4-10z"/><path d="m5085 3669c-5-14-2-25 6-30 23-14 36-10 42 13 7 26 8 24-20 32-16 5-23 2-28-15z"/><path d="m5632 3650c6-22 14-40 19-40 9 0 29 33 29 48 0 7-42 32-54 32-2 0 1-18 6-40z"/><path d="m5720 3680c0-5 5-10 10-10 6 0 10 5 10 10 0 6-4 10-10 10-5 0-10-4-10-10z"/><path d="m2393 3669c-16-16-5-39 19-39 14 0 19 6 16 22-4 25-19 33-35 17z"/><path d="m3520 3661c0-27 19-36 37-18s9 37-18 37c-12 0-19-7-19-19z"/><path d="m5183 3664c-7-18 14-35 34-27 7 3 13 14 13 24 0 24-38 26-47 3z"/><path d="m6321 3666c-16-19-6-36 20-36 15 0 20 6 17 22-4 27-21 33-37 14z"/><path d="m2540 3651c-21-17-23-22-12-45 14-30 31-33 61-8l21 17-22 27c-23 28-23 28-48 9z"/><path d="m2792 3661c2-7 7-12 11-12 12 1 9 15-3 20-7 2-11-2-8-8z"/><path d="m3420 3656c0-8 4-17 8-20 13-8 35 11 28 23-10 16-36 14-36-3z"/><path d="m3937 3649c-3-12 0-22 9-26 22-8 44 5 44 27 0 28-46 28-53-1z"/><path d="m4105 3660c-3-5 1-10 10-10s13 5 10 10c-3 6-8 10-10 10s-7-4-10-10z"/><path d="m4366 3653c-3-10-2-31 3-48 9-28 9-27 10 18 1 49-4 60-13 30z"/><path d="m4620 3660c0-5 5-10 10-10 6 0 10 5 10 10 0 6-4 10-10 10-5 0-10-4-10-10z"/><path d="m4760 3645c0-20 5-25 25-25s25 5 25 25-5 25-25 25-25-5-25-25z"/><path d="m5292 3653c2-10 10-18 18-18s16 8 18 18c2 12-3 17-18 17s-20-5-18-17z"/><path d="m5932 3659c2-6 8-10 13-10s11 4 13 10-4 11-13 11-15-5-13-11z"/><path d="m6157 3640c-17-28-17-29 5-44 29-20 38-20 54 2 20 25 17 36-14 54-28 17-29 16-45-12z"/><path d="m2837 3653c-3-5-2-15 3-22 10-17 43-6 38 12-6 15-34 22-41 10z"/><path d="m3280 3655c0-5 55-35 65-35 18 0 0 20-26 29-36 12-39 13-39 6z"/><path d="m4301 3638c0-13 4-32 9-43 7-16 9-13 9 17 1 20-3 40-9 43s-10-4-9-17z"/><path d="m4425 3624c-8-44 1-56 15-20 12 33 13 56 1 56-5 0-12-16-16-36z"/><path d="m5431 3651c-22-6-43-31-26-31 10 0 65 30 65 35 0 6-7 5-39-4z"/><path d="m5872 3643c5-26 38-29 38-4 0 15-6 21-21 21-14 0-19-5-17-17z"/><path d="m2912 3637c-13-15 1-42 17-33 13 9 15 33 2 40-5 3-13 0-19-7z"/><path d="m3000 3640c0-5 5-10 10-10 6 0 10 5 10 10 0 6-4 10-10 10-5 0-10-4-10-10z"/><path d="m3144 3635c-4-9-2-21 4-27 15-15 44-1 40 19-4 23-36 29-44 8z"/><path d="m3815 3640c-11-17 5-32 21-19 7 6 11 15 8 20-7 12-21 11-29-1z"/><path d="m4075 3641c-3-5-1-12 5-16 5-3 10 1 10 9 0 18-6 21-15 7z"/><path d="m4655 3641c-3-5-1-12 5-16 5-3 10 1 10 9 0 18-6 21-15 7z"/><path d="m4905 3640c-11-17 5-32 21-19 7 6 11 15 8 20-7 12-21 11-29-1z"/><path d="m5562 3628c2-13 10-23 18-23s16 10 18 23c3 17-2 22-18 22s-21-5-18-22z"/><path d="m5730 3640c0-5 5-10 10-10 6 0 10 5 10 10 0 6-4 10-10 10-5 0-10-4-10-10z"/><path d="m4240 3624c0-11 7-29 16-40 15-18 15-18 9 11-8 37-25 57-25 29z"/><path d="m4486 3618c-10-40-6-54 9-28 8 14 14 31 15 38 0 21-17 13-24-10z"/><path d="m5804 3629c-7-12 15-31 28-23 4 3 8 12 8 20 0 17-26 19-36 3z"/><path d="m2324 3619c-10-17 13-36 27-22 12 12 4 33-11 33-5 0-12-5-16-11z"/><path d="m2647 3619c-13-8-15-14-7-30 12-21 18-23 39-10 8 5 11 16 6 30-7 24-12 25-38 10z"/><path d="m3709 3610c13-11 31-20 40-20 12 1 11 5-8 20-13 11-31 20-40 20-12-1-11-5 8-20z"/><path d="m5009 3610c-19-15-20-19-8-20 9 0 27 9 40 20 19 15 20 19 8 20-9 0-27-9-40-20z"/><path d="m6063 3610c-11-17-10-21 9-31 18-10 24-8 35 7 12 16 11 21-4 31-22 17-26 16-40-7z"/><path d="m6387 3616c-7-18 24-31 34-14 4 6 5 16 3 20-8 13-31 9-37-6z"/><path d="m3220 3610c0-15 66-42 94-38 20 3 20 4-4 20-33 21-90 33-90 18z"/><path d="m4040 3610c0-5 5-10 10-10 6 0 10 5 10 10 0 6-4 10-10 10-5 0-10-4-10-10z"/><path d="m4180 3603c0-17 39-76 40-60 0 13-28 77-34 77-4 0-6-8-6-17z"/><path d="m4547 3593c-24-45-21-64 4-26 11 18 19 38 16 45-2 7-11-1-20-19z"/><path d="m4685 3610c3-5 8-10 11-10 2 0 4 5 4 10 0 6-5 10-11 10-5 0-7-4-4-10z"/><path d="m5450 3598c-42-20-43-22-19-25 33-5 103 23 94 37-9 15-25 12-75-12z"/><path d="m2131 3602c-19-6-21-9-10-19 37-30 174-44 174-18 0 25-116 51-164 37z"/><path d="m2990 3599c0-5 5-7 10-4 6 3 10 8 10 11 0 2-4 4-10 4-5 0-10-5-10-11z"/><path d="m3581 3601c-8-5-11-16-6-30 5-17 12-20 28-15 28 8 27 6 20 32-6 23-19 27-42 13z"/><path d="m3892 3602c-18-3-22-8-16-25 9-29 9-30 33-22 37 11 22 53-17 47z"/><path d="m4826 3602c-12-11-5-40 10-46 27-10 34-7 34 18 0 22-31 42-44 28z"/><path d="m5125 3589c-8-24-7-24 21-33 17-5 23-2 27 16 10 37-37 54-48 17z"/><path d="m5745 3600c3-5 8-10 11-10 2 0 4 5 4 10 0 6-5 10-11 10-5 0-7-4-4-10z"/><path d="m6516 3599c-44-10-69-27-60-40 10-17 98-9 144 13 43 20 44 21 20 28-33 10-56 10-104-1z"/><path d="m4015 3591c-3-5-1-12 5-16 5-3 10 1 10 9 0 18-6 21-15 7z"/><path d="m2740 3579c0-26 128-57 170-41 25 10 24 10-20 31-48 22-150 29-150 10z"/><path d="m3480 3570c0-16 5-21 23-18 12 2 22 10 22 18s-10 16-22 18c-18 3-23-2-23-18z"/><path d="m3777 3584c-13-13-7-24 14-24 11 0 19 5 17 12-5 14-22 21-31 12z"/><path d="m4715 3580c3-5 8-10 11-10 2 0 4 5 4 10 0 6-5 10-11 10-5 0-7-4-4-10z"/><path d="m4942 3574c4-21 22-23 26-1 2 10-3 17-13 17s-15-6-13-16z"/><path d="m5224 3579c-3-6 0-17 7-25 18-17 44-2 36 20-7 18-33 21-43 5z"/><path d="m5860 3569c-44-20-44-21-20-31 42-16 180 18 165 42-11 17-98 11-145-11z"/><path d="m2980 3570c0-5 5-10 10-10 6 0 10 5 10 10 0 6-4 10-10 10-5 0-10-4-10-10z"/><path d="m4120 3572c0-5 12-19 26-33l27-24-17 33c-15 29-36 43-36 24z"/><path d="m4596 3558c-9-12-16-26-16-31 0-13 29 12 41 35 14 26-6 23-25-4z"/><path d="m5750 3570c0-5 5-10 10-10 6 0 10 5 10 10 0 6-4 10-10 10-5 0-10-4-10-10z"/><path d="m2372 3548c2-13 10-23 18-23s16 10 18 23c3 17-2 22-18 22s-21-5-18-22z"/><path d="m3382 3553c2-10 10-18 18-18 22 0 18 29-3 33-14 3-18-1-15-15z"/><path d="m3990 3560c0-5 5-10 11-10 5 0 7 5 4 10-3 6-8 10-11 10-2 0-4-4-4-10z"/><path d="m4740 3560c0-5 5-10 11-10 5 0 7 5 4 10-3 6-8 10-11 10-2 0-4-4-4-10z"/><path d="m5332 3553c2-10 10-18 18-18 22 0 18 29-3 33-14 3-18-1-15-15z"/><path d="m6335 3560c-9-15 14-40 31-33 22 8 18 43-5 43-11 0-23-5-26-10z"/><path d="m3655 3549c9-13 56-31 63-24 8 8-30 34-51 35-10 0-15-5-12-11z"/><path d="m5044 3546c-29-21-10-30 25-11 17 8 31 18 31 20 0 11-37 4-56-9z"/><path d="m3046 3535c-18-14-18-15 0-42l18-28 7 25c16 58 9 71-25 45z"/><path d="m5670 3514c11-47 14-49 34-20 15 24 15 26-6 41-33 22-37 19-28-21z"/><path d="m2475 3530c28-12 67-12 60 0-3 6-23 10-43 9-30 0-33-2-17-9z"/><path d="m2970 3530c0-5 5-10 10-10 6 0 10 5 10 10 0 6-4 10-10 10-5 0-10-4-10-10z"/><path d="m3265 3525c42-19 66-19 41 0-11 8-31 15-45 14-26-1-26-1 4-14z"/><path d="m3965 3531c-3-5-1-12 5-16 5-3 10 1 10 9 0 18-6 21-15 7z"/><path d="m4070 3532c0-9 25-33 49-47 10-6 12-4 6 6-22 38-55 63-55 41z"/><path d="m4335 3530c-4-6-3-16 3-22s12-6 17 2c4 6 3 16-3 22s-12 6-17-2z"/><path d="m4395 3530c-4-6-3-16 3-22s12-6 17 2c4 6 3 16-3 22s-12 6-17-2z"/><path d="m4640 3515c-13-14-21-27-18-30 7-7 58 34 58 46 0 16-16 10-40-16z"/><path d="m4765 3531c-3-5-1-12 5-16 5-3 10 1 10 9 0 18-6 21-15 7z"/><path d="m5448 3533c-18-5-25-23-9-23 5 0 24 7 42 15 30 13 31 14 9 13-14 0-33-2-42-5z"/><path d="m5760 3530c0-5 5-10 10-10 6 0 10 5 10 10 0 6-4 10-10 10-5 0-10-4-10-10z"/><path d="m6205 3530c-8-12 42-12 70 0 16 7 11 9-22 9-23 1-45-3-48-9z"/><path d="m2311 3516c-9-10-8-16 3-25 10-9 16-8 25 3 9 10 8 16-3 25-10 9-16 8-25-3z"/><path d="m3547 3519c-13-8-15-14-7-30 11-20 27-24 48-10 12 7 12 12 1 30-16 24-17 24-42 10z"/><path d="m3745 3520c-7-12 2-30 16-30 5 0 9 9 9 20 0 21-15 27-25 10z"/><path d="m3842 3521c-15-9-13-42 3-48 20-6 37 14 30 36-7 23-13 25-33 12z"/><path d="m4870 3509c-14-24-12-28 20-31 28-3 41 29 18 43-20 13-26 11-38-12z"/><path d="m4974 3519c-10-17 13-36 27-22 12 12 4 33-11 33-5 0-12-5-16-11z"/><path d="m5159 3509c-9-17-8-23 2-30 21-13 36-11 43 7 8 22 8 22-14 34-16 8-21 6-31-11z"/><path d="m6412 3518c-16-16-15-25 2-31 21-8 40 17 23 31-10 9-17 8-25 0z"/><path d="m2615 3510c3-5 21-10 38-10 24 0 28 3 17 10-20 13-63 13-55 0z"/><path d="m3110 3501c0-24 25-34 40-16s5 35-21 35c-12 0-19-7-19-19z"/><path d="m4272 3508c6-18 28-21 28-4 0 9-7 16-16 16s-14-5-12-12z"/><path d="m4450 3505c0-9 5-15 11-13s11 8 11 13-5 11-11 13-11-4-11-13z"/><path d="m5594 3505c-8-19 12-36 33-28 19 7 12 37-10 41-9 2-20-4-23-13z"/><path d="m6075 3510c-16-7-13-9 17-9 20-1 40 4 43 9 7 12-32 12-60 0z"/><path d="m5770 3494c0-8 5-12 10-9 6 4 8 11 5 16-9 14-15 11-15-7z"/><path d="m2755 3490c-3-5 1-10 9-10 9 0 16 5 16 10 0 6-4 10-9 10-6 0-13-4-16-10z"/><path d="m2802 3483c5-26 38-29 38-4 0 15-6 21-21 21-14 0-19-5-17-17z"/><path d="m3195 3489c-9-13 31-29 71-29 28 0 35 3 27 11-15 15-92 29-98 18z"/><path d="m3450 3481c0-27 19-36 37-18s9 37-18 37c-12 0-19-7-19-19z"/><path d="m3940 3490c0-5 5-10 10-10 6 0 10 5 10 10 0 6-4 10-10 10-5 0-10-4-10-10z"/><path d="m4216 3485c-4-12-1-16 11-13 18 3 21 20 5 26-5 1-12-4-16-13z"/><path d="m4500 3485c0-8 7-15 15-15s15 7 15 15-7 15-15 15-15-7-15-15z"/><path d="m4785 3490c4-6 11-8 16-5 14 9 11 15-7 15-8 0-12-5-9-10z"/><path d="m5254 3485c-4-9-2-21 4-27 15-15 44-1 40 19-4 23-36 29-44 8z"/><path d="m5507 3490c-21-4-43-12-50-19-16-16 64-15 88 2 24 18 9 25-38 17z"/><path d="m5907 3493c-3-5-2-15 3-22 10-17 43-6 38 12-6 15-34 22-41 10z"/><path d="m5970 3490c0-5 5-10 10-10 6 0 10 5 10 10 0 6-4 10-10 10-5 0-10-4-10-10z"/><path d="m2105 3480c-18-7-18-9 10-21 38-16 157-18 162-3 9 27-122 45-172 24z"/><path d="m2874 3479c-10-17 13-36 27-22 12 12 4 33-11 33-5 0-12-5-16-11z"/><path d="m4043 3465c37-33 57-32 27 0-13 14-31 25-39 25-11-1-8-8 12-25z"/><path d="m4681 3469c-13-11-21-22-18-25 7-7 57 25 57 37 0 14-13 10-39-12z"/><path d="m5836 3475c-7-20 23-33 34-14 5 7 6 17 4 21-9 13-32 9-38-7z"/><path d="m6498 3478c-49-18-35-38 27-38 66 0 138 26 115 40-19 12-107 11-142-2z"/><path d="m2508 3457-27-22 22-28 22-27 27 22 27 23-22 27-22 26z"/><path d="m3647 3463c18-9 36-13 40-9 11 10-18 26-47 25-24 0-23-1 7-16z"/><path d="m5060 3465c-10-12-9-15 6-15 11 1 30 7 44 15l25 14-31 1c-17 0-37-7-44-15z"/><path d="m6191 3454-21-27 22-24c27-29 32-29 53 3 17 26 16 27-8 51l-24 25z"/><path d="m2354 3455c-4-9-2-21 4-27 15-15 44-1 40 19-4 23-36 29-44 8z"/><path d="m2955 3460c-3-5 1-10 10-10s13 5 10 10c-3 6-8 10-10 10s-7-4-10-10z"/><path d="m3354 3459c-10-17 13-36 27-22 12 12 4 33-11 33-5 0-12-5-16-11z"/><path d="m3920 3460c0-5 5-10 10-10 6 0 10 5 10 10 0 6-4 10-10 10-5 0-10-4-10-10z"/><path d="m4800 3460c0-5 5-10 10-10 6 0 10 5 10 10 0 6-4 10-10 10-5 0-10-4-10-10z"/><path d="m5356 3455c-7-20 21-32 37-16 9 9 8 14-3 21-21 13-27 12-34-5z"/><path d="m5770 3460c0-5 5-10 10-10 6 0 10 5 10 10 0 6-4 10-10 10-5 0-10-4-10-10z"/><path d="m6353 3454c-9-23 13-40 32-24 12 10 13 16 4 26-15 18-28 18-36-2z"/><path d="m3717 3454c-9-10 2-24 19-24 8 0 14 7 14 15 0 15-21 21-33 9z"/><path d="m4170 3444c0-9 5-14 12-12 18 6 21 28 4 28-9 0-16-7-16-16z"/><path d="m4340 3450c0-5 5-10 10-10 6 0 10 5 10 10 0 6-4 10-10 10-5 0-10-4-10-10z"/><path d="m4390 3450c0-5 5-10 10-10 6 0 10 5 10 10 0 6-4 10-10 10-5 0-10-4-10-10z"/><path d="m4550 3445c0-8 7-15 15-15s15 7 15 15-7 15-15 15-15-7-15-15z"/><path d="m5000 3445c0-8 7-15 15-15s15 7 15 15-7 15-15 15-15-7-15-15z"/><path d="m2615 3436c-16-12-17-16-6-30 16-19 22-20 45-3 16 12 16 14-2 30-16 15-21 15-37 3z"/><path d="m3806 3437c-18-13-13-47 8-47 27 1 38 17 27 39-14 25-12 24-35 8z"/><path d="m4300 3440c0-5 5-10 10-10 6 0 10 5 10 10 0 6-4 10-10 10-5 0-10-4-10-10z"/><path d="m4430 3440c0-5 5-10 10-10 6 0 10 5 10 10 0 6-4 10-10 10-5 0-10-4-10-10z"/><path d="m4909 3428c-10-18-8-24 7-35 16-12 21-11 31 4 17 22 16 26-7 40-17 11-21 10-31-9z"/><path d="m6091 3432c-7-13-6-23 1-30 28-28 63 3 38 33-16 20-27 19-39-3z"/><path d="m3521 3427c-8-10-7-19 4-33 13-18 15-18 31-2 18 18 13 48-9 48-8 0-20-6-26-13z"/><path d="m5180 3420c-8-16-6-21 11-31 17-9 23-8 30 2 13 21 11 36-7 43-22 8-22 8-34-14z"/><path d="m2725 3417c-22-17-14-23 49-37 48-10 126-4 126 11 0 10-95 39-130 39-14 0-34-6-45-13z"/><path d="m2950 3420c0-5 5-10 10-10 6 0 10 5 10 10 0 6-4 10-10 10-5 0-10-4-10-10z"/><path d="m3910 3419c0-5 5-7 10-4 6 3 10 8 10 11 0 2-4 4-10 4-5 0-10-5-10-11z"/><path d="m3994 3421c3-5 21-14 38-20l33-11-24 20c-23 20-57 28-47 11z"/><path d="m4260 3419c0-5 5-7 10-4 6 3 10 8 10 11 0 2-4 4-10 4-5 0-10-5-10-11z"/><path d="m4470 3420c0-5 5-10 10-10 6 0 10 5 10 10 0 6-4 10-10 10-5 0-10-4-10-10z"/><path d="m4700 3410c-14-11-21-20-17-20 13 0 77 28 77 34 0 13-37 4-60-14z"/><path d="m4820 3420c0-5 5-10 10-10 6 0 10 5 10 10 0 6-4 10-10 10-5 0-10-4-10-10z"/><path d="m5780 3420c0-5 5-10 10-10 6 0 10 5 10 10 0 6-4 10-10 10-5 0-10-4-10-10z"/><path d="m5895 3415c-22-8-41-15-42-15-2 0-3-4-3-9 0-27 146-19 174 9 29 29-60 40-129 15z"/><path d="m2294 3409c-9-16 12-33 31-25 14 5 15 9 5 21-15 18-26 19-36 4z"/><path d="m3030 3402c-24-19-24-19-5-48l19-29 8 39c11 53 7 61-22 38z"/><path d="m3230 3410c20-13 60-13 60 0 0 6-17 10-37 10-28 0-34-3-23-10z"/><path d="m4130 3406c0-9 7-16 16-16s14 5 12 12c-6 18-28 21-28 4z"/><path d="m4590 3405c0-8 7-15 15-15s15 7 15 15-7 15-15 15-15-7-15-15z"/><path d="m5455 3410c-7-12 32-12 60 0 16 7 13 9-17 9-20 1-40-3-43-9z"/><path d="m5690 3389c0-53 14-67 35-35 10 15 16 28 14 29s-14 11-26 21l-23 19z"/><path d="m6417 3406c-8-21 16-39 31-24 8 8 9 15 1 25-15 17-25 17-32-1z"/><path d="m3437 3403c-15-14-7-43 12-43 26 0 36 17 21 35-14 16-23 19-33 8z"/><path d="m3606 3401c-7-11 17-21 52-21 20 1 23 3 12 9-28 16-58 22-64 12z"/><path d="m4510 3400c0-5 5-10 11-10 5 0 7 5 4 10-3 6-8 10-11 10-2 0-4-4-4-10z"/><path d="m5105 3402c-35-7-41-22-9-22 35 0 63 15 42 22-7 2-22 2-33 0z"/><path d="m5280 3395c-15-18-5-35 21-35 12 0 19 7 19 19 0 24-25 34-40 16z"/><path d="m2950 3384c0-8 5-12 10-9 6 4 8 11 5 16-9 14-15 11-15-7z"/><path d="m3895 3390c-3-5-1-10 4-10 6 0 11 5 11 10 0 6-2 10-4 10-3 0-8-4-11-10z"/><path d="m4365 3379c-4-12-2-26 4-32 8-8 11-2 11 21 0 37-6 41-15 11z"/><path d="m4835 3390c-3-5-1-10 4-10 6 0 11 5 11 10 0 6-2 10-4 10-3 0-8-4-11-10z"/><path d="m5785 3391c-3-5-1-12 5-16 5-3 10 1 10 9 0 18-6 21-15 7z"/><path d="m3090 3371c0-27 19-36 37-18s9 37-18 37c-12 0-19-7-19-19z"/><path d="m3700 3375c0-8 7-15 15-15s15 7 15 15-7 15-15 15-15-7-15-15z"/><path d="m4320 3378c0-24 11-48 22-48 5 0 6 10 3 23-10 30-25 46-25 25z"/><path d="m4406 3368c-3-13-6-27-6-33 1-15 30 27 30 42 0 22-17 15-24-9z"/><path d="m5020 3375c0-8 7-15 15-15s15 7 15 15-7 15-15 15-15-7-15-15z"/><path d="m5614 3375c-4-9-2-21 4-27 15-15 44-1 40 19-4 23-36 29-44 8z"/><path d="m2092 3361c-21-13 40-34 103-35 59 0 92 17 65 34-19 12-150 13-168 1z"/><path d="m2350 3355c-15-18-5-35 21-35 12 0 19 7 19 19 0 24-25 34-40 16z"/><path d="m3170 3361c0-13 27-21 71-21 40 0 52 13 23 24-24 9-94 7-94-3z"/><path d="m3985 3355c42-19 66-19 41 0-11 8-31 15-45 14-26-1-26-1 4-14z"/><path d="m4106 3363c-11-11-6-23 9-23 8 0 15 4 15 9 0 13-16 22-24 14z"/><path d="m4190 3360c0-5 5-10 10-10 6 0 10 5 10 10 0 6-4 10-10 10-5 0-10-4-10-10z"/><path d="m4280 3359c0-17 27-45 35-37 3 3-3 16-14 29-16 19-20 20-21 8z"/><path d="m4447 3352c-26-28-22-52 4-25 12 11 20 26 17 33-2 7-9 5-21-8z"/><path d="m4540 3360c0-5 5-10 10-10 6 0 10 5 10 10 0 6-4 10-10 10-5 0-10-4-10-10z"/><path d="m4620 3356c0-9 7-16 16-16s14 5 12 12c-6 18-28 21-28 4z"/><path d="m4720 3354-25-15 35 6c39 6 66 25 35 25-11-1-31-8-45-16z"/><path d="m5483 3363c-25-9-13-23 20-23 41 0 77 10 77 21 0 9-76 11-97 2z"/><path d="m6360 3355c-15-18-5-35 21-35 12 0 19 7 19 19 0 24-25 34-40 16z"/><path d="m6485 3357c-26-20-4-30 64-30 62 1 116 17 106 33-9 15-148 12-170-3z"/><path d="m2945 3350c-3-5-1-10 4-10 6 0 11 5 11 10 0 6-2 10-4 10-3 0-8-4-11-10z"/><path d="m3336 3352c-2-4-1-14 4-22 7-11 11-11 24-1 9 7 13 17 10 22-7 11-31 12-38 1z"/><path d="m3518 3349c-35-19-11-67 24-48 21 11 22 19 6 42-10 12-17 14-30 6z"/><path d="m3781 3346c-10-11-10-20-1-36 11-21 13-21 30-5 15 14 17 22 9 36-12 23-22 24-38 5z"/><path d="m3880 3350c0-5 5-10 10-10 6 0 10 5 10 10 0 6-4 10-10 10-5 0-10-4-10-10z"/><path d="m4840 3350c0-5 5-10 10-10 6 0 10 5 10 10 0 6-4 10-10 10-5 0-10-4-10-10z"/><path d="m4930 3339c-10-17-8-23 7-34 15-12 20-12 31 2 17 23 15 31-8 43-15 8-21 6-30-11z"/><path d="m5200 3344c-10-11-11-20-4-32 15-23 28-24 41-3 10 15 9 22-6 35-17 15-19 15-31 0z"/><path d="m5374 3349c-9-16 18-30 33-17 7 6 10 14 7 19-7 13-31 11-40-2z"/><path d="m2460 3330c36-12 60-12 60 0 0 6-19 10-42 9-37-1-39-2-18-9z"/><path d="m2590 3330c0-5 19-10 43-9 32 0 37 2 22 9-28 12-65 12-65 0z"/><path d="m2785 3330c-8-14 3-30 21-30 8 0 14 9 14 20 0 21-24 28-35 10z"/><path d="m2861 3326c-9-10-8-16 3-25 10-9 16-8 25 3 9 10 8 16-3 25-10 9-16 8-25-3z"/><path d="m5925 3330c-8-14 3-30 21-30 8 0 14 9 14 20 0 21-24 28-35 10z"/><path d="m6095 3330c-15-7-10-9 23-9 26-1 41 3 37 9-7 12-32 12-60 0z"/><path d="m6230 3330c0-12 27-12 55 0 16 7 13 9-17 9-21 1-38-3-38-9z"/><path d="m2740 3320c0-5 5-10 10-10 6 0 10 5 10 10 0 6-4 10-10 10-5 0-10-4-10-10z"/><path d="m3591 3321c-11-7-5-11 23-16 33-7 56-2 45 9s-55 15-68 7z"/><path d="m4170 3319c0-5 5-7 10-4 6 3 10 8 10 11 0 2-4 4-10 4-5 0-10-5-10-11z"/><path d="m4259 3309c13-11 26-17 29-14 8 8-20 35-37 35-12-1-11-5 8-21z"/><path d="m4465 3310c-23-26-4-26 26 0 18 15 20 19 8 20-9 0-24-9-34-20z"/><path d="m4560 3320c0-5 5-10 10-10 6 0 10 5 10 10 0 6-4 10-10 10-5 0-10-4-10-10z"/><path d="m5108 3323c-24-6-23-23 1-23 28 0 52 11 45 21-5 9-17 10-46 2z"/><path d="m5854 3319c-8-14 11-33 25-25 6 4 11 14 11 22 0 16-26 19-36 3z"/><path d="m5990 3320c0-5 5-10 10-10 6 0 10 5 10 10 0 6-4 10-10 10-5 0-10-4-10-10z"/><path d="m2940 3310c0-5 5-10 10-10 6 0 10 5 10 10 0 6-4 10-10 10-5 0-10-4-10-10z"/><path d="m3690 3305c0-8 7-15 15-15s15 7 15 15-7 15-15 15-15-7-15-15z"/><path d="m3875 3310c4-6 11-8 16-5 14 9 11 15-7 15-8 0-12-5-9-10z"/><path d="m4850 3310c0-5 5-10 10-10 6 0 10 5 10 10 0 6-4 10-10 10-5 0-10-4-10-10z"/><path d="m5030 3305c0-8 7-15 15-15s15 7 15 15-7 15-15 15-15-7-15-15z"/><path d="m5790 3310c0-5 5-10 10-10 6 0 10 5 10 10 0 6-4 10-10 10-5 0-10-4-10-10z"/><path d="m2294 3299c-10-17 13-36 27-22 12 12 4 33-11 33-5 0-12-5-16-11z"/><path d="m3427 3304c-16-16-7-44 14-44 15 0 20 5 17 22-3 22-19 33-31 22z"/><path d="m3950 3300c0-5 19-10 43-9 36 1 38 2 17 9-36 12-60 12-60 0z"/><path d="m4080 3295c0-8 7-15 15-15s15 7 15 15-7 15-15 15-15-7-15-15z"/><path d="m4640 3295c0-9 5-15 11-13s11 8 11 13-5 11-11 13-11-4-11-13z"/><path d="m4740 3300c-22-7-21-8 12-9 20-1 40 4 43 9 7 12-19 12-55 0z"/><path d="m5284 3295c-4-9-2-21 4-27 15-15 44-1 40 19-4 23-36 29-44 8z"/><path d="m6424 3299c-10-17 13-36 27-22 12 12 4 33-11 33-5 0-12-5-16-11z"/><path d="m3229 3288c23-6 37-6 44 1 8 8-2 11-33 10l-45-1z"/><path d="m4350 3290c0-5 5-10 11-10 5 0 7 5 4 10-3 6-8 10-11 10-2 0-4-4-4-10z"/><path d="m4380 3290c0-5 5-10 10-10 6 0 10 5 10 10 0 6-4 10-10 10-5 0-10-4-10-10z"/><path d="m5477 3289c7-7 21-7 44-1l34 10-44 1c-32 1-42-2-34-10z"/><path d="m4150 3280c0-5 5-10 10-10 6 0 10 5 10 10 0 6-4 10-10 10-5 0-10-4-10-10z"/><path d="m4230 3275c35-20 62-19 36 0-11 8-29 15-40 15-19-1-19-2 4-15z"/><path d="m4488 3283c-21-5-24-23-5-23 7 0 22 7 33 15 20 15 9 18-28 8z"/><path d="m4575 3280c3-5 8-10 11-10 2 0 4 5 4 10 0 6-5 10-11 10-5 0-7-4-4-10z"/><path d="m2492 3257-22-23 25-24 25-23 25 23 25 24-22 23c-12 13-24 23-28 23s-16-10-28-23z"/><path d="m2940 3270c0-5 5-10 10-10 6 0 10 5 10 10 0 6-4 10-10 10-5 0-10-4-10-10z"/><path d="m3018 3259c-22-24-22-25 2-49 11-11 22-20 25-20s5 20 5 45c0 49-6 53-32 24z"/><path d="m3875 3270c3-5 8-10 11-10 2 0 4 5 4 10 0 6-5 10-11 10-5 0-7-4-4-10z"/><path d="m4320 3270c0-5 5-10 10-10 6 0 10 5 10 10 0 6-4 10-10 10-5 0-10-4-10-10z"/><path d="m4410 3270c0-5 5-10 10-10 6 0 10 5 10 10 0 6-4 10-10 10-5 0-10-4-10-10z"/><path d="m4860 3269c0-5 5-7 10-4 6 3 10 8 10 11 0 2-4 4-10 4-5 0-10-5-10-11z"/><path d="m5700 3233v-46l25 23 25 24-22 23c-12 13-23 23-25 23s-3-21-3-47z"/><path d="m5790 3270c0-5 5-10 10-10 6 0 10 5 10 10 0 6-4 10-10 10-5 0-10-4-10-10z"/><path d="m6202 3257-22-23 25-24c24-23 25-23 45-5 25 22 25 37 2 58-24 22-24 21-50-6z"/><path d="m2607 3252c-16-18-16-20 1-35 18-16 20-16 35 1 16 18 16 20-1 35-18 16-20 16-35-1z"/><path d="m3507 3252c-16-18-16-20 1-35 18-16 20-16 35 1 16 18 16 20-1 35-18 16-20 16-35-1z"/><path d="m3771 3257c-26-26 2-64 32-43 22 17 22 28-2 43-14 9-21 9-30 0z"/><path d="m4937 3252c-16-18-16-20 1-35 18-16 20-16 35 1 16 18 16 20-1 35-18 16-20 16-35-1z"/><path d="m5206 3252c-15-18-15-20 2-35 14-13 21-14 30-5 16 16 15 33-1 47-11 8-18 7-31-7z"/><path d="m6106 3252c-15-18-15-20 2-35 14-13 21-14 30-5 16 16 15 33-1 47-11 8-18 7-31-7z"/><path d="m2105 3246-30-12 34-12c46-16 123-15 146 2 18 13 18 14-3 25-27 15-109 13-147-3z"/><path d="m2344 3245c-4-9-2-21 4-27 15-15 44-1 40 19-4 23-36 29-44 8z"/><path d="m2728 3253c-31-8-20-32 18-39 41-8 124 2 138 16 21 21-96 39-156 23z"/><path d="m3084 3245c-4-9-2-21 4-27 15-15 44-1 40 19-4 23-36 29-44 8z"/><path d="m3334 3247c-6-17 2-37 16-37 15 0 19 29 5 40-12 10-16 9-21-3z"/><path d="m4354 3245c-4-9-2-21 4-27 15-15 44-1 40 19-4 23-36 29-44 8z"/><path d="m5383 3244c-8-20 8-36 26-25 15 10 8 41-9 41-6 0-13-7-17-16z"/><path d="m5624 3245c-7-18 3-35 21-35 15 0 24 19 18 38-6 17-32 15-39-3z"/><path d="m5881 3249c-34-13-15-30 43-36 57-7 116 4 116 21 0 25-108 35-159 15z"/><path d="m6363 3244c-3-8-1-20 6-27 14-14 47 15 37 32-10 16-36 13-43-5z"/><path d="m6498 3253c-25-6-22-30 5-37 36-9 102-7 138 6l34 12-30 12c-29 13-112 16-147 7z"/><path d="m2940 3240c0-5 5-10 11-10 5 0 7 5 4 10-3 6-8 10-11 10-2 0-4-4-4-10z"/><path d="m3167 3244c-13-14 6-24 43-24 50 0 77 10 58 21-15 10-92 12-101 3z"/><path d="m3591 3241c-19-12 21-25 50-16 17 6 19 9 8 16-8 5-21 9-29 9s-21-4-29-9z"/><path d="m3685 3239c-10-15 1-23 20-15 9 3 13 10 10 16-8 13-22 13-30-1z"/><path d="m3955 3240c-18-6-18-7 1-11 10-3 30-3 44 1l25 6-26 5c-14 3-34 3-44-1z"/><path d="m4075 3241c-7-12 12-24 25-16 11 7 4 25-10 25-5 0-11-4-15-9z"/><path d="m4150 3240c0-5 5-10 11-10 5 0 7 5 4 10-3 6-8 10-11 10-2 0-4-4-4-10z"/><path d="m4310 3234c0-8 5-12 10-9 6 4 8 11 5 16-9 14-15 11-15-7z"/><path d="m4485 3240c-19-7-19-7 1-12 10-3 28-2 39 2 19 7 19 7-1 12-10 3-28 2-39-2z"/><path d="m4645 3241c-7-12 12-24 25-16 11 7 4 25-10 25-5 0-11-4-15-9z"/><path d="m4745 3240-30-6 32-5c18-3 38-2 44 1 17 11-11 17-46 10z"/><path d="m4860 3240c0-5 5-10 11-10 5 0 7 5 4 10-3 6-8 10-11 10-2 0-4-4-4-10z"/><path d="m5030 3235c0-10 7-15 18-13 21 4 19 22-2 26-10 2-16-3-16-13z"/><path d="m5095 3241c-9-16 13-23 48-15 28 6 30 8 12 15-28 11-53 11-60 0z"/><path d="m5481 3241c-12-8-10-11 11-16 34-9 93-2 93 10 0 13-86 18-104 6z"/><path d="m4210 3236c0-9 39-13 51-5 10 6 4 9-18 9-18 0-33-2-33-4z"/><path d="m3125 2894c-11-2-45-9-75-15-247-49-439-325-416-599 25-307 247-503 571-504 112 0 147 9 300 74l100 43 49-27c44-25 50-26 64-12s13 19-4 58c-16 36-19 66-19 201v159l38 32c38 32 48 60 23 69-7 3-48 1-91-4-51-7-115-6-188 0-113 11-137 6-137-25 0-17 32-34 64-34 14 0 38-11 53-24 28-24 28-25 28-148 0-141-10-168-72-211-63-44-124-60-211-55-158 8-268 104-333 288-19 54-23 85-22 190 0 139 16 201 74 292 102 158 310 207 497 115 47-23 81-50 130-104 68-76 81-83 102-58 10 12 8 22-7 52-20 39-39 93-68 196-17 63-34 71-81 41-25-17-36-17-174 6-56 9-159 11-195 4z"/><path d="m5590 2892c-25-1-90-9-145-18-74-11-131-13-218-8l-119 7 4-29c3-26 8-30 58-41 32-7 62-21 72-32 24-31 30-144 26-511-4-356-6-370-62-390-52-19-61-26-61-46 0-18 12-19 175-25 96-4 213-12 260-18 179-26 362 20 485 121 53 44 120 138 144 203 53 141 49 329-10 473-60 143-212 264-376 297-75 15-164 21-233 17zm168-112c109-39 203-134 244-247 25-69 35-240 20-323-27-146-98-250-209-305-54-28-65-30-173-30-94 0-121 3-143 18l-27 17v423c0 340 3 427 14 442 27 38 172 40 274 5z"/><path d="m1746 2874c-147-36-307-161-374-294-137-274-27-611 242-740 108-51 171-64 297-58 161 8 272 59 391 180 95 96 158 252 158 388 0 66-34 191-71 260-66 124-208 231-350 265-79 18-215 18-293-1zm247-118c79-38 145-108 195-203 56-109 75-192 70-318-3-88-8-108-36-166-37-77-91-131-169-166-47-22-66-25-136-22-153 7-262 88-342 254-55 115-68 177-63 301 3 80 9 110 30 154 46 100 124 166 222 191 65 17 168 5 229-25z"/><path d="m4340 2874c-256-67-433-288-433-539 0-160 61-303 171-407 278-259 753-169 916 175 152 321-17 683-360 771-76 20-220 20-294 0zm250-120c141-75 236-233 262-431 19-148-22-275-118-362-71-65-131-85-233-79-103 7-159 34-237 113-110 112-170 277-162 442 11 221 152 358 358 350 61-3 87-9 130-33z"/><path d="m7496 2867c-29-21-13-53 30-62 55-10 81-25 94-54 17-34 26-809 12-960-9-103-10-106-46-138-22-20-46-33-63-33-37 0-91 40-137 100-28 37-45 50-60 48-30-4-31-40-3-85 14-22 35-62 47-90 21-51 24-52 78-64 133-27 313 57 366 171 20 44 21 61 22 543 1 393 4 504 15 523 8 17 28 29 56 37 47 12 65 40 41 63-12 12-27 13-89 3-71-11-265-7-319 6-15 4-33 0-44-8z"/><path d="m766 2855c-6-17 14-45 32-45 9 0 34-5 55-11 69-19 69-11 65-608-3-593 0-569-78-592-36-11-61-41-46-56 3-3 142-8 308-10 167-3 336-6 377-6 57-2 76 1 81 13 59 114 100 205 100 221 0 14-7 19-25 19s-43-18-83-58c-47-49-67-61-118-75-83-23-276-24-299-1-14 14-15 72-13 554 3 529 3 539 24 567 14 18 36 32 65 39 37 9 44 15 44 35v24h-242c-153 0-244-4-247-10z"/><path d="m6572 2841c2-21 10-27 46-34 56-11 71-39 53-99-14-46-166-426-249-622-66-154-91-189-158-221-30-14-54-32-54-39 0-28 24-34 100-26 41 5 123 6 182 3 94-5 108-4 114 11 9 25-12 43-57 49-82 11-86 34-29 184 63 167 40 153 249 153 131 0 181-3 189-12 18-22 92-229 92-257 0-37-11-49-55-64-30-10-41-20-43-38l-3-24h248c212 0 248 2 250 15 5 26-12 40-61 49-55 10-84 34-119 99-52 97-308 760-327 848l-11 50h-180-180zm239-243c67-174 108-292 103-300-3-4-70-8-150-8h-145l7 23c4 12 27 74 51 137s54 141 66 173c11 31 24 57 28 57s22-37 40-82z"/><path d="m2150 1491c0-2 7-9 15-15s34-65 57-131c27-75 49-121 59-123 11-2 21 18 38 70 44 137 39 135 76 28 19-57 38-96 47-98 10-2 25 29 54 115 21 65 47 126 57 135 9 10 17 19 17 21 0 1-20 2-45 3-48 1-53-2-31-20 13-9 11-22-10-89-14-43-28-75-33-73-4 3-18 40-31 82-18 57-21 79-12 82 27 9 9 17-38 18-28 0-50-3-50-8 0-4 5-8 10-8 6 0 10-8 10-17 0-23-42-153-50-153s-50 130-50 153c0 9 5 17 10 17 6 0 10 4 10 8s-25 8-55 8c-30-1-55-3-55-5z"/><path d="m2590 1493c0-2 9-12 20-23 17-17 20-33 20-114 0-71-4-98-15-110-24-23-19-26 45-26 58 0 80 12 40 23-18 5-20 14-20 116 0 90 3 113 15 117 32 13 13 21-45 20-33 0-60-2-60-3z"/><path d="m2750 1491c0-3 9-12 20-19 18-11 20-23 20-106 0-103-5-126-26-126-8 0-14-4-14-10 0-5 25-10 55-10 54 0 74 13 35 23-18 5-20 14-20 86 0 45 2 81 3 81 2 0 43-45 91-100 49-55 92-97 97-94s9 59 9 124c0 92 3 122 15 134 8 8 15 16 15 18s-22 4-50 4c-27 0-50-3-50-8 0-4 7-8 15-8 9 0 20-12 26-27 11-30 10-143-2-143-4 0-45 42-91 93-71 79-87 92-115 93-18 1-33-2-33-5z"/><path d="m3090 1489c0-4 9-9 20-12 18-5 20-14 20-116 0-90-3-113-15-117-39-15-6-24 88-24 101 0 104 1 115 25 17 38 15 50-7 31-24-22-79-37-108-30-22 6-24 11-21 63 3 53 5 56 30 59 18 2 33-4 45-17 25-30 32-26 26 17-8 54-19 71-28 43-5-18-13-22-38-19-29 3-32 6-32 38 0 33 2 35 34 38 23 2 43-3 63-18 29-21 34-14 19 24-6 16-19 19-109 20-56 0-102-2-102-5z"/><path d="m3350 1490c0-4 9-10 20-13 18-5 20-14 20-116 0-90-3-113-15-117-33-13-12-24 45-24 58 0 80 12 40 23-17 4-20 14-20 66 0 58 1 60 23 53 13-5 33-30 50-65 31-63 65-92 97-82 23 7 27 25 5 25-8 0-28 27-45 60s-34 60-39 60 4 13 20 29c34 35 36 49 8 85-20 25-24 26-115 25-52-1-94-5-94-9zm154-26c33-32 8-84-40-84-22 0-24 4-24 43 0 24 3 47 7 50 11 12 41 7 57-9z"/><path d="m3600 1490c0-3 9-11 20-17 10-7 35-38 55-68 28-45 35-65 35-106 0-35-4-51-15-55-33-13-12-24 45-24 58 0 80 12 40 23-17 4-20 13-20 54 0 39 8 60 41 111 22 35 47 66 55 69 28 11 13 19-36 19-27 0-50-3-50-8 0-4 7-8 15-8s15-5 15-11c0-20-42-80-52-77-6 2-20 21-32 42-15 28-18 40-8 43 28 11 8 18-48 18-33 0-60-2-60-5z"/><path d="m4047 1482c-21-23-21-41-1-70 9-13 11-22 4-22-25 0-60-49-60-84 0-76 111-114 206-70 47 22 71 93 42 122-9 9-4 12 23 12 19 0 45 7 57 16 46 32 11 100-39 74-23-13-20-36 5-32 22 4 21-15-1-22-10-3-40-8-68-12-56-7-89-24-105-54-16-31 4-62 38-58 29 3 45 38 18 38-20 0-21 29-1 36 21 8 45-14 45-40 0-62-111-96-151-47-10 13-19 31-19 41 0 28 39 70 66 70 13 0 24 5 24 10 0 6-4 10-9 10-14 0-41 30-41 45 0 8 10 19 21 26 18 9 27 7 51-11 35-26 43-22 27 14-11 23-18 26-64 26-38 0-56-5-68-18z"/><path d="m4380 1488c0-3 8-8 17-10 12-2 37-46 73-128 31-69 63-126 71-128 10-2 31 37 68 124 30 69 60 128 67 131 28 11 12 19-36 19-27 0-50-3-50-8 0-4 7-8 15-8s15-8 15-17c0-27-63-174-70-166-12 15-70 153-70 168 0 8 5 15 10 15 6 0 10 4 10 8 0 5-27 8-60 8s-60-4-60-8z"/><path d="m4710 1493c0-2 9-12 20-23 17-17 20-33 20-114 0-71-4-98-15-110-24-23-19-26 45-26 58 0 80 12 40 23-18 5-20 14-20 116 0 90 3 113 15 117 31 12 13 19-45 19-33 0-60-1-60-2z"/><path d="m4870 1492c0-4 9-13 20-20 18-11 20-23 20-106 0-103-5-126-26-126-8 0-14-4-14-10 0-5 25-10 55-10 54 0 74 13 35 23-18 5-20 14-20 86 0 45 2 81 4 81s40-43 85-95c46-52 89-95 97-95 11 0 14 23 14 119 0 93 3 121 15 131 25 21 17 26-35 26-50 0-66-9-31-19 22-5 35-63 29-137l-3-45-89 100c-76 86-93 100-122 102-19 1-34-1-34-5z"/><path d="m5210 1489c0-4 9-9 20-12 18-5 20-14 20-116 0-90-3-113-15-117-39-15-6-24 88-24 101 0 104 1 115 25 19 40 14 47-15 26-35-25-87-33-108-17-12 9-15 24-13 61 3 46 5 50 30 53 17 2 34-4 47-17 12-12 23-21 25-21 5 0-5 83-11 90-3 3-11-3-18-13-9-12-23-17-42-15-25 3-28 7-28 38 0 33 2 35 34 38 23 2 43-3 63-18 29-21 34-14 19 24-6 16-20 19-109 20-56 1-102-1-102-5z"/><path d="m5443 1488c-2-5 3-8 11-8s35-28 58-62c39-57 43-68 41-118-1-30-7-56-13-58-5-2-10-8-10-13s28-9 63-8c59 0 61 1 40 16-19 13-23 25-23 66s7 61 38 109c20 32 45 61 55 64s16 9 12 12c-8 9-96 9-101 0-3-4 2-8 10-8 22 0 20-22-6-66-20-34-22-35-35-18-29 38-43 73-33 79 6 3 10 9 10 13 0 9-111 9-117 0z"/><path d="m5770 1492c0-3 7-10 15-16 13-9 9-25-25-111-23-55-49-107-60-117-29-24-25-28 30-28 28 0 50 5 50 10 0 6-7 10-15 10-36 0-4 76 34 82 49 7 75-5 85-42 7-25 7-35-2-38-31-10-6-22 48-22 63 0 73 7 41 27-21 13-42 56-85 174l-27 76h-45c-24 0-44-2-44-5zm80-128c0-9-11-14-30-14-34 0-36 6-14 58l15 37 15-34c8-18 14-40 14-47z"/><path d="m6005 1490c-3-4 4-10 15-13 18-5 20-14 20-116 0-90-3-113-15-117-33-13-12-24 45-24 33 0 60 4 60 10s-6 10-14 10c-18 0-26 22-26 77 0 40 2 44 23 41 15-2 31-21 54-63 40-76 63-93 101-75 25 13 26 14 6 17-15 3-32 24-53 64-18 32-38 59-44 59-7 0-3 6 8 12 48 26 59 74 25 108-18 18-32 20-110 19-50-1-92-5-95-9zm146-20c12-7 19-21 19-40 0-31-22-50-59-50-17 0-21 6-21 34 0 64 17 79 61 56z"/><path d="m6290 1490c0-3 9-11 20-18 18-11 20-23 20-117 0-88-3-105-17-114-29-15-12-20 78-23 63-1 92 3 117 16 94 49 95 198 2 248-28 15-54 18-127 16-51-1-93-5-93-8zm197-45c34-34 35-37 31-97-4-51-9-65-32-85-21-18-38-23-65-21l-36 3-3 104c-1 58 0 111 2 118 11 27 66 15 103-22z"/><path d="m6645 1475c-46-45-29-88 51-129 48-25 60-36 62-58 7-58-84-64-113-8-22 42-31 37-27-14l4-44 49-4c94-6 139 22 139 88 0 37-13 50-84 84-55 27-67 48-41 74 25 24 54 19 86-15l29-31v25c0 51-8 57-72 57-49 0-63-4-83-25z"/><path d="m2200 875c0-13 248-15 2175-15s2175 2 2175 15-248 15-2175 15-2175-2-2175-15z"/></g></svg>