<?xml version="1.0" encoding="UTF-8" standalone="no"?>
<!DOCTYPE svg PUBLIC "-//W3C//DTD SVG 1.1//EN" "http://www.w3.org/Graphics/SVG/1.1/DTD/svg11.dtd">
<svg version="1.1" xmlns="http://www.w3.org/2000/svg" xmlns:xlink="http://www.w3.org/1999/xlink" preserveAspectRatio="xMidYMid meet" viewBox="16.88995502248872 63.68904721740239 610.2 494.19086243362983" width="603.2" height="487.62"><defs><path d="M255.68 67.69C126.01 67.69 20.89 174.82 20.89 306.98C20.89 439.14 126.01 546.28 255.68 546.28C385.34 546.28 490.46 439.14 490.46 306.98C490.46 174.82 385.34 67.69 255.68 67.69Z" id="bqS70Etmu"></path><path d="M402.63 428.75C420.11 415.17 436.76 422.39 439.67 444.87C442.17 467.36 446.75 503.85 449.25 526.34C451.75 548.82 437.59 559.85 417.2 550.94C396.8 542.03 363.49 527.61 343.51 518.7C322.7 509.36 320.62 491.12 338.52 477.97C356 464.39 385.14 442.33 402.63 428.75Z" id="c33wIiZMS"></path><path d="M487.13 290.01C487.17 290.1 487.51 290.78 487.55 290.86C486.72 287.89 486.72 281.95 486.72 279.83C487.13 280.25 487.13 279.83 487.55 282.37C486.72 274.31 485.88 273.46 485.47 272.62C484.63 271.77 484.22 271.77 482.97 264.98C482.97 265.83 483.38 266.68 483.38 268.37C483.8 271.77 483.8 274.31 483.38 273.46C485.05 279.83 484.22 280.25 485.47 281.1C486.3 285.34 485.88 290.01 485.05 285.34C485.47 289.59 486.3 293.41 486.72 297.65C486.72 295.1 486.72 292.56 486.72 290.44C487.55 291.71 486.3 301.47 487.55 303.59C487.55 298.92 487.13 294.68 487.13 290.01Z" id="c3szs92ln"></path><path d="M483.8 262.43C482.97 260.31 482.97 258.19 482.55 256.07C483.8 259.46 485.05 263.28 486.3 266.68C486.72 264.98 486.3 261.16 485.88 257.34C485.05 253.52 484.22 249.7 484.22 247.58C484.22 253.1 482.55 243.34 483.8 253.95C483.51 253.44 481.18 249.37 480.89 248.86C480.47 245.89 479.64 242.49 478.81 239.52C478.39 239.52 475.89 233.16 476.72 237.83C477.14 238.67 477.56 240.37 477.97 241.64C477.14 241.22 476.31 238.25 475.48 235.7C474.64 233.16 473.81 231.04 473.39 232.73C475.89 239.52 475.89 240.8 477.97 245.04C479.22 251.83 480.47 256.49 480.47 259.89C480.89 262.01 481.72 262.01 482.14 264.55C482.14 264.13 481.72 263.28 481.72 262.86C482.14 262.77 483.38 262.52 483.8 262.43Z" id="e5zOp9nx8y"></path><path d="M62.93 423.24C62.1 422.39 61.69 421.96 61.27 421.11C61.6 421.54 62.77 423.02 62.93 423.24Z" id="b2Kudtedk3"></path><path d="M29.63 354.93C30.88 358.74 32.13 362.99 33.38 366.38C32.55 365.11 34.21 370.62 32.96 368.08C33.38 368.93 34.63 373.17 34.63 371.9C34.54 371.64 33.88 369.61 33.79 369.35C36.71 375.29 36.29 371.47 40.46 380.81C39.62 377.41 39.21 375.29 38.37 373.59C37.54 371.9 37.13 370.2 36.29 368.93C35.88 367.65 35.46 366.81 35.46 365.96C33.79 362.99 32.55 359.59 31.3 356.62C30.96 356.28 29.97 355.27 29.63 354.93Z" id="g16ix6wdbG"></path><path d="M403.87 480.94C403.46 481.79 401.79 483.06 403.87 481.79C403.87 481.62 403.87 481.02 403.87 480.94Z" id="aSliUlkHp"></path><path d="M456.33 184.79C456.33 184.37 455.91 183.94 455.49 183.09C455.91 183.52 455.91 184.37 456.33 184.79Z" id="dmkdlSI5W"></path><path d="M61.27 188.61C60.44 189.46 60.02 190.31 59.6 191.15C59.94 190.65 61.1 188.86 61.27 188.61Z" id="c17pkthStX"></path><path d="M101.65 127.09C100.4 128.36 99.57 129.21 98.32 130.48C98.99 129.8 101.32 127.43 101.65 127.09Z" id="d7qGAy41Zl"></path><path d="M433.85 152.54C433.43 152.12 433.43 152.12 433.01 152.12C433.01 152.12 433.85 152.54 433.85 152.54Z" id="a1cFvyiIWJ"></path><path d="M229.45 71.08C229.45 71.08 228.2 71.08 226.95 71.08C226.95 71.08 229.45 71.08 229.45 71.08Z" id="gfkJdkyXd"></path><path d="M97.9 131.33C97.9 130.91 97.9 130.91 97.9 131.33C98.32 130.91 98.32 130.91 98.32 130.48C98.24 130.65 97.99 131.16 97.9 131.33Z" id="a1kDkQFIj"></path><path d="M41.29 220.01C41.7 218.73 41.7 218.31 41.7 217.88C41.7 218.73 41.29 219.16 41.29 220.01Z" id="coslNnMKg"></path><path d="M47.95 215.34C47.53 216.19 47.53 216.61 47.53 217.46C47.53 217.46 47.95 215.34 47.95 215.34Z" id="g7zQDZ1e3M"></path><path d="M28.8 327.77C28.8 325.65 28.8 324.38 28.38 323.53C28.47 324.38 28.76 327.35 28.8 327.77Z" id="edW7sjXeA"></path><path d="M42.95 226.37C42.95 225.52 42.95 225.52 42.95 225.52C42.95 225.69 42.95 226.28 42.95 226.37Z" id="bIPJpvEPF"></path><path d="M471.31 221.28C470.48 220.01 470.06 218.73 469.65 217.88C470.06 219.16 470.48 220.01 471.31 221.28Z" id="a1Ma7UoZ4F"></path><path d="M290.23 74.48C292.31 74.48 292.31 73.2 287.73 73.2C288.98 73.63 291.48 74.05 290.23 74.48Z" id="c3VbMVKHbi"></path><path d="M478.81 238.25C478.39 235.7 480.05 239.1 480.05 238.25C479.22 236.55 478.39 234.43 477.56 231.46C477.56 229.76 479.64 234.01 480.05 237.83C479.64 233.58 482.55 242.92 481.3 236.98C477.14 224.25 473.39 215.34 467.57 207.7C467.82 208.21 469.81 212.28 470.06 212.79C470.9 214.49 471.73 216.61 472.15 218.31C472.98 220.01 473.39 221.7 474.23 223.4C474.64 225.1 475.06 226.79 475.48 228.07C475.35 227.94 474.35 226.92 474.23 226.79C473.81 222.98 472.56 220.43 471.73 217.88C470.9 215.34 469.65 212.79 467.98 209.4C470.06 214.07 471.31 219.16 473.39 223.82C474.64 231.04 473.39 226.37 470.9 221.28C471.31 222.55 471.73 223.82 471.73 224.25C472.56 224.67 478.39 239.95 474.23 226.79C475.48 226.79 477.56 234.86 478.81 238.25Z" id="a1TstF4lVm"></path><path d="M27.13 280.25C27.55 280.25 27.55 280.25 27.13 280.25C27.13 281.1 27.55 280.68 27.13 280.25Z" id="d1Q2sAn3ve"></path><path d="M281.07 67.69C279.4 67.26 278.16 67.26 277.32 67.26C278.57 67.26 279.82 67.26 281.07 67.69Z" id="g18igGqHDS"></path><path d="M341.01 93.15C340.97 93.15 340.64 93.15 340.6 93.15C341.01 93.57 342.68 93.99 343.51 93.99C342.68 93.57 341.85 93.15 341.01 93.15Z" id="aaAXZkJFWV"></path><path d="M154.1 105.45C152.85 106.3 152.44 106.72 152.02 107.15C152.85 106.72 153.69 105.87 154.1 105.45Z" id="b4ds5qZCqe"></path><path d="M481.3 318.44C480.47 318.86 481.3 323.95 480.05 329.89C480.05 328.92 480.05 321.11 480.05 320.14C480.47 314.62 480.47 309.53 480.47 304.01C480.47 254.8 465.07 209.4 438.43 172.49C443.42 177.58 446.34 184.37 450.91 190.31C450.5 190.31 450.08 189.46 450.91 190.73C453 194.97 455.08 197.52 456.74 200.06C458.41 202.61 460.07 205.16 461.32 208.97C461.24 208.93 460.57 208.59 460.49 208.55C460.91 208.97 462.99 213.22 463.4 211.94C462.15 208.97 460.91 207.28 460.07 205.58C459.24 203.88 458.41 202.61 457.16 199.64C458.82 201.34 461.32 206 462.99 209.4C463.11 209.4 464.11 209.4 464.24 209.4C467.15 213.22 467.57 218.73 470.48 222.98C470.36 222.42 469.36 218.01 469.23 217.46C469.23 217.46 469.65 217.88 469.65 218.31C468.81 215.76 467.57 214.07 467.15 213.22C465.07 209.4 464.24 206.43 463.4 203.88C462.57 201.76 462.57 200.06 462.57 199.22C460.91 195.4 464.24 200.06 464.65 199.22C461.32 193.28 460.49 194.12 457.16 188.61C456.33 186.91 456.74 187.34 457.58 188.18C457.33 187.85 455.33 185.13 455.08 184.79C455.49 184.37 449.25 174.61 453.83 180.12C454.24 180.97 455.49 182.67 455.91 183.94C451.75 175.46 443.42 161.88 444.25 161.88C441.34 157.64 441.76 158.91 437.18 152.54C434.26 150.42 435.93 153.82 430.1 147.45C430.52 148.01 433.85 152.42 434.26 152.97C435.51 153.82 436.34 154.67 437.18 155.94C436.72 155.39 433.06 150.98 432.6 150.42C435.93 153.82 435.51 152.54 437.18 153.39C444.25 161.88 444.67 165.27 447.58 170.36C445.09 167.82 441.76 163.15 442.17 165.27C439.67 160.18 438.01 161.03 434.26 155.51C434.35 155.6 435.01 156.28 435.1 156.36C430.93 152.97 431.35 151.7 428.02 149.15C428.44 149.15 428.02 148.73 428.02 148.3C421.36 141.94 429.27 150.85 422.61 144.48C417.2 138.54 421.77 141.51 420.53 139.39C425.94 144.06 425.94 143.64 426.35 143.21C426.77 143.21 427.19 142.79 432.6 148.3C433.85 147.45 429.68 142.79 423.86 136.85C427.19 141.09 420.11 136 424.27 141.51C415.11 133.45 414.28 136 405.12 126.24C405.16 126.24 405.5 126.24 405.54 126.24C403.87 125.39 402.21 124.54 400.54 123.69C398.88 122 396.8 120.3 395.13 118.6C399.71 120.3 403.87 124.54 407.2 126.24C400.96 119.03 396.8 119.45 388.06 113.09C381.81 106.72 397.21 118.6 398.05 117.75C395.96 116.91 391.8 112.66 392.63 112.66C400.54 119.03 398.05 115.63 406.37 123.27C401.79 120.3 406.79 124.12 405.54 124.12C407.2 124.97 415.11 131.33 420.11 136.85C422.19 137.27 416.36 131.76 413.03 128.36C409.29 125.82 405.96 122.85 402.63 119.88C400.96 118.6 399.29 116.91 398.05 116.06C396.38 114.78 394.72 113.94 393.47 113.09C385.56 107.57 393.47 111.81 393.05 111.39C389.72 108.42 388.89 108.42 388.47 108.42C388.06 108.42 388.47 109.27 387.22 108.42C381.39 105.03 378.9 102.9 375.98 101.21C373.49 99.51 371.4 97.39 367.24 95.27C359.75 92.72 343.1 84.66 330.61 80.42C332.27 80.42 330.61 79.57 330.19 78.72C322.28 78.3 325.2 78.3 315.2 77.02C317.7 77.87 320.2 78.72 323.11 79.99C316.87 78.3 311.46 78.72 305.63 76.17C313.12 79.57 295.22 75.33 290.23 75.33C283.57 73.63 276.91 74.48 273.58 73.2C273.66 73.2 274.33 73.2 274.41 73.2C271.08 72.78 268.16 72.78 264.83 72.78C264.96 72.61 265.96 71.25 266.08 71.08C259.42 70.23 251.1 71.93 253.59 72.36C246.52 71.93 250.68 71.93 249.85 71.08C253.59 70.66 262.34 68.54 264.83 70.23C264.42 70.23 262.75 69.81 262.34 70.23C271.49 70.66 273.16 70.23 273.58 69.81C273.99 68.96 273.16 68.11 277.74 68.54C273.16 68.11 269.41 67.26 264 67.26C261.5 67.26 251.93 68.11 246.93 68.96C253.59 68.11 256.92 68.54 262.34 69.39C257.76 68.96 257.34 70.23 253.18 69.81C253.26 69.78 253.68 69.64 254.43 69.39C251.43 69.9 249.76 70.18 249.43 70.23C248.6 68.96 236.11 70.66 243.19 68.96C236.53 69.81 241.11 69.81 234.86 71.08C238.61 70.66 242.77 70.66 246.52 70.66C246.52 70.79 246.52 71.8 246.52 71.93C242.35 72.78 241.11 72.36 236.53 72.78C236.57 72.91 236.9 73.93 236.94 74.05C234.03 74.05 231.11 74.05 228.62 74.05C229.87 74.9 223.21 75.33 221.54 75.75C216.96 76.17 219.46 73.63 211.97 76.17C212.01 76.17 212.34 76.17 212.38 76.17C208.22 77.87 205.31 78.3 199.06 79.57C199.48 79.14 201.14 78.72 201.97 78.3C192.82 79.99 179.91 86.36 175.33 86.36C175.75 85.08 179.5 84.24 179.08 83.39C192.82 79.99 187.82 78.3 204.06 74.48C204.89 75.75 208.22 74.48 211.55 73.2C215.3 71.93 219.04 71.08 221.12 71.93C217.79 72.36 214.05 73.2 211.55 74.05C209.05 74.9 206.97 75.75 207.8 75.75C209.05 75.33 210.72 74.9 212.38 74.48C214.05 74.05 215.71 73.63 217.38 73.63C220.71 73.2 223.62 72.36 225.7 72.36C221.96 71.93 222.79 70.66 225.29 69.39C222.79 69.81 219.88 70.66 216.96 71.08C215.3 71.51 213.63 71.51 211.97 71.93C210.3 72.36 208.64 72.78 206.55 72.78C204.89 73.2 202.81 73.63 201.14 73.63C199.48 74.05 197.4 74.48 195.73 74.9C191.98 75.75 188.24 76.6 185.32 77.87C185.53 77.96 187.2 78.64 187.4 78.72C176.58 83.81 188.24 77.02 179.5 79.99C178.25 80.84 177 81.69 176.17 82.54C176.14 82.54 176 82.54 175.75 82.54C172.25 84.83 170.31 86.1 169.92 86.36C174.5 84.66 172 84.24 177 82.96C181.58 81.69 177 84.24 176.17 85.51C174.5 85.93 171.17 87.21 169.09 88.05C167.01 88.9 165.76 89.33 168.67 87.21C164.93 89.33 161.59 91.45 157.85 93.99C157.85 93.57 159.93 91.87 161.18 91.02C158.26 92.3 155.77 93.99 153.27 95.27C153.27 95.22 153.27 94.89 153.27 94.84C147.02 98.66 138.28 104.18 134.12 108C144.94 102.06 129.96 112.24 131.21 112.24C127.46 114.78 124.96 113.51 132.04 107.15C134.54 106.3 139.53 102.06 143.69 99.51C137.87 102.06 137.03 103.75 132.87 106.72C135.37 104.18 127.04 109.69 127.04 109.27C127.46 108.42 128.29 106.3 133.7 103.33C141.61 98.24 135.37 103.75 137.45 102.06C140.36 102.06 148.27 95.27 153.69 92.72C154.1 92.72 152.85 93.57 152.02 93.99C154.1 92.72 157.43 91.02 160.35 89.75C163.26 88.48 165.76 86.78 165.76 86.36C162.01 88.48 158.68 90.18 154.93 92.3C152.44 93.15 157.85 89.75 154.1 91.02C151.6 92.72 148.69 93.99 145.78 95.69C145.82 95.61 146.15 94.93 146.19 94.84C139.53 97.81 129.54 104.18 122.88 109.69C122.46 112.66 119.55 116.06 118.3 120.3C108.73 127.94 98.74 136.85 89.58 146.61C89.99 146.61 90.41 147.03 89.99 147.88C87.08 150.42 82.92 155.94 82.08 155.09C80.42 158.91 74.17 168.67 76.26 167.39C75.84 167.82 75.84 168.24 75.42 168.67C71.68 172.06 66.68 177.15 60.02 188.61C58.77 190.73 59.19 191.58 60.44 191.58C58.77 193.7 57.52 196.25 56.27 198.37C56.69 196.25 56.69 194.97 58.77 191.58C55.44 197.52 52.11 203.46 49.61 209.82C49.61 209.65 49.61 208.3 49.61 208.13C48.78 210.67 47.95 213.22 47.12 215.76C48.36 211.52 51.7 205.16 52.11 207.28C50.45 211.52 49.2 214.91 47.95 217.88C46.7 220.85 45.45 224.25 45.03 228.07C43.37 227.22 42.12 229.76 42.12 226.79C42.12 226.37 42.54 225.95 42.54 225.95C42.54 222.98 43.79 216.61 45.45 211.94C42.12 220.01 40.87 222.98 40.04 225.52C39.62 226.79 39.21 228.07 38.37 230.19C37.54 231.89 36.71 234.43 35.88 238.25C35.04 238.67 35.88 235.28 36.71 231.89C37.54 228.92 38.37 225.95 37.13 227.22C38.79 222.55 40.46 218.31 42.54 214.07C41.7 216.19 41.7 216.61 41.7 217.88C42.95 213.22 44.2 209.82 45.45 207.28C46.7 204.31 47.53 201.76 48.78 198.37C50.03 196.25 49.61 197.94 48.78 199.64C47.95 201.34 47.53 203.03 48.78 200.49C47.12 204.73 46.7 208.97 46.7 211.1C49.2 206 49.61 204.31 49.61 203.03C49.61 201.76 49.61 200.06 51.7 195.82C52.94 193.7 54.19 192 55.86 189.88C57.94 186.06 54.61 190.73 54.19 190.73C56.27 186.06 57.94 184.79 60.02 180.97C59.19 181.82 57.52 183.94 57.52 183.09C59.6 180.55 61.27 177.58 62.93 175.03C64.6 172.49 66.68 169.94 69.18 167.82C66.68 170.36 70.01 163.58 71.26 161.03C68.35 164 65.43 167.39 62.93 170.36C54.61 184.37 49.2 192.85 42.95 208.97C42.95 208.85 42.95 207.83 42.95 207.7C36.71 220.01 35.88 225.95 35.04 231.04C34.63 236.55 34.21 241.22 31.71 252.25C30.05 252.67 30.05 262.86 28.8 261.58C30.05 254.8 29.22 256.07 28.38 257.77C28.38 262.01 28.8 264.55 27.13 272.62C26.72 269.65 25.05 276.43 25.89 268.8C24.22 279.4 24.22 285.34 25.05 290.86C25.89 308.26 22.97 295.95 24.22 313.35C24.14 313.09 23.47 311.06 23.39 310.8C23.39 314.62 23.8 318.01 24.22 321.83C24.26 321.45 24.59 318.4 24.64 318.01C25.47 322.26 25.89 326.5 26.72 330.74C28.38 338.38 27.13 327.35 27.97 328.2C27.55 327.35 27.13 326.5 26.72 325.65C26.72 320.56 25.05 313.35 25.89 312.07C26.3 320.56 27.13 318.44 27.97 321.83C27.94 321.44 27.8 319.46 27.55 315.89C28.05 314.37 28.33 313.52 28.38 313.35C28.38 309.53 28.38 305.71 28.38 302.74C28.38 299.77 28.38 296.8 27.97 294.68C27.55 298.07 28.8 300.19 27.97 303.16C27.13 301.04 27.13 297.65 26.72 293.41C26.72 289.16 27.13 284.5 27.13 279.4C27.55 278.98 27.97 276.01 27.97 277.28C27.97 277.28 27.97 278.98 27.55 280.25C28.38 279.4 27.97 284.92 29.22 276.01C29.63 279.4 30.88 286.19 31.3 285.77C30.88 290.86 30.88 298.07 30.46 302.32C30.46 302.27 30.46 301.93 30.46 301.89C30.46 306.56 31.71 315.89 30.46 316.74C30.88 319.29 31.71 326.92 31.71 319.29C32.13 323.53 32.55 327.77 33.38 332.02C31.3 329.89 32.55 342.2 29.63 329.89C29.63 330.32 30.46 334.99 31.71 342.2C31.71 342.2 31.71 342.2 31.3 341.77C31.3 341.35 30.88 340.93 30.88 340.93C30.46 339.23 30.46 338.38 30.88 338.38C29.22 334.14 29.63 340.93 30.88 347.71C31.01 347.84 32 348.86 32.13 348.99C32.13 351.96 32.55 354.5 32.96 357.05C33.38 359.59 33.79 362.56 35.04 366.38C36.71 369.35 37.96 372.32 39.21 374.87C39.66 375.72 43.33 382.5 43.79 383.35C44.62 385.05 45.03 386.75 45.87 388.44C46.28 390.99 49.61 398.2 47.53 395.66C47.53 396.51 46.28 393.96 45.03 390.57C45.03 390.14 45.45 390.99 45.45 390.14C44.62 389.29 43.79 389.29 44.62 393.54C42.95 389.29 42.95 388.87 41.29 385.9C41.45 386.32 42.79 389.72 42.95 390.14C42.12 388.44 41.29 386.75 40.46 385.05C39.62 383.35 38.79 381.66 37.96 379.96C36.29 376.99 35.04 374.44 34.63 374.87C36.29 376.56 36.71 380.81 37.54 384.63C36.29 382.08 33.79 376.56 35.04 380.81C35.46 381.66 36.71 384.63 37.96 386.75C39.21 388.87 39.62 389.29 38.37 385.05C40.04 388.44 42.54 393.11 43.79 396.93C41.29 392.69 42.12 395.66 40.87 394.81C42.95 398.63 44.2 398.2 44.62 398.63C45.87 401.6 46.28 404.14 47.12 406.69C47.95 409.23 48.78 411.36 49.61 413.48C51.28 418.14 53.36 422.39 57.11 428.33C58.36 430.02 52.53 421.11 53.78 421.54C55.44 423.66 56.69 425.36 57.52 427.05C58.36 428.75 59.19 430.02 60.02 431.72C61.27 434.69 62.52 437.66 65.43 441.06C65.39 440.76 65.06 438.38 65.02 438.09C66.68 440.21 70.84 445.72 72.93 448.27C72.93 449.12 78.34 457.6 73.76 452.09C75.84 455.48 77.92 457.6 79.59 458.87C81.25 460.57 82.5 461.42 84.17 462.69C85.83 463.97 87.08 464.81 89.16 466.51C91.24 468.21 93.32 470.33 96.65 473.72C91.24 467.78 90.41 466.94 86.25 462.27C91.24 466.94 87.5 462.69 88.74 462.69C89.99 464.39 92.91 467.78 94.57 469.48C96.24 471.6 97.07 472.45 93.74 469.48C97.49 473.3 105.4 480.94 107.89 482.21C107.56 481.87 104.9 479.16 104.56 478.82C107.48 481.36 110.39 483.91 113.31 485.6C116.22 487.3 118.3 488.57 119.97 489.42C112.47 483.48 111.64 485.18 102.48 476.69C93.32 466.51 105.4 478.39 99.98 471.18C97.49 469.06 94.99 467.36 92.49 465.24C92.78 465.58 95.11 468.29 95.41 468.63C94.57 468.63 92.08 465.66 89.58 463.54C87.08 461 85.41 458.87 85 459.72C82.5 455.48 80.42 452.93 78.34 450.39C76.26 447.84 74.17 444.87 71.68 440.21C69.6 438.51 72.09 441.9 73.76 444.03C70.84 439.36 69.18 440.21 65.85 433.84C64.18 430.45 64.18 433.42 67.93 438.93C66.27 436.81 65.02 434.27 63.35 432.15C61.69 430.02 60.44 427.48 58.77 424.93C59.6 427.05 60.44 428.75 61.27 430.87C60.02 429.18 58.77 427.48 57.94 425.36C58.77 427.05 59.6 428.75 60.44 430.45C53.78 419.84 47.53 407.11 46.28 400.75C48.78 405.42 52.11 411.78 55.44 417.3C57.11 420.27 58.77 422.81 60.44 424.93C62.1 427.05 63.35 428.75 64.6 430.02C64.18 428.75 62.93 427.48 61.69 425.36C60.44 423.66 59.19 421.54 59.19 419.84C58.94 419.63 56.94 417.93 56.69 417.72C54.61 414.75 50.45 407.11 50.86 405.84C53.36 410.08 55.44 413.05 56.69 415.17C58.36 417.3 59.6 418.57 61.27 420.69C61.27 420.69 62.1 421.54 62.93 422.81C64.6 425.36 67.1 429.6 68.76 431.72C70.43 434.69 68.76 432.99 68.35 432.99C69.6 435.96 71.26 438.09 72.93 440.21C74.59 442.33 76.26 444.45 77.92 446.15C79.59 447.84 81.67 449.96 83.33 452.09C85.41 454.21 87.08 456.33 89.16 458.87C88.33 459.72 94.99 466.94 92.91 464.81C97.9 470.33 101.65 472.45 105.4 475.42C105.4 476.69 113.72 483.06 110.39 481.36C112.47 482.63 114.14 483.91 116.22 484.76C117.88 486.45 120.8 488.57 123.3 490.7C125.79 492.39 128.29 494.09 128.71 494.94C132.87 497.48 130.37 494.94 136.2 499.18C135.79 499.18 136.2 499.61 134.95 498.76C136.2 499.61 138.28 501.3 140.78 503C143.28 504.27 145.78 505.55 147.02 506.39C142.86 503.85 146.19 505.55 141.2 502.58C141.61 502.15 147.44 505.12 153.27 508.94C149.11 507.24 150.36 508.52 152.44 509.79C154.52 511.06 157.02 512.76 154.93 511.91C167.84 518.7 176.17 520.4 187.82 522.94C189.49 523.37 191.15 524.21 192.82 524.64C194.48 525.06 196.56 525.49 198.23 526.34C199.89 526.76 201.97 527.61 203.64 528.03C205.31 528.46 207.39 528.88 209.05 529.31C210.72 529.73 212.8 530.15 214.46 530.58C216.13 531 217.79 531 219.88 531.43C223.21 531.85 226.54 532.28 229.03 532.28C228.95 532.25 228.53 532.11 227.78 531.85C231.78 531.85 234 531.85 234.45 531.85C238.19 532.28 234.45 533.55 240.27 533.55C238.19 534.82 229.87 532.7 224.04 532.7C229.03 533.97 226.54 533.97 223.62 533.97C220.71 533.55 217.38 533.55 220.71 534.4C221.96 533.97 223.62 533.97 226.12 534.4C228.62 534.4 231.53 534.82 234.45 535.25C237.36 535.67 240.69 536.09 243.6 536.09C246.52 536.52 249.43 536.52 251.93 536.09C260.67 536.52 247.77 536.94 252.35 537.37C252.64 537.28 254.97 536.6 255.26 536.52C258.59 536.94 259.84 536.94 259.84 537.79C269.41 538.22 279.82 536.94 287.73 535.25C277.74 536.94 291.06 533.55 281.07 534.82C283.98 533.97 290.23 533.12 296.47 532.28C290.64 533.55 304.38 532.7 291.48 534.4C293.56 535.25 297.72 533.12 303.55 532.28C300.63 533.12 294.39 535.25 294.81 535.25C298.97 533.97 306.05 532.7 312.29 531.43C318.54 530.15 324.36 528.88 325.61 528.03C331.44 525.06 340.6 521.24 347.26 517C354.75 514.88 362.25 510.64 369.74 506.39C369.61 506.52 368.61 507.54 368.49 507.67C372.65 505.12 379.31 501.3 385.56 497.06C385.72 497.06 387.06 497.06 387.22 497.06C391.39 494.09 398.88 488.15 404.71 483.48C404.29 483.06 398.88 487.3 401.38 484.76C398.46 487.3 395.96 489 397.21 489C394.3 491.54 393.47 490.7 390.97 492.39C394.72 489.42 398.46 486.03 402.21 483.06C403.04 482.21 403.46 482.21 403.46 482.21C403.46 482.04 403.46 480.68 403.46 480.51C406.37 477.97 407.2 477.54 407.2 477.97C410.12 475 411.78 472.88 413.86 470.75C415.53 468.63 417.61 466.09 420.53 463.12C418.44 466.51 417.2 468.63 413.03 472.88C415.53 470.75 417.61 468.21 420.11 465.66C418.86 467.36 415.11 471.6 411.78 475C408.45 478.39 405.96 480.94 407.62 480.51C408.25 479.88 413.24 474.79 413.86 474.15C413.86 474.15 418.03 469.06 420.53 466.51C425.1 461.42 428.44 456.33 431.35 452.09C432.18 451.24 433.43 450.39 434.26 449.12C435.1 447.84 436.34 446.57 437.18 444.87C439.26 441.9 441.34 438.51 443.84 435.12C444.67 434.27 446.34 432.15 445.92 433.84C445.79 434.05 444.8 435.75 444.67 435.96C450.91 426.63 457.16 415.17 460.49 405.84C460.82 405.42 463.49 402.02 463.82 401.6C467.57 393.96 466.73 394.38 465.9 394.81C465.07 395.23 464.24 395.66 467.15 387.6C470.06 384.2 474.64 367.65 475.89 367.23C476.72 363.84 477.14 362.56 476.31 362.14C475.89 363.41 475.48 365.96 475.06 367.23C474.64 368.5 474.23 369.35 474.23 367.23C475.48 361.29 476.72 358.74 477.56 354.08C477.56 354.5 477.56 357.9 477.97 356.2C478.39 354.93 478.39 353.23 478.81 351.53C479.22 349.83 479.22 348.14 479.64 346.02C480.05 342.2 480.89 338.38 481.3 334.14C481.72 329.89 481.72 326.08 481.72 322.68C481.72 318.44 481.3 315.04 480.89 312.5C481.72 316.74 482.97 317.17 481.72 322.68C481.3 322.68 481.72 319.71 481.3 318.44ZM37.96 292.98C37.54 296.38 36.71 300.62 35.88 305.29C35.88 294.68 36.71 283.65 38.79 273.04C38.71 273.17 38.04 274.19 37.96 274.31C38.37 270.92 38.37 267.95 39.21 266.25C39.21 266.25 39.21 267.1 39.62 269.22C39.62 270.92 40.04 273.46 40.04 276.01C40.04 277.71 40.04 278.98 40.46 280.68C40.46 282.37 40.46 284.5 40.04 286.19C39.62 287.04 38.79 289.59 37.96 292.98ZM51.28 377.41C52.53 379.96 52.53 380.81 52.94 381.66C52.11 379.96 51.7 378.69 51.28 377.41C51.28 377.84 51.28 377.84 51.28 377.41ZM61.69 206C60.44 208.97 58.77 211.94 57.52 214.91C57.52 214.49 57.94 213.22 58.77 211.52C59.6 209.82 60.44 208.13 61.69 206ZM66.27 413.9C64.18 410.08 62.52 405.84 60.44 402.02C58.77 398.2 57.11 394.38 55.86 390.57C57.11 393.11 58.77 395.66 60.02 399.05C59.6 398.2 59.6 397.35 59.19 396.08C62.1 402.45 65.02 408.39 68.35 414.75C66.68 412.63 64.6 409.23 62.93 405.42C62.93 405.84 64.6 410.08 67.51 415.17C67.26 414.92 66.39 414.03 66.27 413.9ZM69.6 191.15C67.51 194.55 65.85 197.94 64.18 201.34C63.35 202.19 62.52 203.46 61.69 204.73C62.02 203.88 64.68 197.09 65.02 196.25C65.02 196.67 64.6 196.67 64.6 197.09C65.85 194.12 67.51 191.58 68.76 189.03C69.6 189.03 70.43 189.03 70.01 189.88C69.6 190.31 69.6 190.73 69.6 191.15ZM183.66 91.02C185.74 89.75 188.24 88.48 190.74 87.21C190.69 87.25 190.36 87.59 190.32 87.63C194.07 85.93 198.23 85.08 202.39 83.81C202.27 83.9 201.27 84.58 201.14 84.66C203.22 83.81 205.72 82.96 208.22 82.11C208.22 83.39 210.72 82.11 210.3 82.96C212.8 83.39 216.54 82.11 221.12 81.27C225.7 79.99 231.11 78.72 236.11 78.72C235.99 78.81 234.99 79.48 234.86 79.57C237.36 78.72 241.94 78.3 247.35 78.3C252.35 78.3 257.76 78.3 262.34 78.72C262.29 78.72 261.96 78.72 261.92 78.72C258.17 79.14 256.51 79.57 256.92 79.99C252.76 79.99 249.02 80.42 244.85 80.42C244.44 80.42 244.02 80.42 242.77 79.99C241.52 80.42 239.44 80.42 237.78 80.84C237.36 80.84 237.36 80.84 236.94 80.84C230.7 81.69 224.87 82.54 219.04 83.81C219.46 83.39 220.71 82.96 221.96 82.54C219.88 82.96 218.21 83.39 216.13 83.81C215.55 83.98 210.88 85.34 210.3 85.51C206.55 86.36 202.39 87.63 198.64 88.9C191.98 91.02 185.32 93.15 179.08 96.12C178.66 94.84 178.25 94.42 178.25 94.42C179.91 93.57 181.58 92.3 183.66 91.02ZM152.02 107.15C148.69 109.27 143.28 111.81 141.61 113.09C145.36 111.39 144.94 111.81 142.86 113.51C141.2 114.78 139.12 115.63 137.45 116.91C137.45 116.48 138.28 115.63 136.2 116.91C135.7 117.27 133.2 119.11 128.71 122.42L135.37 117.75C135.12 118.26 134.98 118.55 134.95 118.6C119.13 129.63 104.56 142.79 92.08 158.06C88.33 161.03 86.25 162.3 83.75 163.58C85.83 160.61 87.5 158.06 89.58 155.94C89.7 155.94 90.7 155.94 90.83 155.94C93.32 152.97 95.82 150.42 97.9 147.88C99.98 145.33 102.07 142.79 104.56 140.24C108.73 135.15 113.72 130.06 119.97 125.39C118.72 127.51 113.72 130.91 114.97 130.91C118.72 127.94 119.97 126.24 121.22 124.54C122.46 122.85 123.71 121.15 127.88 119.03C122.46 123.27 124.55 122 126.21 120.72C128.29 119.45 130.37 118.18 125.79 122.42C138.28 110.97 154.93 103.75 164.93 98.66C162.01 99.09 168.67 96.12 168.67 95.69C171.17 94.42 170.75 95.69 168.67 96.54C174.08 94.84 175.33 95.27 174.92 96.12C171.59 97.81 167.84 99.51 164.51 101.21C166.59 100.36 167.84 99.93 169.5 99.51C163.68 101.21 158.68 104.18 153.27 107.15C152.02 107.57 151.6 107.57 152.02 107.15ZM306.05 523.79C307.71 523.37 309.38 522.94 310.63 522.52C310.63 522.94 310.63 523.79 304.38 524.64C305.21 524.21 305.63 523.79 306.05 523.79ZM313.54 522.09C314.79 521.67 316.04 521.24 317.7 520.82C316.87 521.24 316.04 521.67 314.79 522.09C314.37 522.09 313.96 522.09 313.54 522.09ZM260.26 400.75C207.8 400.75 164.93 357.47 164.93 303.59C164.93 250.13 207.39 206.43 260.26 206.43C313.12 206.43 355.58 249.7 355.58 303.59C355.17 340.93 334.77 373.17 304.8 389.29C291.48 396.51 276.07 400.75 260.26 400.75ZM296.47 82.11C301.88 82.54 307.71 82.96 313.54 83.81C313.54 83.81 313.12 83.81 312.29 83.81C316.87 84.66 319.37 85.93 321.87 86.36C324.36 86.78 326.44 87.63 330.19 88.9C329.94 88.86 327.94 88.52 327.69 88.48C328.53 89.75 335.19 90.6 341.01 93.15C343.1 93.57 346.84 94.42 348.92 96.12C348.8 96.12 347.8 96.12 347.68 96.12C348.09 96.54 349.76 97.39 351.84 98.66C353.09 99.09 354.34 99.93 355.58 100.36C356.83 101.21 358.5 102.06 360.16 102.9C360.16 102.9 359.33 102.9 358.5 102.48C339.35 92.72 318.54 85.51 296.47 82.11ZM440.09 172.91C439.92 172.78 438.59 171.76 438.43 171.64C438.01 171.21 437.59 170.36 437.18 169.52C438.43 170.79 439.26 172.06 440.09 172.91Z" id="a2jKK2Wdos"></path><path d="M101.65 133.03C104.56 130.48 106.23 128.79 107.48 127.09C108.73 125.39 109.56 124.54 110.81 123.27C110.81 123.69 111.22 123.27 112.06 122.85C117.05 118.6 119.13 115.21 115.8 116.91C115.64 117.08 114.3 118.43 114.14 118.6C112.89 119.45 111.22 119.88 109.98 120.72C109.98 122 107.06 124.97 103.73 127.94C100.4 131.33 96.65 134.73 94.16 137.7C95.41 135.57 97.07 133.45 98.32 131.33C99.98 129.21 101.65 127.09 104.56 125.39C104.44 125.35 103.44 125.01 103.31 124.97C107.48 121.15 111.64 118.6 113.72 116.06C112.06 117.33 110.39 119.03 108.73 120.72C108.68 120.68 108.35 120.34 108.31 120.3C104.56 123.69 100.82 128.36 97.07 130.91C94.57 133.88 92.91 137.27 85.83 144.91C85.83 144.87 85.83 144.53 85.83 144.48C84.17 147.88 80.84 151.27 77.5 154.67C74.17 158.06 71.26 161.45 70.01 163.58C70.01 165.27 71.68 163.15 73.76 160.18C75.84 157.21 78.75 153.82 80 152.54C77.92 156.36 74.17 159.33 77.5 157.21C72.09 165.7 72.51 161.03 68.76 168.67C69.05 168.29 71.39 165.23 71.68 164.85C70.84 166.55 69.6 168.67 68.35 170.79C67.1 172.91 65.85 175.03 65.02 176.73C65.85 178 68.35 171.21 72.93 165.7C72.87 165.92 72.59 167.06 72.09 169.09L75.84 163.15C78.09 159.59 79.34 157.61 79.59 157.21C80.84 152.97 78.34 155.94 83.33 148.3C85.83 146.18 87.91 145.33 89.16 145.76C91.66 143.21 97.07 136.42 104.15 130.06C104.15 130.06 101.9 132.73 101.65 133.03Z" id="ex3fow9Eu"></path><path d="M466.32 215.34C465.48 213.64 464.65 211.94 465.07 213.64C466.32 215.34 467.98 220.01 468.4 219.16C467.98 219.58 467.15 217.04 466.32 215.34Z" id="a1NEmbG5k2"></path><path d="M465.48 215.76C466.23 218.05 466.65 219.33 466.73 219.58C466.73 220.01 467.15 219.58 467.57 220.85C467.29 220.18 466.59 218.48 465.48 215.76Z" id="b4dAMndRH"></path><path d="M407.62 121.15C407.62 120.72 404.71 119.03 403.04 117.75C404.29 118.6 405.54 120.3 407.62 121.15Z" id="b12hHcqBOA"></path><path d="M430.52 465.24L433.85 461L440.51 452.93C442.51 450.13 443.62 448.58 443.84 448.27C439.26 454.21 434.26 461 426.77 469.06C427.27 468.55 428.52 467.28 430.52 465.24Z" id="a2IbBORiBN"></path><path d="M446.75 444.45L449.67 440.21C451.41 437.41 452.39 435.85 452.58 435.54C450.5 438.51 448.42 441.9 446.34 444.87C446.39 444.82 446.53 444.68 446.75 444.45Z" id="btyCvdI7S"></path><path d="M281.49 72.78C286.9 72.78 291.06 73.2 295.22 73.2C299.39 73.63 303.13 73.63 308.96 74.9C305.21 73.63 302.3 73.2 299.8 72.78C296.89 72.36 294.81 72.36 292.31 72.36C287.73 72.36 283.57 72.36 277.32 71.08C278.16 71.42 280.65 72.44 281.49 72.78Z" id="a1CJBSHtA"></path><path d="M288.98 69.39C288.65 69.22 285.98 67.86 285.65 67.69C287.31 69.39 276.91 68.54 278.57 69.39C286.06 69.81 282.32 68.54 288.98 69.39Z" id="b3bImtQEei"></path><path d="M236.11 68.54L230.28 68.96L234.86 68.96L236.11 68.54Z" id="bSD9nf1GL"></path><path d="M196.56 76.6L201.56 74.9L201.14 74.9L195.73 76.6L196.56 76.6Z" id="b5APy5GyT"></path><path d="M93.32 134.3C90.41 137.7 88.33 139.39 86.66 141.51C84.58 143.64 82.92 146.18 79.59 150C85 144.48 86.25 142.79 86.66 143.64C92.08 138.12 90.41 138.12 93.32 134.3Z" id="daiQMbuya"></path><path d="M93.32 134.3C94.16 133.88 94.57 133.03 95.41 132.18C94.57 133.03 93.74 133.88 93.32 134.3Z" id="ehxNyJoGq"></path><path d="M71.68 159.76C72.51 158.48 74.17 156.79 75.01 155.94C74.59 155.09 70.84 161.03 71.68 159.76Z" id="f6sM91FNmE"></path><path d="M107.89 140.67C105.81 142.36 103.31 143.21 102.07 145.76C102.9 145.33 106.23 141.94 107.89 140.67Z" id="b4BuPS6vKZ"></path><path d="M63.35 179.27C64.18 177.15 65.02 174.18 60.85 180.97C61.69 179.7 63.35 178 63.35 179.27Z" id="d3hHapmnO8"></path><path d="M93.74 155.51C94.57 154.24 95.82 152.54 96.65 151.27C95.41 152.97 94.16 154.67 92.49 156.36C92.74 156.19 93.49 155.68 93.74 155.51Z" id="dYuV7X0io"></path><path d="M27.97 259.89C27.47 262.94 27.19 264.64 27.13 264.98C27.55 263.71 27.97 266.68 27.97 264.13C27.97 263.56 27.97 262.15 27.97 259.89Z" id="b3cdG4SdIe"></path><path d="M27.13 266.25L27.13 265.4L27.13 266.25Z" id="jekesGW3a"></path><path d="M26.72 293.83C26.72 293.79 26.72 293.45 26.72 293.41C26.72 290.86 27.13 288.74 27.13 286.62C27.13 289.16 26.72 291.71 26.72 293.83Z" id="a2wwPthLfT"></path><path d="M25.47 326.08C25.89 327.77 26.3 329.89 26.72 331.59C26.72 331.46 26.72 330.45 26.72 330.32C26.3 328.62 25.89 326.5 25.89 324.8C25.8 325.06 25.55 325.82 25.47 326.08Z" id="buu5JSYj2"></path><path d="M256.51 541.19C257.34 540.76 253.59 539.91 254.01 539.06C248.6 538.64 245.27 538.64 241.94 539.06C240.27 539.06 238.61 539.49 236.94 539.49C234.86 539.49 232.78 539.49 230.28 538.64C230.7 537.79 234.45 537.79 226.95 536.94C227.12 536.94 228.45 536.94 228.62 536.94C222.79 536.52 220.71 535.67 219.04 535.25C217.38 534.82 216.13 534.4 212.38 534.82C212.42 534.74 212.76 534.06 212.8 533.97C210.3 533.97 206.55 533.12 202.39 532.28C198.64 531.43 194.9 530.15 191.98 529.73C192.03 529.73 192.36 529.73 192.4 529.73C176.58 525.91 183.66 527.61 166.59 520.82C169.09 521.67 172 522.09 174.92 522.94C169.5 520.4 167.42 520.82 163.68 518.7C164.09 518.7 163.68 517.85 166.17 518.7C159.51 516.58 153.27 514.03 147.02 511.06C142.03 508.94 147.44 512.33 148.27 513.18C146.19 512.76 138.28 507.67 138.28 506.82C139.53 507.24 144.11 509.79 141.61 507.67C139.12 506.82 136.62 505.97 134.54 505.12C126.63 498.76 142.03 507.67 146.61 509.36C142.45 506.82 139.12 505.12 136.2 503.42C133.29 501.73 129.96 500.03 125.79 497.06C128.29 499.18 129.54 500.45 130.79 501.73C130.79 502.15 128.29 501.3 125.79 499.18C122.88 497.06 119.55 494.51 116.64 492.39C119.97 495.79 117.47 494.51 114.55 492.82C114.14 492.39 113.72 492.39 113.31 491.97C112.89 491.97 112.47 491.54 112.47 491.54C112.56 491.59 113.22 491.93 113.31 491.97C113.31 491.97 113.31 492.39 113.72 492.82C118.72 496.64 122.05 500.03 125.38 502.58C124.55 500.45 127.04 502.58 130.79 505.12C134.54 507.67 139.12 511.06 141.61 511.91C141.95 512.08 143.61 512.93 146.61 514.46C147.61 515.22 148.16 515.64 148.27 515.73C148.69 516.15 147.86 516.15 144.94 514.88C147.44 516.15 155.77 520.4 154.93 519.55C157.85 521.24 161.18 522.52 164.51 524.21C164.81 524.36 166.34 525.06 169.09 526.34C172.09 527.61 173.75 528.32 174.08 528.46C174.5 528.88 175.33 529.31 175.75 529.31C175.83 529.31 176.5 529.31 176.58 529.31C204.89 540.34 234.86 545.43 265.25 545C260.67 545 256.92 544.16 252.35 544.16C258.59 541.61 244.02 542.03 246.1 540.76C249.02 540.76 253.59 540.76 256.51 541.19Z" id="b2YWu57xOV"></path><path d="M122.46 494.09C123.71 494.94 124.55 495.79 125.79 496.64C124.96 495.79 123.71 494.94 122.46 494.09Z" id="b6XnfhDhd0"></path><path d="M264.42 543.73C266.5 543.73 268.58 543.73 270.66 543.31C268.58 543.31 266.5 543.31 264.42 543.73Z" id="b7HqbH0uY"></path><path d="M99.98 477.97C102.48 480.94 97.49 476.69 96.65 476.27C96.99 476.58 98.65 478.14 101.65 480.94C104.9 483.74 106.7 485.29 107.06 485.6C106.65 485.6 108.31 486.03 108.31 485.6C105.4 483.06 102.48 480.51 99.98 477.97Z" id="bSjze2A4o"></path><path d="M112.47 490.7C110.39 489 108.73 487.3 106.65 485.6C106.65 486.03 107.06 486.88 109.14 489C109.56 489 110.81 489.85 112.47 490.7Z" id="eUnq3Ggd"></path><path d="M318.95 531.43C318.12 531.85 317.29 532.28 316.04 532.28C316.87 532.28 317.7 531.85 318.95 531.43Z" id="gqn5zyvEo"></path><path d="M325.61 531C325.61 530.58 325.61 530.58 324.36 531C324 531.17 322.2 532.02 318.95 533.55C322.2 532.78 324 532.36 324.36 532.28C321.87 533.55 315.62 535.67 309.79 536.94C303.97 538.22 298.14 539.06 296.47 538.64C301.88 537.37 303.13 536.94 304.8 536.09C306.46 535.25 308.96 534.82 316.45 533.55C315.62 533.55 312.71 533.55 316.04 532.28C298.97 536.94 283.15 538.64 264.83 540.34C271.91 540.76 269.83 541.19 266.08 541.61C262.34 542.03 257.76 542.46 259.84 543.31C260.37 543.25 263 542.97 267.75 542.46C267.25 542.71 266.97 542.85 266.92 542.88C270.25 542.88 273.58 542.46 276.49 542.03C274.41 541.61 273.16 541.61 273.16 540.76C286.06 539.91 277.32 541.61 286.9 541.19C291.89 540.76 296.47 539.91 301.05 539.06C300.93 539.11 299.93 539.45 299.8 539.49C301.05 539.06 301.47 539.06 301.88 539.06C317.7 535.67 333.52 531 348.51 524.64C357.25 520.4 344.35 525.06 349.76 521.67C341.01 525.49 327.28 529.31 325.61 531Z" id="b1qFamfrlZ"></path><path d="M423.86 470.33C424.27 470.33 424.27 469.91 423.86 470.33C423.86 470.33 423.86 470.33 423.86 470.33Z" id="b207he5aAN"></path><path d="M419.69 474.57C418.03 477.12 415.95 479.24 414.28 481.36C414.74 480.85 418.4 476.78 418.86 476.27C420.94 475 422.61 473.3 423.86 471.6C423.86 471.48 423.86 470.46 423.86 470.33C423.44 471.6 420.53 475.42 418.86 476.27C419.28 475.85 419.28 475 419.69 474.57Z" id="d7p20dIBuH"></path><path d="M407.2 488.57C412.2 483.91 410.95 483.06 408.04 485.18C412.62 480.51 411.37 483.91 413.86 480.09C413.03 479.66 407.62 485.18 406.37 486.45C406.54 486.88 407.04 488.15 407.2 488.57Z" id="a1rLEzfiQc"></path><path d="M363.49 516.58C364.49 515.81 365.05 515.39 365.16 515.3C363.91 516.15 362.25 516.58 360.58 517.43C360.97 517.31 361.94 517.03 363.49 516.58Z" id="b2dPuouz52"></path><path d="M365.16 514.88C367.66 513.61 369.04 512.9 369.32 512.76C368.91 513.18 368.49 512.76 367.66 512.76C367.32 513.04 366.49 513.75 365.16 514.88Z" id="c3htzZxuZ"></path><path d="M380.15 507.24C382.23 505.97 384.31 505.12 386.39 503.42C384.31 504.7 382.23 505.97 380.15 507.24Z" id="d2eKHuW0Qp"></path><path d="M380.56 507.24C378.9 508.09 377.23 508.94 375.98 509.79C376.9 509.28 380.1 507.5 380.56 507.24Z" id="fQ84a5VUU"></path><path d="M375.98 509.79C372.24 511.82 370.15 512.96 369.74 513.18C370.57 513.61 371.82 514.03 377.65 510.21C377.43 510.16 376.87 510.01 375.98 509.79Z" id="a19ga0fYSK"></path><path d="M397.63 496.21C397.63 496.64 400.13 494.09 401.79 492.82C400.54 493.67 398.88 494.94 397.63 496.21Z" id="euGBWUIw6"></path><path d="M477.56 385.05C477.97 384.2 478.39 382.93 478.81 382.08C478.39 382.93 477.97 383.78 477.56 385.05Z" id="f9VUTkyxu"></path><path d="M305.63 390.57C292.31 397.78 276.91 402.02 261.09 402.02C208.64 402.02 165.76 358.74 165.76 304.86C165.76 251.4 208.22 207.7 261.09 207.7C313.54 207.7 356 251.4 356 304.86C356 341.77 335.6 374.44 305.63 390.57Z" id="d2IIjVHs0n"></path><path d="M482.14 386.32C469.65 393.11 455.08 396.93 439.67 396.93C389.72 396.93 348.92 355.77 348.92 304.44C348.92 253.52 389.3 211.94 439.67 211.94C489.21 212.37 530.01 253.95 530.01 304.86C530.01 340.08 510.44 371.05 482.14 386.32Z" id="brkbzEEJR"></path><path d="M402.63 429.6C420.11 416.02 436.76 423.24 439.67 445.72C442.17 468.21 446.75 504.7 449.25 527.18C451.75 549.67 437.59 560.7 417.2 551.79C396.8 542.88 363.49 528.46 343.51 519.55C322.7 510.21 320.62 491.97 338.52 478.82C356 465.24 385.14 443.18 402.63 429.6Z" id="fwlf7xtoX"></path><path d="M436.34 308.26C435.1 310.8 433.43 312.92 431.35 314.62C429.27 316.32 426.77 317.59 423.44 318.44C420.53 319.29 417.2 319.71 413.86 319.71C408.87 319.71 404.29 319.29 400.54 317.59C396.8 316.32 393.05 314.2 390.14 310.8C390.97 309.95 397.63 303.16 398.46 302.32C400.54 304.44 403.04 305.71 405.54 306.56C408.04 307.41 410.95 307.83 414.28 307.83C418.03 307.83 420.94 306.98 423.02 305.71C425.1 304.44 425.94 302.32 425.94 299.77C425.94 297.22 425.1 295.53 423.86 294.25C423.02 293.83 422.61 292.98 421.77 292.98C420.94 292.56 419.69 292.56 418.03 292.13C417.24 292.01 410.91 290.99 410.12 290.86C404.71 290.01 400.13 288.31 397.63 285.34C394.72 281.95 393.05 277.71 393.05 272.19C393.05 269.22 393.47 266.68 394.72 264.13C395.55 261.58 397.21 259.46 399.29 257.77C401.38 256.07 403.46 254.8 406.37 253.52C409.29 252.67 412.2 251.83 415.95 251.83C420.53 251.83 424.27 252.25 427.6 253.52C430.93 254.8 434.26 256.49 436.76 259.46C435.97 260.27 429.64 266.72 428.85 267.52C426.77 265.4 424.69 264.13 422.19 263.71C419.69 263.28 417.61 262.86 415.53 262.86C412.2 262.86 409.7 263.71 408.04 265.4C406.37 267.1 405.54 269.22 405.54 271.34C405.54 272.19 405.54 273.04 405.96 273.89C406.37 274.74 406.79 275.59 407.62 276.01C408.45 276.43 409.29 277.28 410.12 277.71C410.95 278.13 412.2 278.56 413.86 278.56C414.66 278.68 420.98 279.7 421.77 279.83C424.69 280.25 427.19 281.1 429.27 281.95C431.35 282.8 433.01 284.07 434.26 285.34C435.93 287.04 437.18 289.16 438.01 291.28C438.01 294.25 438.43 296.8 438.43 299.77C438.43 303.16 437.59 305.71 436.34 308.26Z" id="a3jwbWGU8r"></path><path d="M492.13 294.25C492.13 294.25 491.71 298.92 491.29 301.47C490.88 303.59 490.46 305.71 489.21 307.41C488.38 309.1 487.13 311.23 485.47 312.92C482.97 315.47 480.47 317.17 477.56 318.44C474.64 319.71 471.31 320.14 467.57 320.14C463.82 320.14 460.49 319.71 457.58 318.44C454.66 317.17 452.16 315.47 449.67 312.92C448 311.23 446.75 309.53 445.92 307.41C445.09 305.71 444.25 303.59 443.84 301.47C443.42 299.35 443.42 296.8 443.01 294.25C443.01 291.71 443.01 289.16 443.01 286.19C443.01 283.22 443.01 280.68 443.01 278.13C443.01 275.59 443.42 273.46 443.84 270.92C444.25 268.8 444.67 266.68 445.92 264.98C446.75 263.28 448 261.16 449.67 259.46C452.16 256.92 454.66 255.22 457.58 253.95C460.49 252.67 463.82 252.25 467.57 252.25C471.31 252.25 474.64 252.67 477.56 253.95C480.47 255.22 482.97 256.92 485.47 259.46C487.13 261.16 488.38 262.86 489.21 264.98C490.05 266.68 490.88 268.8 491.29 270.92C491.71 273.04 491.71 275.59 492.13 278.13C491.71 280.68 492.13 283.22 492.13 286.19C492.13 287.81 492.13 293.45 492.13 294.25ZM479.22 278.13C479.22 276.01 478.81 274.31 478.81 273.04C478.39 271.77 478.39 270.49 477.97 269.65C477.56 268.8 477.14 267.95 476.31 267.52C475.48 266.68 474.23 265.4 472.98 264.98C471.73 264.13 470.06 264.13 468.4 264.13C466.73 264.13 465.07 264.55 463.4 264.98C462.15 265.83 460.91 266.68 460.07 267.52C459.66 268.37 458.82 268.8 458.41 269.65C457.99 270.49 457.58 271.77 457.58 273.04C457.16 274.31 457.16 276.01 457.16 278.13C457.16 280.25 457.16 282.8 457.16 286.19C457.16 287 457.16 293.45 457.16 294.25C457.16 294.25 457.58 298.07 457.58 299.35C457.99 300.62 457.99 301.89 458.41 302.74C458.82 303.59 459.24 304.44 460.07 304.86C460.91 305.71 462.15 306.98 463.4 307.41C464.65 308.26 466.32 308.26 468.4 308.26C470.06 308.26 471.73 307.83 472.98 307.41C474.23 306.56 475.48 305.71 476.31 304.86C476.72 304.01 477.56 303.59 477.97 302.74C478.39 301.89 478.81 300.62 478.81 299.35C479.22 298.07 479.22 296.38 479.22 294.25C479.22 292.13 479.22 289.16 479.22 286.19C479.22 283.22 479.22 280.25 479.22 278.13Z" id="b7MIOFmS3"></path><path d="M511.69 264.55L511.69 281.1L537.5 281.1L537.5 292.56L511.69 292.56L511.69 319.71L499.2 319.71L499.2 252.67L542.08 252.67L542.08 264.13L511.69 264.55Z" id="o269skPxWE"></path><path d="M548.74 319.29L548.74 252.67L561.23 252.67L561.23 319.29L548.74 319.29Z" id="arZem3IeS"></path><path d="M610.77 319.29L607.02 307.41L583.71 307.41L579.96 319.29L566.64 319.29L590.37 252.67L600.36 252.67L624.09 319.29L610.77 319.29ZM595.37 272.62L587.04 296.8L603.28 296.8L595.37 272.62Z" id="b3BevJRQqR"></path><path d="M405.96 334.56L405.96 364.68L398.88 364.68L398.88 334.56L389.72 334.56L389.72 328.2L415.11 328.2L415.11 334.56L405.96 334.56Z" id="a1ikZXKpZ9"></path><path d="M420.94 364.68L420.94 328.62L444.25 328.62L444.25 334.99L427.6 334.99L427.6 343.47L441.76 343.47L441.76 349.83L427.6 349.83L427.6 358.32L444.25 358.32L444.25 364.68L420.94 364.68Z" id="apSnBFH0B"></path><path d="M475.89 353.23C475.48 354.93 475.06 356.62 474.23 358.32C473.39 359.59 472.56 360.87 471.31 361.71C470.06 362.56 468.81 363.41 467.57 363.84C465.9 364.26 464.65 364.68 462.99 364.68C459.24 364.68 455.91 363.41 453.41 360.87C451.75 359.17 450.91 357.47 450.5 355.35C450.08 353.23 450.08 350.26 450.08 346.44C450.08 342.62 450.08 339.65 450.5 337.53C450.91 335.41 451.75 333.71 453.41 332.02C455.91 329.47 459.24 328.2 462.99 328.2C466.32 328.2 469.23 329.05 471.73 331.17C474.23 333.29 475.48 335.83 476.31 339.65C475.6 339.65 469.94 339.65 469.23 339.65C468.81 337.96 468.4 336.68 467.15 335.83C466.32 334.99 464.65 334.56 462.99 334.56C460.91 334.56 459.66 334.99 458.41 336.26C457.99 336.68 457.58 337.11 457.58 337.53C457.16 337.96 457.16 338.38 457.16 339.23C457.16 340.08 457.16 340.93 456.74 342.2C456.74 342.62 456.74 346.02 456.74 346.44C456.74 346.44 456.74 349.83 456.74 350.68C456.74 351.96 456.74 352.8 457.16 353.65C457.16 354.5 457.58 354.93 457.58 355.35C457.99 355.77 457.99 356.2 458.41 356.62C459.24 357.9 460.91 358.32 462.99 358.32C464.65 358.32 465.9 357.9 467.15 357.05C467.98 356.2 468.81 354.93 469.23 353.23C470.56 353.23 474.56 353.23 475.89 353.23Z" id="e14I28bfog"></path><path d="M500.87 364.68L500.87 349.41L488.8 349.41L488.8 364.68L481.72 364.68L481.72 328.62L488.8 328.62L488.8 343.47L500.87 343.47L500.87 328.62L507.95 328.62L507.95 364.68L500.87 364.68Z" id="cj4tAeSjT"></path><path d="M525.43 343.47C525.01 344.74 524.18 346.02 522.93 347.29C522.1 348.14 520.85 348.99 519.19 349.83C517.94 350.26 516.27 350.68 514.19 350.68C513.75 350.68 511.53 350.68 507.53 350.68L507.53 364.26L500.45 364.26L500.45 328.2C508.7 328.2 513.27 328.2 514.19 328.2C515.86 328.2 517.52 328.62 519.19 329.05C520.43 329.47 521.68 330.32 522.93 331.59C523.76 332.44 524.6 333.71 525.43 335.41C525.85 336.26 526.26 337.53 526.26 339.23C526.26 340.93 525.85 342.2 525.43 343.47ZM517.94 335.41C517.1 334.56 515.86 334.14 514.19 334.14C513.75 334.14 511.53 334.14 507.53 334.14L507.53 343.9C511.53 343.9 513.75 343.9 514.19 343.9C515.86 343.9 517.1 343.47 517.94 342.62C518.77 341.77 519.19 340.5 519.19 339.23C519.19 337.53 518.77 336.68 517.94 335.41Z" id="a3DL8m1io1"></path><path d="M547.91 363.84L545.83 357.47L533.34 357.47L531.26 363.84L524.18 363.84L537.09 327.77L542.5 327.77L555.4 363.84L547.91 363.84ZM539.58 338.38L535 351.53L543.75 351.53L539.58 338.38Z" id="d2d4zeedQg"></path><path d="M578.71 363.84L571.64 349.41L566.64 349.41L566.64 363.84L559.57 363.84L559.57 327.77C567.81 327.77 572.39 327.77 573.3 327.77C574.97 327.77 576.63 328.2 578.3 328.62C579.55 329.05 580.8 329.89 582.04 331.17C582.88 332.02 583.71 333.29 584.13 334.56C584.54 335.83 584.96 337.53 584.96 338.8C584.96 340.08 584.96 341.35 584.54 342.2C584.13 343.05 583.71 344.32 583.29 344.74C582.88 345.59 582.04 346.02 581.21 346.87C580.38 347.29 579.55 347.71 578.71 348.14C579.24 349.18 581.88 354.42 586.62 363.84L578.71 363.84ZM577.05 335.41C576.22 334.56 574.97 334.14 573.3 334.14C572.86 334.14 570.64 334.14 566.64 334.14L566.64 343.9C570.64 343.9 572.86 343.9 573.3 343.9C574.97 343.9 576.22 343.47 577.05 342.62C577.88 341.35 578.3 340.08 578.3 338.8C578.3 337.53 577.88 336.26 577.05 335.41Z" id="cWLY87165"></path><path d="M611.19 363.84L602.03 347.29L597.45 352.8L597.45 363.84L590.79 363.84L590.79 327.77L597.86 327.77L597.86 343.47L610.35 327.77L618.68 327.77L607.02 342.2L619.51 363.84L611.19 363.84Z" id="b2a3Pf2BgZ"></path></defs><g><g><use xlink:href="#bqS70Etmu" opacity="1" fill="#000000" fill-opacity="0"></use><g><use xlink:href="#bqS70Etmu" opacity="1" fill-opacity="0" stroke="#ffffff" stroke-width="8" stroke-opacity="1"></use></g></g><g><use xlink:href="#c33wIiZMS" opacity="1" fill="#ed2121" fill-opacity="1"></use><g><use xlink:href="#c33wIiZMS" opacity="1" fill-opacity="0" stroke="#ffffff" stroke-width="7" stroke-opacity="1"></use></g></g><g><use xlink:href="#c3szs92ln" opacity="1" fill="#60b8d7" fill-opacity="1"></use><g><use xlink:href="#c3szs92ln" opacity="1" fill-opacity="0" stroke="#000000" stroke-width="1" stroke-opacity="0"></use></g></g><g><use xlink:href="#e5zOp9nx8y" opacity="1" fill="#60b8d7" fill-opacity="1"></use><g><use xlink:href="#e5zOp9nx8y" opacity="1" fill-opacity="0" stroke="#000000" stroke-width="1" stroke-opacity="0"></use></g></g><g><use xlink:href="#b2Kudtedk3" opacity="1" fill="#60b8d7" fill-opacity="1"></use><g><use xlink:href="#b2Kudtedk3" opacity="1" fill-opacity="0" stroke="#000000" stroke-width="1" stroke-opacity="0"></use></g></g><g><use xlink:href="#g16ix6wdbG" opacity="1" fill="#60b8d7" fill-opacity="1"></use><g><use xlink:href="#g16ix6wdbG" opacity="1" fill-opacity="0" stroke="#000000" stroke-width="1" stroke-opacity="0"></use></g></g><g><use xlink:href="#aSliUlkHp" opacity="1" fill="#60b8d7" fill-opacity="1"></use><g><use xlink:href="#aSliUlkHp" opacity="1" fill-opacity="0" stroke="#000000" stroke-width="1" stroke-opacity="0"></use></g></g><g><use xlink:href="#dmkdlSI5W" opacity="1" fill="#60b8d7" fill-opacity="1"></use><g><use xlink:href="#dmkdlSI5W" opacity="1" fill-opacity="0" stroke="#000000" stroke-width="1" stroke-opacity="0"></use></g></g><g><use xlink:href="#c17pkthStX" opacity="1" fill="#60b8d7" fill-opacity="1"></use><g><use xlink:href="#c17pkthStX" opacity="1" fill-opacity="0" stroke="#000000" stroke-width="1" stroke-opacity="0"></use></g></g><g><use xlink:href="#d7qGAy41Zl" opacity="1" fill="#60b8d7" fill-opacity="1"></use><g><use xlink:href="#d7qGAy41Zl" opacity="1" fill-opacity="0" stroke="#000000" stroke-width="1" stroke-opacity="0"></use></g></g><g><use xlink:href="#a1cFvyiIWJ" opacity="1" fill="#60b8d7" fill-opacity="1"></use><g><use xlink:href="#a1cFvyiIWJ" opacity="1" fill-opacity="0" stroke="#000000" stroke-width="1" stroke-opacity="0"></use></g></g><g><use xlink:href="#gfkJdkyXd" opacity="1" fill="#60b8d7" fill-opacity="1"></use><g><use xlink:href="#gfkJdkyXd" opacity="1" fill-opacity="0" stroke="#000000" stroke-width="1" stroke-opacity="0"></use></g></g><g><use xlink:href="#a1kDkQFIj" opacity="1" fill="#60b8d7" fill-opacity="1"></use><g><use xlink:href="#a1kDkQFIj" opacity="1" fill-opacity="0" stroke="#000000" stroke-width="1" stroke-opacity="0"></use></g></g><g><use xlink:href="#coslNnMKg" opacity="1" fill="#60b8d7" fill-opacity="1"></use><g><use xlink:href="#coslNnMKg" opacity="1" fill-opacity="0" stroke="#000000" stroke-width="1" stroke-opacity="0"></use></g></g><g><use xlink:href="#g7zQDZ1e3M" opacity="1" fill="#60b8d7" fill-opacity="1"></use><g><use xlink:href="#g7zQDZ1e3M" opacity="1" fill-opacity="0" stroke="#000000" stroke-width="1" stroke-opacity="0"></use></g></g><g><use xlink:href="#edW7sjXeA" opacity="1" fill="#60b8d7" fill-opacity="1"></use><g><use xlink:href="#edW7sjXeA" opacity="1" fill-opacity="0" stroke="#000000" stroke-width="1" stroke-opacity="0"></use></g></g><g><use xlink:href="#bIPJpvEPF" opacity="1" fill="#60b8d7" fill-opacity="1"></use><g><use xlink:href="#bIPJpvEPF" opacity="1" fill-opacity="0" stroke="#000000" stroke-width="1" stroke-opacity="0"></use></g></g><g><use xlink:href="#a1Ma7UoZ4F" opacity="1" fill="#60b8d7" fill-opacity="1"></use><g><use xlink:href="#a1Ma7UoZ4F" opacity="1" fill-opacity="0" stroke="#000000" stroke-width="1" stroke-opacity="0"></use></g></g><g><use xlink:href="#c3VbMVKHbi" opacity="1" fill="#60b8d7" fill-opacity="1"></use><g><use xlink:href="#c3VbMVKHbi" opacity="1" fill-opacity="0" stroke="#000000" stroke-width="1" stroke-opacity="0"></use></g></g><g><use xlink:href="#a1TstF4lVm" opacity="1" fill="#60b8d7" fill-opacity="1"></use><g><use xlink:href="#a1TstF4lVm" opacity="1" fill-opacity="0" stroke="#000000" stroke-width="1" stroke-opacity="0"></use></g></g><g><use xlink:href="#d1Q2sAn3ve" opacity="1" fill="#60b8d7" fill-opacity="1"></use><g><use xlink:href="#d1Q2sAn3ve" opacity="1" fill-opacity="0" stroke="#000000" stroke-width="1" stroke-opacity="0"></use></g></g><g><use xlink:href="#g18igGqHDS" opacity="1" fill="#60b8d7" fill-opacity="1"></use><g><use xlink:href="#g18igGqHDS" opacity="1" fill-opacity="0" stroke="#000000" stroke-width="1" stroke-opacity="0"></use></g></g><g><use xlink:href="#aaAXZkJFWV" opacity="1" fill="#60b8d7" fill-opacity="1"></use><g><use xlink:href="#aaAXZkJFWV" opacity="1" fill-opacity="0" stroke="#000000" stroke-width="1" stroke-opacity="0"></use></g></g><g><use xlink:href="#b4ds5qZCqe" opacity="1" fill="#60b8d7" fill-opacity="1"></use><g><use xlink:href="#b4ds5qZCqe" opacity="1" fill-opacity="0" stroke="#000000" stroke-width="1" stroke-opacity="0"></use></g></g><g><use xlink:href="#a2jKK2Wdos" opacity="1" fill="#60b8d7" fill-opacity="1"></use><g><use xlink:href="#a2jKK2Wdos" opacity="1" fill-opacity="0" stroke="#000000" stroke-width="1" stroke-opacity="0"></use></g></g><g><use xlink:href="#ex3fow9Eu" opacity="1" fill="#60b8d7" fill-opacity="1"></use><g><use xlink:href="#ex3fow9Eu" opacity="1" fill-opacity="0" stroke="#000000" stroke-width="1" stroke-opacity="0"></use></g></g><g><use xlink:href="#a1NEmbG5k2" opacity="1" fill="#60b8d7" fill-opacity="1"></use><g><use xlink:href="#a1NEmbG5k2" opacity="1" fill-opacity="0" stroke="#000000" stroke-width="1" stroke-opacity="0"></use></g></g><g><use xlink:href="#b4dAMndRH" opacity="1" fill="#60b8d7" fill-opacity="1"></use><g><use xlink:href="#b4dAMndRH" opacity="1" fill-opacity="0" stroke="#000000" stroke-width="1" stroke-opacity="0"></use></g></g><g><use xlink:href="#b12hHcqBOA" opacity="1" fill="#60b8d7" fill-opacity="1"></use><g><use xlink:href="#b12hHcqBOA" opacity="1" fill-opacity="0" stroke="#000000" stroke-width="1" stroke-opacity="0"></use></g></g><g><use xlink:href="#a2IbBORiBN" opacity="1" fill="#60b8d7" fill-opacity="1"></use><g><use xlink:href="#a2IbBORiBN" opacity="1" fill-opacity="0" stroke="#000000" stroke-width="1" stroke-opacity="0"></use></g></g><g><use xlink:href="#btyCvdI7S" opacity="1" fill="#60b8d7" fill-opacity="1"></use><g><use xlink:href="#btyCvdI7S" opacity="1" fill-opacity="0" stroke="#000000" stroke-width="1" stroke-opacity="0"></use></g></g><g><use xlink:href="#a1CJBSHtA" opacity="1" fill="#60b8d7" fill-opacity="1"></use><g><use xlink:href="#a1CJBSHtA" opacity="1" fill-opacity="0" stroke="#000000" stroke-width="1" stroke-opacity="0"></use></g></g><g><use xlink:href="#b3bImtQEei" opacity="1" fill="#60b8d7" fill-opacity="1"></use><g><use xlink:href="#b3bImtQEei" opacity="1" fill-opacity="0" stroke="#000000" stroke-width="1" stroke-opacity="0"></use></g></g><g><use xlink:href="#bSD9nf1GL" opacity="1" fill="#60b8d7" fill-opacity="1"></use><g><use xlink:href="#bSD9nf1GL" opacity="1" fill-opacity="0" stroke="#000000" stroke-width="1" stroke-opacity="0"></use></g></g><g><use xlink:href="#b5APy5GyT" opacity="1" fill="#60b8d7" fill-opacity="1"></use><g><use xlink:href="#b5APy5GyT" opacity="1" fill-opacity="0" stroke="#000000" stroke-width="1" stroke-opacity="0"></use></g></g><g><use xlink:href="#daiQMbuya" opacity="1" fill="#60b8d7" fill-opacity="1"></use><g><use xlink:href="#daiQMbuya" opacity="1" fill-opacity="0" stroke="#000000" stroke-width="1" stroke-opacity="0"></use></g></g><g><use xlink:href="#ehxNyJoGq" opacity="1" fill="#60b8d7" fill-opacity="1"></use><g><use xlink:href="#ehxNyJoGq" opacity="1" fill-opacity="0" stroke="#000000" stroke-width="1" stroke-opacity="0"></use></g></g><g><use xlink:href="#f6sM91FNmE" opacity="1" fill="#60b8d7" fill-opacity="1"></use><g><use xlink:href="#f6sM91FNmE" opacity="1" fill-opacity="0" stroke="#000000" stroke-width="1" stroke-opacity="0"></use></g></g><g><use xlink:href="#b4BuPS6vKZ" opacity="1" fill="#60b8d7" fill-opacity="1"></use><g><use xlink:href="#b4BuPS6vKZ" opacity="1" fill-opacity="0" stroke="#000000" stroke-width="1" stroke-opacity="0"></use></g></g><g><use xlink:href="#d3hHapmnO8" opacity="1" fill="#60b8d7" fill-opacity="1"></use><g><use xlink:href="#d3hHapmnO8" opacity="1" fill-opacity="0" stroke="#000000" stroke-width="1" stroke-opacity="0"></use></g></g><g><use xlink:href="#dYuV7X0io" opacity="1" fill="#60b8d7" fill-opacity="1"></use><g><use xlink:href="#dYuV7X0io" opacity="1" fill-opacity="0" stroke="#000000" stroke-width="1" stroke-opacity="0"></use></g></g><g><use xlink:href="#b3cdG4SdIe" opacity="1" fill="#60b8d7" fill-opacity="1"></use><g><use xlink:href="#b3cdG4SdIe" opacity="1" fill-opacity="0" stroke="#000000" stroke-width="1" stroke-opacity="0"></use></g></g><g><use xlink:href="#jekesGW3a" opacity="1" fill="#60b8d7" fill-opacity="1"></use><g><use xlink:href="#jekesGW3a" opacity="1" fill-opacity="0" stroke="#000000" stroke-width="1" stroke-opacity="0"></use></g></g><g><use xlink:href="#a2wwPthLfT" opacity="1" fill="#60b8d7" fill-opacity="1"></use><g><use xlink:href="#a2wwPthLfT" opacity="1" fill-opacity="0" stroke="#000000" stroke-width="1" stroke-opacity="0"></use></g></g><g><use xlink:href="#buu5JSYj2" opacity="1" fill="#60b8d7" fill-opacity="1"></use><g><use xlink:href="#buu5JSYj2" opacity="1" fill-opacity="0" stroke="#000000" stroke-width="1" stroke-opacity="0"></use></g></g><g><use xlink:href="#b2YWu57xOV" opacity="1" fill="#60b8d7" fill-opacity="1"></use><g><use xlink:href="#b2YWu57xOV" opacity="1" fill-opacity="0" stroke="#000000" stroke-width="1" stroke-opacity="0"></use></g></g><g><use xlink:href="#b6XnfhDhd0" opacity="1" fill="#60b8d7" fill-opacity="1"></use><g><use xlink:href="#b6XnfhDhd0" opacity="1" fill-opacity="0" stroke="#000000" stroke-width="1" stroke-opacity="0"></use></g></g><g><use xlink:href="#b7HqbH0uY" opacity="1" fill="#60b8d7" fill-opacity="1"></use><g><use xlink:href="#b7HqbH0uY" opacity="1" fill-opacity="0" stroke="#000000" stroke-width="1" stroke-opacity="0"></use></g></g><g><use xlink:href="#bSjze2A4o" opacity="1" fill="#60b8d7" fill-opacity="1"></use><g><use xlink:href="#bSjze2A4o" opacity="1" fill-opacity="0" stroke="#000000" stroke-width="1" stroke-opacity="0"></use></g></g><g><use xlink:href="#eUnq3Ggd" opacity="1" fill="#60b8d7" fill-opacity="1"></use><g><use xlink:href="#eUnq3Ggd" opacity="1" fill-opacity="0" stroke="#000000" stroke-width="1" stroke-opacity="0"></use></g></g><g><use xlink:href="#gqn5zyvEo" opacity="1" fill="#60b8d7" fill-opacity="1"></use><g><use xlink:href="#gqn5zyvEo" opacity="1" fill-opacity="0" stroke="#000000" stroke-width="1" stroke-opacity="0"></use></g></g><g><use xlink:href="#b1qFamfrlZ" opacity="1" fill="#60b8d7" fill-opacity="1"></use><g><use xlink:href="#b1qFamfrlZ" opacity="1" fill-opacity="0" stroke="#000000" stroke-width="1" stroke-opacity="0"></use></g></g><g><use xlink:href="#b207he5aAN" opacity="1" fill="#60b8d7" fill-opacity="1"></use><g><use xlink:href="#b207he5aAN" opacity="1" fill-opacity="0" stroke="#000000" stroke-width="1" stroke-opacity="0"></use></g></g><g><use xlink:href="#d7p20dIBuH" opacity="1" fill="#60b8d7" fill-opacity="1"></use><g><use xlink:href="#d7p20dIBuH" opacity="1" fill-opacity="0" stroke="#000000" stroke-width="1" stroke-opacity="0"></use></g></g><g><use xlink:href="#a1rLEzfiQc" opacity="1" fill="#60b8d7" fill-opacity="1"></use><g><use xlink:href="#a1rLEzfiQc" opacity="1" fill-opacity="0" stroke="#000000" stroke-width="1" stroke-opacity="0"></use></g></g><g><use xlink:href="#b2dPuouz52" opacity="1" fill="#60b8d7" fill-opacity="1"></use><g><use xlink:href="#b2dPuouz52" opacity="1" fill-opacity="0" stroke="#000000" stroke-width="1" stroke-opacity="0"></use></g></g><g><use xlink:href="#c3htzZxuZ" opacity="1" fill="#60b8d7" fill-opacity="1"></use><g><use xlink:href="#c3htzZxuZ" opacity="1" fill-opacity="0" stroke="#000000" stroke-width="1" stroke-opacity="0"></use></g></g><g><use xlink:href="#d2eKHuW0Qp" opacity="1" fill="#60b8d7" fill-opacity="1"></use><g><use xlink:href="#d2eKHuW0Qp" opacity="1" fill-opacity="0" stroke="#000000" stroke-width="1" stroke-opacity="0"></use></g></g><g><use xlink:href="#fQ84a5VUU" opacity="1" fill="#60b8d7" fill-opacity="1"></use><g><use xlink:href="#fQ84a5VUU" opacity="1" fill-opacity="0" stroke="#000000" stroke-width="1" stroke-opacity="0"></use></g></g><g><use xlink:href="#a19ga0fYSK" opacity="1" fill="#60b8d7" fill-opacity="1"></use><g><use xlink:href="#a19ga0fYSK" opacity="1" fill-opacity="0" stroke="#000000" stroke-width="1" stroke-opacity="0"></use></g></g><g><use xlink:href="#euGBWUIw6" opacity="1" fill="#60b8d7" fill-opacity="1"></use><g><use xlink:href="#euGBWUIw6" opacity="1" fill-opacity="0" stroke="#000000" stroke-width="1" stroke-opacity="0"></use></g></g><g><use xlink:href="#f9VUTkyxu" opacity="1" fill="#60b8d7" fill-opacity="1"></use><g><use xlink:href="#f9VUTkyxu" opacity="1" fill-opacity="0" stroke="#000000" stroke-width="1" stroke-opacity="0"></use></g></g><g><use xlink:href="#d2IIjVHs0n" opacity="1" fill="#ffffff" fill-opacity="1"></use><g><use xlink:href="#d2IIjVHs0n" opacity="1" fill-opacity="0" stroke="#000000" stroke-width="1" stroke-opacity="0"></use></g></g><g><use xlink:href="#brkbzEEJR" opacity="1" fill="#ffffff" fill-opacity="1"></use><g><use xlink:href="#brkbzEEJR" opacity="1" fill-opacity="0" stroke="#000000" stroke-width="1" stroke-opacity="0"></use></g></g><g><use xlink:href="#fwlf7xtoX" opacity="1" fill="#5fbada" fill-opacity="1"></use><g><use xlink:href="#fwlf7xtoX" opacity="1" fill-opacity="0" stroke="#000000" stroke-width="1" stroke-opacity="0"></use></g></g><g><use xlink:href="#a3jwbWGU8r" opacity="1" fill="#58595b" fill-opacity="1"></use><g><use xlink:href="#a3jwbWGU8r" opacity="1" fill-opacity="0" stroke="#000000" stroke-width="1" stroke-opacity="0"></use></g></g><g><use xlink:href="#b7MIOFmS3" opacity="1" fill="#58595b" fill-opacity="1"></use><g><use xlink:href="#b7MIOFmS3" opacity="1" fill-opacity="0" stroke="#000000" stroke-width="1" stroke-opacity="0"></use></g></g><g><use xlink:href="#o269skPxWE" opacity="1" fill="#58595b" fill-opacity="1"></use><g><use xlink:href="#o269skPxWE" opacity="1" fill-opacity="0" stroke="#000000" stroke-width="1" stroke-opacity="0"></use></g></g><g><use xlink:href="#arZem3IeS" opacity="1" fill="#58595b" fill-opacity="1"></use><g><use xlink:href="#arZem3IeS" opacity="1" fill-opacity="0" stroke="#000000" stroke-width="1" stroke-opacity="0"></use></g></g><g><use xlink:href="#b3BevJRQqR" opacity="1" fill="#58595b" fill-opacity="1"></use><g><use xlink:href="#b3BevJRQqR" opacity="1" fill-opacity="0" stroke="#000000" stroke-width="1" stroke-opacity="0"></use></g></g><g><use xlink:href="#a1ikZXKpZ9" opacity="1" fill="#58595b" fill-opacity="1"></use><g><use xlink:href="#a1ikZXKpZ9" opacity="1" fill-opacity="0" stroke="#000000" stroke-width="1" stroke-opacity="0"></use></g></g><g><use xlink:href="#apSnBFH0B" opacity="1" fill="#58595b" fill-opacity="1"></use><g><use xlink:href="#apSnBFH0B" opacity="1" fill-opacity="0" stroke="#000000" stroke-width="1" stroke-opacity="0"></use></g></g><g><use xlink:href="#e14I28bfog" opacity="1" fill="#58595b" fill-opacity="1"></use><g><use xlink:href="#e14I28bfog" opacity="1" fill-opacity="0" stroke="#000000" stroke-width="1" stroke-opacity="0"></use></g></g><g><use xlink:href="#cj4tAeSjT" opacity="1" fill="#58595b" fill-opacity="1"></use><g><use xlink:href="#cj4tAeSjT" opacity="1" fill-opacity="0" stroke="#000000" stroke-width="1" stroke-opacity="0"></use></g></g><g><use xlink:href="#a3DL8m1io1" opacity="1" fill="#58595b" fill-opacity="1"></use><g><use xlink:href="#a3DL8m1io1" opacity="1" fill-opacity="0" stroke="#000000" stroke-width="1" stroke-opacity="0"></use></g></g><g><use xlink:href="#d2d4zeedQg" opacity="1" fill="#58595b" fill-opacity="1"></use><g><use xlink:href="#d2d4zeedQg" opacity="1" fill-opacity="0" stroke="#000000" stroke-width="1" stroke-opacity="0"></use></g></g><g><use xlink:href="#cWLY87165" opacity="1" fill="#58595b" fill-opacity="1"></use><g><use xlink:href="#cWLY87165" opacity="1" fill-opacity="0" stroke="#000000" stroke-width="1" stroke-opacity="0"></use></g></g><g><use xlink:href="#b2a3Pf2BgZ" opacity="1" fill="#58595b" fill-opacity="1"></use><g><use xlink:href="#b2a3Pf2BgZ" opacity="1" fill-opacity="0" stroke="#000000" stroke-width="1" stroke-opacity="0"></use></g></g></g></svg>